<svg fill="none" height="36" viewBox="0 0 35 36" width="35" xmlns="http://www.w3.org/2000/svg">
    <path
        d="M17.6705 10.3438C15.814 10.3438 14.0335 11.0812 12.7207 12.394C11.408 13.7068 10.6705 15.4872 10.6705 17.3437C10.6705 19.2003 11.408 20.9807 12.7207 22.2935C14.0335 23.6063 15.814 24.3437 17.6705 24.3437C19.527 24.3437 21.3075 23.6063 22.6202 22.2935C23.933 20.9807 24.6705 19.2003 24.6705 17.3437C24.6705 15.4872 23.933 13.7068 22.6202 12.394C21.3075 11.0812 19.527 10.3438 17.6705 10.3438V10.3438Z"
        fill="#EEEEEE" />
    <path clip-rule="evenodd"
        d="M17.5 0.5C17.9219 0.5 18.3266 0.667613 18.6249 0.965966C18.9233 1.26432 19.0909 1.66897 19.0909 2.09091V3.68182C19.0909 4.10375 18.9233 4.50841 18.6249 4.80676C18.3266 5.10511 17.9219 5.27273 17.5 5.27273C17.0781 5.27273 16.6734 5.10511 16.3751 4.80676C16.0767 4.50841 15.9091 4.10375 15.9091 3.68182V2.09091C15.9091 1.66897 16.0767 1.26432 16.3751 0.965966C16.6734 0.667613 17.0781 0.5 17.5 0.5V0.5ZM3.64795 4.14795C3.94629 3.84971 4.35088 3.68216 4.77273 3.68216C5.19458 3.68216 5.59916 3.84971 5.8975 4.14795L8.28386 6.53432C8.57366 6.83437 8.73402 7.23623 8.73039 7.65337C8.72677 8.0705 8.55945 8.46952 8.26448 8.76448C7.96952 9.05945 7.5705 9.22677 7.15337 9.23039C6.73623 9.23402 6.33437 9.07366 6.03432 8.78386L3.64795 6.3975C3.34971 6.09916 3.18216 5.69458 3.18216 5.27273C3.18216 4.85088 3.34971 4.44629 3.64795 4.14795V4.14795ZM31.352 4.14795C31.6503 4.44629 31.8178 4.85088 31.8178 5.27273C31.8178 5.69458 31.6503 6.09916 31.352 6.3975L28.9657 8.78386C28.8189 8.93581 28.6434 9.05701 28.4493 9.14039C28.2552 9.22377 28.0464 9.26765 27.8352 9.26949C27.6239 9.27133 27.4145 9.23107 27.2189 9.15108C27.0234 9.07109 26.8458 8.95296 26.6964 8.80358C26.547 8.65421 26.4289 8.47658 26.3489 8.28106C26.2689 8.08555 26.2287 7.87606 26.2305 7.66482C26.2323 7.45358 26.2762 7.24482 26.3596 7.05072C26.443 6.85662 26.5642 6.68107 26.7161 6.53432L29.1025 4.14795C29.4008 3.84971 29.8054 3.68216 30.2273 3.68216C30.6491 3.68216 31.0537 3.84971 31.352 4.14795ZM0 18C0 17.5781 0.167613 17.1734 0.465966 16.8751C0.76432 16.5767 1.16897 16.4091 1.59091 16.4091H3.18182C3.60375 16.4091 4.00841 16.5767 4.30676 16.8751C4.60511 17.1734 4.77273 17.5781 4.77273 18C4.77273 18.4219 4.60511 18.8266 4.30676 19.1249C4.00841 19.4233 3.60375 19.5909 3.18182 19.5909H1.59091C1.16897 19.5909 0.76432 19.4233 0.465966 19.1249C0.167613 18.8266 0 18.4219 0 18ZM30.2273 18C30.2273 17.5781 30.3949 17.1734 30.6932 16.8751C30.9916 16.5767 31.3962 16.4091 31.8182 16.4091H33.4091C33.831 16.4091 34.2357 16.5767 34.534 16.8751C34.8324 17.1734 35 17.5781 35 18C35 18.4219 34.8324 18.8266 34.534 19.1249C34.2357 19.4233 33.831 19.5909 33.4091 19.5909H31.8182C31.3962 19.5909 30.9916 19.4233 30.6932 19.1249C30.3949 18.8266 30.2273 18.4219 30.2273 18ZM8.28386 27.2161C8.58211 27.5145 8.74966 27.9191 8.74966 28.3409C8.74966 28.7628 8.58211 29.1673 8.28386 29.4657L5.8975 31.852C5.59745 32.1418 5.19558 32.3022 4.77845 32.2986C4.36132 32.2949 3.9623 32.1276 3.66733 31.8327C3.37237 31.5377 3.20505 31.1387 3.20143 30.7215C3.1978 30.3044 3.35816 29.9025 3.64795 29.6025L6.03432 27.2161C6.33266 26.9179 6.73724 26.7503 7.15909 26.7503C7.58094 26.7503 7.98552 26.9179 8.28386 27.2161V27.2161ZM26.7161 27.2161C27.0145 26.9179 27.4191 26.7503 27.8409 26.7503C28.2628 26.7503 28.6673 26.9179 28.9657 27.2161L31.352 29.6025C31.6418 29.9025 31.8022 30.3044 31.7986 30.7215C31.7949 31.1387 31.6276 31.5377 31.3327 31.8327C31.0377 32.1276 30.6387 32.2949 30.2215 32.2986C29.8044 32.3022 29.4025 32.1418 29.1025 31.852L26.7161 29.4657C26.4179 29.1673 26.2503 28.7628 26.2503 28.3409C26.2503 27.9191 26.4179 27.5145 26.7161 27.2161ZM17.5 30.7273C17.9219 30.7273 18.3266 30.8949 18.6249 31.1932C18.9233 31.4916 19.0909 31.8962 19.0909 32.3182V33.9091C19.0909 34.331 18.9233 34.7357 18.6249 35.034C18.3266 35.3324 17.9219 35.5 17.5 35.5C17.0781 35.5 16.6734 35.3324 16.3751 35.034C16.0767 34.7357 15.9091 34.331 15.9091 33.9091V32.3182C15.9091 31.8962 16.0767 31.4916 16.3751 31.1932C16.6734 30.8949 17.0781 30.7273 17.5 30.7273V30.7273Z"
        fill="#EEEEEE" fill-rule="evenodd" />
</svg>
