<svg fill="none" height="100" viewBox="0 0 100 100" width="100" xmlns="http://www.w3.org/2000/svg">
    <path
        d="M73.2144 35.7151C73.2144 32.2654 70.1412 29.3791 66.0715 28.7168V42.7135C70.1412 42.0511 73.2144 39.1649 73.2144 35.7152V35.7151Z"
        fill="white" />
    <path
        d="M67.8572 50.0006C67.8572 51.9733 66.2585 53.5721 64.2858 53.5721C62.3131 53.5721 60.7144 51.9733 60.7144 50.0006C60.7144 48.0279 62.3131 46.4292 64.2858 46.4292C66.2585 46.4292 67.8572 48.0279 67.8572 50.0006Z"
        fill="white" />
    <path
        d="M49.9999 37.5006C54.3643 37.6853 58.1807 40.4967 59.6516 44.6095C60.4741 43.8991 61.4485 43.3868 62.4999 43.1112V28.6626C55.9425 29.2128 50.0022 32.7469 46.3899 38.2469C47.5311 37.7592 48.7587 37.5053 50.0003 37.5002L49.9999 37.5006Z"
        fill="white" />
    <path
        d="M55.3572 64.2865C55.3572 67.7362 58.4303 70.6225 62.5 71.2848V57.2881C58.4303 57.9505 55.3572 60.8367 55.3572 64.2864V64.2865Z"
        fill="white" />
    <path
        d="M50 41.072C46.5503 41.072 43.664 44.1452 43.0017 48.2149H56.9984C56.336 44.1452 53.4499 41.072 50.0001 41.072H50Z"
        fill="white" />
    <path
        d="M76.7856 35.715C76.6009 40.0794 73.7895 43.8958 69.6768 45.3667C70.3871 46.1892 70.8994 47.1636 71.175 48.215H85.6236C85.0734 41.6576 81.5393 35.7173 76.0393 32.105C76.5271 33.2462 76.781 34.4738 76.786 35.7154L76.7856 35.715Z"
        fill="white" />
    <path
        d="M25 75.0007V25.0007C25 22.042 22.6016 19.6436 19.6429 19.6436H0V23.215H19.6429C20.6289 23.215 21.4286 24.0147 21.4286 25.0007C21.4286 25.9867 20.6289 26.7864 19.6429 26.7864H0V30.3578H19.6429C20.6289 30.3578 21.4286 31.1575 21.4286 32.1436C21.4286 33.1296 20.6289 33.9293 19.6429 33.9293H0V37.5007H19.6429C20.6289 37.5007 21.4286 38.3004 21.4286 39.2864C21.4286 40.2725 20.6289 41.0721 19.6429 41.0721H0V44.6436H19.6429C20.6289 44.6436 21.4286 45.4432 21.4286 46.4293C21.4286 47.4153 20.6289 48.215 19.6429 48.215H0V51.7864H19.6429C20.6289 51.7864 21.4286 52.5861 21.4286 53.5721C21.4286 54.5582 20.6289 55.3578 19.6429 55.3578H0V58.9293H19.6429C20.6289 58.9293 21.4286 59.7289 21.4286 60.715C21.4286 61.701 20.6289 62.5007 19.6429 62.5007H0V66.0721H19.6429C20.6289 66.0721 21.4286 66.8718 21.4286 67.8578C21.4286 68.8439 20.6289 69.6436 19.6429 69.6436H0V73.215H19.6429C20.6289 73.215 21.4286 74.0147 21.4286 75.0007C21.4286 75.9867 20.6289 76.7864 19.6429 76.7864H0V80.3578H19.6429C22.6016 80.3578 25 77.9594 25 75.0007Z"
        fill="white" />
    <path
        d="M78.5714 58.9292C82.0211 58.9292 84.9074 55.8561 85.5697 51.7864H71.573C72.2354 55.8561 75.1216 58.9292 78.5713 58.9292H78.5714Z"
        fill="white" />
    <path
        d="M64.2858 21.4285C48.5058 21.4285 35.7144 34.2203 35.7144 49.9999C35.7144 65.7795 48.5062 78.5713 64.2858 78.5713C80.0654 78.5713 92.8572 65.7795 92.8572 49.9999C92.8382 34.2285 80.0575 21.447 64.2858 21.4285ZM64.2858 74.9999C63.8142 74.9999 63.3516 74.9731 62.8946 74.9301C49.663 74.1874 39.3075 63.2527 39.286 50.0001C39.286 49.5286 39.3128 49.066 39.3558 48.609C40.0985 35.3774 51.0332 25.0218 64.2858 25.0004C64.7573 25.0004 65.2199 25.0272 65.677 25.0701C78.9085 25.8129 89.2641 36.7476 89.2855 50.0001C89.2855 50.4717 89.2588 50.9343 89.2158 51.3913C88.473 64.6229 77.5384 74.9785 64.2858 74.9999Z"
        fill="white" />
    <path
        d="M98.2143 12.5H1.78571C0.799671 12.5 0 13.2997 0 14.2857V16.0714H19.6429C24.5714 16.0776 28.5653 20.0714 28.5714 25V75C28.5653 79.9286 24.5714 83.9224 19.6429 83.9286H0V85.7143C0 86.7003 0.799671 87.5 1.78571 87.5H98.2143C99.2003 87.5 100 86.7003 100 85.7143V14.2857C100 13.2997 99.2003 12.5 98.2143 12.5ZM64.2857 82.1429C46.5329 82.1429 32.1429 67.7529 32.1429 50C32.1429 32.2471 46.5329 17.8571 64.2857 17.8571C82.0386 17.8571 96.4286 32.2471 96.4286 50C96.4079 67.7429 82.0286 82.1229 64.2857 82.1429Z"
        fill="white" />
    <path
        d="M51.7858 64.2864C51.9738 59.9254 54.7846 56.1128 58.8946 54.6435C58.1831 53.8187 57.6703 52.8411 57.3963 51.7864H42.9478C43.498 58.3438 47.032 64.2841 52.532 67.8964C52.0443 66.7552 51.7904 65.5275 51.7854 64.2859L51.7858 64.2864Z"
        fill="white" />
    <path
        d="M78.5715 62.5007C74.2105 62.3126 70.398 59.5018 68.9287 55.3918C68.1039 56.1033 67.1262 56.6162 66.0715 56.8901V71.3387C72.629 70.7885 78.5692 67.2544 82.1815 61.7544C81.0403 62.2421 79.8127 62.496 78.5711 62.5011L78.5715 62.5007Z"
        fill="white" />
</svg>
