<svg fill="none" height="100" viewBox="0 0 100 100" width="100" xmlns="http://www.w3.org/2000/svg">
    <path d="M96.5426 69.6924C91.6354 79.0692 84.7109 87.1463 76.3066 93.2957" stroke="white"
        stroke-linecap="round" stroke-linejoin="round" stroke-width="5" />
    <path d="M88.6861 66.4629C84.6531 74.7709 78.4684 81.7417 70.8308 86.5878" stroke="white"
        stroke-linecap="round" stroke-linejoin="round" stroke-width="3" />
    <path d="M3.45728 70.4382C8.36444 79.9137 15.289 88.0759 23.6932 94.29" stroke="white"
        stroke-linecap="round" stroke-linejoin="round" stroke-width="5" />
    <path d="M11.3135 66.4629C15.3464 74.8734 21.5311 81.9303 29.1687 86.8363" stroke="white"
        stroke-linecap="round" stroke-linejoin="round" stroke-width="3" />
    <path
        d="M90.255 46.2159C90.2649 46.6055 90.1227 46.9823 89.8614 47.261C89.5996 47.5391 89.2414 47.6949 88.8681 47.693H86.0796H86.0802C85.329 47.6979 84.7194 48.328 84.7066 49.1114C84.3589 58.4596 80.5563 67.3042 74.0957 73.7898C67.6352 80.2752 59.0202 83.8978 50.0564 83.8978C41.092 83.8978 32.4771 80.2752 26.0157 73.7898C19.5559 67.3044 15.7526 58.4604 15.4049 49.1114C15.3921 48.328 14.7825 47.6979 14.0318 47.693H11.2434C10.8701 47.6949 10.5119 47.5391 10.2506 47.261C9.9888 46.9829 9.84656 46.6055 9.85644 46.2165C10.2222 35.3445 14.6176 25.0444 22.1161 17.489C29.6151 9.93309 39.6316 5.70996 50.056 5.70996C60.4794 5.70996 70.4957 9.93295 77.996 17.489C85.4951 25.045 89.8906 35.3445 90.2557 46.2165L90.255 46.2159Z"
        stroke="white" stroke-linecap="round" stroke-linejoin="round" stroke-width="2.5" />
    <path
        d="M80.3138 35.9059H77.2328C76.7137 35.9023 76.2406 35.5951 76.0084 35.111C72.7369 28.4251 67.2118 23.238 60.4959 20.5504C53.78 17.8621 46.3483 17.8621 39.6317 20.5504C32.9153 23.2387 27.39 28.4257 24.1192 35.111C23.887 35.5951 23.4139 35.9023 22.8948 35.9059H19.7998C19.329 35.9059 18.8895 35.6569 18.6335 35.2449C18.3769 34.8323 18.3386 34.3125 18.5307 33.8635C18.594 33.7187 18.6573 33.5745 18.7212 33.4303C22.4902 25.1344 29.1393 18.6424 37.3228 15.2722C45.5052 11.9005 54.6095 11.9005 62.7923 15.2722C70.9752 18.6434 77.6251 25.1349 81.394 33.4303C81.4579 33.5745 81.5217 33.7187 81.5844 33.8635C81.7766 34.3125 81.7383 34.8323 81.4817 35.2449C81.2256 35.6569 80.7861 35.9059 80.3153 35.9059H80.3138Z"
        fill="white" stroke="white" stroke-linecap="round" stroke-linejoin="round"
        stroke-width="2.5" />
    <path
        d="M69.4753 47.6924C69.4753 48.1843 69.4614 48.6624 69.4196 49.1398H69.4201C69.2936 51.1228 68.882 53.075 68.1992 54.9303C67.1937 57.6574 65.6372 60.1259 63.6355 62.1688C63.138 62.6856 62.6102 63.1691 62.054 63.6163C61.4769 64.0895 60.8749 64.5293 60.2509 64.9341C60.0941 65.0389 59.9321 65.1352 59.7655 65.2231C56.8174 67.0153 53.467 67.9593 50.0556 67.9593C46.6436 67.9593 43.2932 67.0154 40.3451 65.2231C40.1791 65.1352 40.0165 65.0389 39.8598 64.9341C39.2363 64.5293 38.6342 64.0895 38.0566 63.6163C37.5004 63.1691 36.9727 62.6856 36.4751 62.1688C34.4733 60.1257 32.9168 57.6573 31.9114 54.9303C31.2287 53.0752 30.8171 51.123 30.6905 49.1398C30.6487 48.6624 30.6348 48.1843 30.6348 47.6924H30.6353C30.6353 40.4514 34.337 33.7606 40.3453 30.1409C46.3541 26.5201 53.7568 26.5201 59.7654 30.1409C65.7742 33.761 69.4753 40.4519 69.4753 47.6924H69.4753Z"
        stroke="white" stroke-linecap="round" stroke-linejoin="round" stroke-width="2.5" />
    <path d="M41.677 49.1406L48.6129 54.9311L59.7097 40.4546" stroke="white" stroke-linecap="round"
        stroke-linejoin="round" stroke-width="2.5" />
</svg>
