<svg fill="none" height="100" viewBox="0 0 100 100" width="100" xmlns="http://www.w3.org/2000/svg">
    <g clip-path="url(#clip0_108_33)">
        <path clip-rule="evenodd"
            d="M89.351 77.7811C87.6498 81.7434 85.2412 85.3459 82.1851 88.4237C73.6369 97.0274 61.709 99.812 49.9268 99.812C38.1528 99.812 26.2325 97.0371 17.6988 88.4196C14.671 85.3654 12.2916 81.7881 10.6015 77.8583L8.86217 80.6595L0 75.1544L10.9018 57.6245L28.4233 68.5229L22.9259 77.3817L21.6903 76.6104C22.6459 78.2413 23.7931 79.7513 25.1259 81.0961C30.3141 86.3288 37.5391 88.4824 44.7107 89.1299L44.7114 35.7659H33.4634V25.338H44.7114V24.165C40.2584 22.1449 37.3578 17.6946 37.3578 12.7621C37.3578 5.82885 42.9943 0.188232 49.9274 0.188232C56.8618 0.188232 62.4984 5.82885 62.4984 12.7621C62.4984 17.6932 59.5985 22.1448 55.1448 24.165V25.338H66.394V35.7659H55.1448V89.1317C62.3386 88.4868 69.5808 86.32 74.7865 81.0756C76.0936 79.765 77.2166 78.2876 78.1659 76.7054L77.0762 77.3843L71.576 68.5255L89.0989 57.6271L100 75.157L91.1426 80.6663L89.351 77.7811ZM49.927 9.02171C47.8701 9.02171 46.1835 10.7034 46.1835 12.7631C46.1835 14.8235 47.8707 16.5052 49.927 16.5052C51.986 16.5052 53.6683 14.8235 53.6683 12.7631C53.6683 10.7034 51.9867 9.02171 49.927 9.02171V9.02171Z"
            fill="white" fill-rule="evenodd" />
    </g>
    <defs>
        <clipPath id="clip0_108_33">
            <rect fill="white" height="100" width="100" />
        </clipPath>
    </defs>
</svg>
