<svg fill="none" height="100" viewBox="0 0 100 100" width="100" xmlns="http://www.w3.org/2000/svg">
    <path clip-rule="evenodd"
        d="M62.8367 50.9132C62.2913 52.374 61.4543 53.705 60.3402 54.824C57.5967 57.5888 53.7567 58.4709 49.9764 58.4709C46.1991 58.4709 42.3598 57.5888 39.6232 54.824C38.5204 53.7105 37.6897 52.3877 37.1512 50.9345L36.4353 52.0906L34.0166 50.5872L37.2848 45.3303L42.5436 48.5979L41.0427 51.0197L40.0151 50.3759C40.4051 51.2837 40.9505 52.1232 41.6514 52.8278C43.4744 54.6666 46.0331 55.3838 48.5546 55.5674V37.4908H44.8688V34.6457H48.5546V33.7887C47.1189 33.2163 46.1459 31.8233 46.1459 30.2403C46.1459 28.1244 47.865 26.4072 49.9777 26.4072C52.0924 26.4072 53.8108 28.1276 53.8108 30.2403C53.8108 31.8196 52.841 33.2145 51.4021 33.7887V34.6457H55.0866V37.4908H51.4021V55.5674C53.9318 55.3862 56.4929 54.6615 58.3254 52.8196C59.0157 52.1237 59.563 51.2961 59.9567 50.4003L58.9642 51.0203L57.4608 48.5984L62.7183 45.3309L65.9904 50.5878L63.5711 52.0912L62.8367 50.9132ZM49.9758 29.2511C49.4303 29.2511 48.9883 29.6956 48.9883 30.2398C48.9883 30.7853 49.4303 31.226 49.9758 31.226C50.5212 31.226 50.9644 30.7853 50.9644 30.2398C50.9644 29.6956 50.5212 29.2511 49.9758 29.2511Z"
        fill="white" fill-rule="evenodd" />
    <path clip-rule="evenodd"
        d="M70.2256 23.3642C75.3552 28.6372 78.2102 35.6496 78.2102 43.0232C78.2102 58.5995 65.5775 71.2319 49.9999 71.2319C34.4213 71.2319 21.7881 58.6004 21.7881 43.0232C21.7881 35.6493 24.6425 28.6356 29.769 23.3642V5.06128H70.2235V23.3642H70.2256ZM49.9999 22.7974C38.8298 22.7974 29.7711 31.8535 29.7711 43.0246C29.7711 54.1935 38.8322 63.2503 49.9999 63.2503C61.1688 63.2503 70.2256 54.1929 70.2256 43.0246C70.2256 31.8545 61.1695 22.7974 49.9999 22.7974V22.7974ZM64.0539 11.2349H35.9415V18.5624C40.2104 16.1036 45.0345 14.8141 49.9993 14.8141C54.9596 14.8141 59.7845 16.1037 64.0526 18.5624L64.052 11.2349H64.0539Z"
        fill="white" fill-rule="evenodd" />
    <path clip-rule="evenodd"
        d="M0.00019408 40.5146H17.7109C17.6362 41.4074 17.5993 42.3071 17.5993 43.2079C17.5993 45.3101 17.803 47.3689 18.1873 49.3581L0 49.3587L0.00019408 40.5146ZM82.2877 40.5146H100V49.36H81.8175C82.1955 47.367 82.4018 45.3112 82.4018 43.2098C82.4018 42.3064 82.3629 41.4075 82.2889 40.5146H82.2877Z"
        fill="white" fill-rule="evenodd" />
    <path clip-rule="evenodd"
        d="M9.2666 74.2748L23.5569 61.9335C25.2723 64.3554 27.3117 66.5251 29.6124 68.3885L15.0475 80.9654L9.2666 74.2748ZM74.1131 18.2699L84.9509 8.91162L90.73 15.6041L77.8835 26.7003C76.8058 24.8828 75.5431 23.1675 74.1125 21.5733L74.1131 18.2699Z"
        fill="white" fill-rule="evenodd" />
    <path clip-rule="evenodd"
        d="M90.7306 74.2748L76.4453 61.9335C74.7262 64.3554 72.6861 66.5251 70.3898 68.3885L84.9515 80.9654L90.7306 74.2748ZM25.8825 18.2699L15.0459 8.91162L9.26611 15.6035L22.1133 26.6996C23.191 24.8822 24.4523 23.1668 25.883 21.5726L25.8836 18.2699H25.8825Z"
        fill="white" fill-rule="evenodd" />
    <path clip-rule="evenodd"
        d="M45.5786 94.9387V75.3069C47.0249 75.5063 48.4995 75.6091 50.0017 75.6091C51.5026 75.6091 52.9741 75.5056 54.4222 75.3069V94.9387H45.5786Z"
        fill="white" fill-rule="evenodd" />
</svg>
