<svg fill="none" height="100" viewBox="0 0 100 100" width="100" xmlns="http://www.w3.org/2000/svg">
    <g clip-path="url(#clip0_108_51)">
        <path
            d="M86.3997 18.7479L87.0287 17.1423C87.5466 15.8268 88.8262 15.2766 89.8539 16.029L92.6308 18.0359C93.6075 18.7423 93.9501 20.3357 93.4515 21.5895L89.737 31.0185L83.3891 26.4338C77.487 22.6753 70.5803 19.9982 63.9774 19.9982L30.7165 19.999C23.6829 19.999 16.0892 23.0952 9.88625 27.3727L22.8839 60.3576H70.004L77.0926 42.3656L83.3339 47.2773L74.5187 69.6526C74.4535 69.8086 74.378 69.9625 74.2913 70.1044L73.5959 71.8581L73.5227 71.9723C73.213 72.4552 72.6708 72.7814 72.1932 72.9098C71.0821 73.2169 69.903 72.7368 68.9223 72.1007C68.2877 71.6929 67.2338 71.6376 66.5384 71.6787C65.0144 71.7659 63.4535 72.2879 62.0396 72.9736C56.9377 75.4423 52.3327 80.5985 48.7806 85.6754L48.7567 85.7052L46.4449 88.5999L44.1285 85.7052L44.1047 85.6754C40.5491 80.5992 35.939 75.443 30.8291 72.9736C29.4134 72.2872 27.8508 71.7645 26.3291 71.6787C25.6281 71.6376 24.5742 71.6929 23.9362 72.1007C22.9561 72.7368 21.7741 73.2169 20.6663 72.9098C20.1837 72.7814 19.6431 72.4552 19.3323 71.9723L19.2603 71.861L18.4634 69.8513C18.4118 69.7598 18.4339 69.8009 18.3789 69.6527L17.1969 66.6594L15.4108 62.1562L15.4221 62.1505L-0.562896 21.5898C-1.06032 20.3304 -0.718303 18.7418 0.260094 18.0363L3.03703 16.0293C4.0625 15.279 5.33975 15.8279 5.86101 17.1427L6.85926 19.6829C14.0137 14.8365 22.6221 11.3999 30.7184 11.3999H63.9792C71.6272 11.3999 79.5649 14.4259 86.4009 18.7475L86.3997 18.7479Z"
            fill="white" />
        <path clip-rule="evenodd"
            d="M46.8713 38.4978H93.3093V45.606L100.789 36.6354L93.3093 27.6716V34.7787H43.8169V53.2468H46.8712L46.8713 38.4978Z"
            fill="white" fill-rule="evenodd" />
    </g>
    <defs>
        <clipPath id="clip0_108_51">
            <rect fill="white" height="100" width="100" />
        </clipPath>
    </defs>
</svg>
