<svg fill="none" height="100" viewBox="0 0 100 100" width="100" xmlns="http://www.w3.org/2000/svg">
    <path clip-rule="evenodd"
        d="M95.5771 35.2588H81.8173L79.3605 41.0327H78.2551V38.9444C78.2551 37.593 77.1496 36.4876 75.7983 36.4876L69.6558 36.4868V31.9416C69.6558 28.5018 66.9531 25.7991 63.5134 25.7991H52.2112V21.3765H63.5134C64.6188 21.3765 65.4791 20.5162 65.4791 19.4107V17.8134C65.4791 16.708 64.6188 15.8477 63.5134 15.8477L24.8158 15.8485C23.7104 15.8485 22.85 16.7089 22.85 17.8143V19.4116C22.85 20.5171 23.7104 21.3774 24.8158 21.3774H37.4693V25.8L24.9393 25.7991C24.079 25.7991 23.0969 26.0451 22.359 26.5361L15.6021 31.2046H9.45964V48.5265H5.52802L5.52888 34.1532C5.52888 33.0477 4.66852 32.1874 3.56309 32.1874H1.96579C0.86034 32.1874 0 33.0477 0 34.1532V68.551C0 69.6564 0.860362 70.5168 1.96579 70.5168H3.56309C4.66854 70.5168 5.52888 69.6564 5.52888 68.551V54.177H9.45962V71.253H17.1993L34.3978 84.1524H71.6212C75.3069 84.1524 78.2546 81.2038 78.2546 77.519V74.4478H79.36L81.8168 80.2217H95.5757L99.9983 70.2711L100 45.3327L95.5771 35.2588ZM44.0563 54.9147V68.551L54.8673 50.2462H44.9167V36.4873L34.1057 54.9147H44.0563Z"
        fill="white" fill-rule="evenodd" />
</svg>
