<svg fill="none" height="55" viewBox="0 0 56 55" width="56" xmlns="http://www.w3.org/2000/svg">
    <path
        d="M42.0279 33.5178L41.0142 32.941L39.9988 33.5178V34.5289L39.1107 34.0231L38.0977 34.5999V35.7532L39.9988 36.8352V39.8678L37.3339 38.3514V36.1872L36.3194 35.6106L35.8801 35.8597L35.8805 40.3315L36.3194 40.0816L38.9855 41.5976L36.3194 43.1138L35.8805 42.8639L35.8801 47.3349L36.3194 47.5848L37.3339 47.008V44.8439L39.9988 43.3277V46.359L38.0977 47.4421V48.5954L39.1107 49.1722L39.9988 48.6676V49.6775L41.0142 50.255L42.0279 49.6775V48.6676L42.9158 49.1722L43.9315 48.5954V47.4421L42.0279 46.359V43.3277L44.694 44.8439V47.008L45.7079 47.5848L46.7228 47.008V45.9973L47.6113 46.5027L48.625 45.9268V44.7734L47.7352 44.2679L48.625 43.7619V42.6075L47.6113 42.0321L45.7079 43.1137L43.0417 41.5976L45.7079 40.0816L47.6113 41.1644L48.625 40.586V39.4327L47.7352 38.9282L48.625 38.4228V37.2694L47.6113 36.6926L46.7228 37.1983V36.1872L45.7079 35.6106L44.694 36.1872V38.3514L42.0279 39.8678V36.8352L43.9315 35.7532V34.5999L42.9158 34.0231L42.0279 34.5289V33.5178Z"
        fill="#02AA13" />
    <path
        d="M43.4688 18.9256H46.9062V22.3612H50.3438V25.7969H46.9062V29.2326H43.4688V25.7969H40.0312V22.3612L43.4688 22.3318V18.9256Z"
        fill="#02AA13" />
    <path d="M5.65625 22.3318H14.1347V25.7675H5.65625V22.3318Z" fill="#02AA13" />
    <path d="M7.25967 0V6.87132H12.4159V0H7.25967Z" fill="#02AA13" />
    <path d="M42.6094 0.0294459V6.90077H47.7656V0.0294459H42.6094Z" fill="#02AA13" />
    <path d="M0.5 10.0812V12.5941H55.5V10.0812H0.5Z" fill="#02AA13" />
    <path
        d="M22.1805 51.5798H33.1057C33.8992 51.5798 34.5457 51.0952 34.5457 50.5019V50.2508H20.741V50.5019C20.741 51.0952 21.3886 51.5798 22.1805 51.5798Z"
        fill="#02AA13" />
    <path clip-rule="evenodd"
        d="M21.1263 49.9942H34.1619C35.1077 49.9942 35.8801 49.2322 35.8801 48.3014V47.3349L35.3053 47.0076V45.9969L34.4172 46.5021L33.4018 45.9262V44.7728L34.2916 44.2676L33.4018 43.7615V42.6073L34.4172 42.0313L35.8805 42.8639V40.3315L34.4172 41.1641L33.4018 40.5857V39.4323L34.2916 38.9279L33.4018 38.4226V37.2693L34.4172 36.6925L35.3053 37.1977V36.187L35.8801 35.8597V31.8275L19.4064 31.8273V48.3014C19.4064 49.2322 20.18 49.9942 21.1263 49.9942ZM22.0831 33.4742H20.7383V39.5507H22.0831V33.4742Z"
        fill="#02AA13" fill-rule="evenodd" />
    <path clip-rule="evenodd"
        d="M21.1263 22.3612H34.1619C35.1077 22.3612 35.8802 23.1233 35.8802 24.0541V31.174H19.4063V24.0536C19.4063 23.1227 20.1801 22.3612 21.1263 22.3612ZM22.0831 25.4131H20.7384V29.8778L22.0831 29.8776V25.4131Z"
        fill="#02AA13" fill-rule="evenodd" />
    <path clip-rule="evenodd"
        d="M0.5 15.4212V55H55.5V15.4212H0.5ZM54.125 17.1875H1.875V53.625H54.125V17.1875Z"
        fill="#02AA13" fill-rule="evenodd" />
    <path clip-rule="evenodd"
        d="M0.5 15.4212V55H55.5V15.4212H0.5ZM54.125 17.1875H1.875V53.625H54.125V17.1875Z"
        fill="#02AA13" fill-rule="evenodd" />
</svg>
