<svg fill="none" height="100" viewBox="0 0 100 100" width="100" xmlns="http://www.w3.org/2000/svg">
    <path
        d="M82.7663 46.9752C81.2041 44.1422 81.183 40.746 82.6828 37.9963L58.9735 39.2258C59.3906 42.6845 58.8282 46.4548 58.8282 46.4548C57.5573 50.2471 58.9946 52.8512 60.224 54.2259C63.0157 57.2676 59.7655 60.6426 62.7032 63.9138C63.4741 64.9972 65.7449 66.351 65.5574 69.4347L65.4535 71.0805C65.2035 75.8303 70.0158 75.8514 69.6198 80.5389L69.5573 80.9974C69.2449 84.6849 72.6825 86.0807 73.2238 89.3512C73.5988 90.5182 73.2863 93.6013 76.2233 95.2469L83.015 99.0805C90.9525 102.477 96.5569 95.3717 96.5569 95.3717C103.266 87.892 88.3906 57.1628 82.7657 46.9748L82.7663 46.9752Z"
        fill="white" />
    <path
        d="M96.0589 31.8299C97.5172 27.2676 97.5172 20.3298 96.0589 15.7885C95.3715 13.7054 93.4757 12.268 91.288 12.1423L54.6416 10.2466C53.8292 10.2052 53.0794 10.538 52.5787 11.1004H52.724L53.3489 11.7042C57.87 16.2253 57.87 31.3714 53.3489 35.8915L52.724 36.4953H52.5576C53.0575 37.0788 53.8285 37.4116 54.6408 37.3702L91.2872 35.4533C93.4751 35.3508 95.3708 33.9131 96.0589 31.8299Z"
        fill="white" />
    <path
        d="M51.8696 13.1838H42.3901C43.9109 16.455 44.5568 20.5378 44.5568 23.809C44.5568 26.7045 44.0155 30.9546 42.4526 34.4133H51.8696C55.6203 30.6633 55.6203 16.934 51.8696 13.1838Z"
        fill="white" />
    <path
        d="M35.2866 9.66234C23.0577 9.14136 17.1408 5.4538 14.4326 2.78711V44.8298C17.1408 42.1421 23.0575 38.4756 35.2866 37.9546C40.6824 37.7257 42.4743 28.8087 42.4743 23.8088C42.4736 18.9137 40.6614 9.89281 35.2866 9.66309V9.66234Z"
        fill="white" />
    <path
        d="M1.73781 3.96803V43.6447C1.73781 45.8398 3.51001 47.6119 5.7051 47.6119H12.3441L12.3448 0H5.70583C3.50994 0 1.73781 1.7722 1.73781 3.96803Z"
        fill="white" />
</svg>
