<svg fill="none" height="100" viewBox="0 0 100 100" width="100" xmlns="http://www.w3.org/2000/svg">
    <path clip-rule="evenodd"
        d="M100 52.6922H89.3109V57.3334L83.6484 52.4171V66.0632C83.6484 71.0772 79.5474 75.1798 74.5324 75.1798H25.4681C20.4541 75.1798 16.3504 71.0765 16.3504 66.0632V52.4171L10.6903 57.3334V52.6922H0V43.4082H10.6891V38.7642L16.3493 43.6816V33.9389C16.3493 28.9234 20.4541 24.8201 25.467 24.8201H74.5313C79.5463 24.8201 83.6473 28.9239 83.6473 33.9389V43.6816L89.3097 38.7642V43.4082H99.9989V52.6922H100ZM78.6214 53.4913C77.6002 53.796 76.5143 53.9612 75.3949 53.9612C73.0059 53.959 70.7537 53.2168 69.045 51.9226C67.3369 53.2156 65.0846 53.9589 62.6929 53.9589C60.305 53.9589 58.05 53.2162 56.3407 51.9226C54.6337 53.2156 52.3793 53.9589 49.9897 53.9589C47.603 53.9589 45.3469 53.2162 43.6387 51.9226C41.9344 53.2156 39.6773 53.9589 37.2894 53.9612C34.9016 53.959 32.6466 53.2168 30.9361 51.9226C29.2291 53.2156 26.9747 53.9589 24.5879 53.9612C23.4601 53.9612 22.378 53.796 21.3791 53.4975V66.0633C21.3791 68.3116 23.2151 70.1503 25.4651 70.1503H74.5294C76.7783 70.1503 78.6181 68.3116 78.6181 66.0633V53.4913H78.6214ZM21.3814 47.0633C21.7827 48.2023 23.0673 49.0349 24.5869 49.037C26.439 49.0348 27.9323 47.811 27.9384 46.2955L27.9412 44.8691H33.9445L33.9484 46.2955C33.9512 47.81 35.4428 49.0349 37.2906 49.037C39.1393 49.0348 40.6327 47.811 40.636 46.2955L40.6388 44.8691H46.6421L46.6482 46.2955C46.6521 47.8122 48.1438 49.0349 49.9903 49.037C51.8402 49.0348 53.3325 47.811 53.3358 46.2955L53.3408 44.8691H59.3496V46.2994C59.3536 47.8173 60.8458 49.0348 62.6906 49.0366C64.5405 49.0343 66.0361 47.8106 66.0378 46.2971L66.0406 44.8725H72.0462L72.0512 46.2949C72.054 47.8095 73.5456 49.0343 75.3955 49.0365C76.9406 49.0342 78.2342 48.1832 78.622 47.0186L78.6231 33.9387C78.6231 31.6887 76.7833 29.85 74.5344 29.85H25.4701C23.219 29.85 21.3841 31.6876 21.3841 33.9387V47.0632L21.3814 47.0633Z"
        fill="white" fill-rule="evenodd" />
</svg>
