<svg fill="none" height="100" viewBox="0 0 100 100" width="100" xmlns="http://www.w3.org/2000/svg">
    <g clip-path="url(#clip0_108_31)">
        <path
            d="M50.0005 60.5132C52.6643 60.5132 54.8161 58.359 54.8161 55.6927V27.2822C54.8161 24.6157 52.6641 22.4617 50.0005 22.4617C47.3368 22.4617 45.185 24.6159 45.185 27.2822V55.6927C45.0828 58.3592 47.337 60.5132 50.0005 60.5132Z"
            fill="white" />
        <path
            d="M56.0448 69.744C56.0448 73.0865 53.3383 75.7959 49.9999 75.7959C46.6616 75.7959 43.9551 73.0865 43.9551 69.744C43.9551 66.4022 46.6616 63.6929 49.9999 63.6929C53.3383 63.6929 56.0448 66.4022 56.0448 69.744Z"
            fill="white" />
        <path
            d="M96.9261 67.2825C98.975 61.7444 100 56 100 50.052H91.0863V49.4367C91.0863 47.6932 90.9841 45.9497 90.6768 44.3085L99.4875 43.0772C98.6677 37.2306 96.8237 31.6925 94.0572 26.4619L86.3728 30.5641C85.2457 28.4099 83.9136 26.3588 82.3769 24.513L89.1394 19.1794C85.4508 14.5642 81.1476 10.6666 76.1269 7.58943L71.6186 14.9741C69.5696 13.7435 67.4176 12.6153 65.1635 11.6917L68.3396 3.6916C63.0123 1.33279 57.1718 0.102198 51.332 0L51.1269 8.71837H50.5122C48.2582 8.71837 46.1069 8.9237 43.9549 9.33365L42.6227 0.615279C36.7822 1.43589 31.2498 3.38471 26.0246 6.15341L30.43 14.1535C28.381 15.384 26.332 16.7176 24.4874 18.2557L18.7499 11.0763C14.1395 14.7687 10.2458 19.1786 7.27473 24.2046L15.3686 29.1276C14.1393 31.1787 13.2166 33.3329 12.3977 35.5893L3.38113 32.1023C1.22913 37.5382 0.102093 43.3848 0 49.2306L9.83638 49.4359V49.5382C9.83638 51.8971 10.0415 54.1535 10.451 56.4101L0.614641 57.9483C1.53732 63.6924 3.3812 69.2313 6.25004 74.4619L15.0615 69.539C16.1885 71.5901 17.5207 73.539 19.0573 75.2824L11.2707 81.6413C14.9592 86.1543 19.4675 90.0519 24.4875 93.026L29.7127 84.3076C31.6596 85.5381 33.8106 86.564 35.9626 87.3847L32.3762 96.8207C37.9086 98.8718 43.647 100 49.5889 100L49.6911 90.0512H50.5108C52.6628 90.0512 54.7118 89.8459 56.6587 89.5382L58.2982 99.2817C64.1387 98.3588 69.6711 96.3077 74.794 93.4352L69.9792 85.1283C72.0282 84.0001 73.9751 82.6666 75.8197 81.1283L81.9676 88.513C86.4759 84.7183 90.2665 80.3076 93.2384 75.1794L85.143 70.5641C86.3723 68.513 87.3971 66.3588 88.3191 64.1024L96.9261 67.2825ZM50.4099 82.3595C32.2753 82.3595 17.5208 67.59 17.5208 49.4362C17.5208 31.2821 32.275 16.5129 50.4099 16.5129C68.5449 16.5129 83.2991 31.2824 83.2991 49.4362C83.2984 67.5904 68.6464 82.3595 50.4081 82.3595H50.4099Z"
            fill="white" />
    </g>
    <defs>
        <clipPath id="clip0_108_31">
            <rect fill="white" height="100" width="100" />
        </clipPath>
    </defs>
</svg>
