<svg fill="none" height="100" viewBox="0 0 100 100" width="100" xmlns="http://www.w3.org/2000/svg">
    <g clip-path="url(#clip0_108_47)">
        <path clip-rule="evenodd"
            d="M9.49461 100.761H46.8857C49.6014 100.761 51.8139 99.0774 51.8139 97.016V96.1436H4.56787V97.016C4.56787 99.0775 6.78451 100.761 9.49461 100.761V100.761Z"
            fill="white" fill-rule="evenodd" />
        <path clip-rule="evenodd"
            d="M5.8868 95.2521H50.5005C53.7374 95.2521 56.3812 92.6044 56.3812 89.3702V86.0121L54.4138 84.8748V81.3631L51.3743 83.1186L47.8993 81.1173V77.1099L50.9445 75.3544L47.8993 73.596V69.5857L51.3743 67.5844L56.3824 70.4773V61.6784L51.3743 64.5712L47.8993 62.5614V58.554L50.9445 56.8013L47.8993 55.0457V51.0383L51.3743 49.0342L54.4138 50.7897V47.2779L56.3812 46.1406V32.1303H50.5005L5.8868 32.1296H0.000488281V89.3702C0.000488281 92.6044 2.64823 95.2521 5.8868 95.2521V95.2521ZM4.55899 37.852H9.16141V58.9651H4.55899V37.852Z"
            fill="white" fill-rule="evenodd" />
        <path clip-rule="evenodd"
            d="M5.88685 -0.760931H50.5005C53.7375 -0.760931 56.3812 1.88681 56.3812 5.12103V29.8599H0V5.11921C0 1.885 2.64774 -0.761475 5.88631 -0.761475L5.88685 -0.760931ZM4.55905 9.84309H9.16146V25.3554L4.55905 25.3561V9.84309Z"
            fill="white" fill-rule="evenodd" />
        <path clip-rule="evenodd"
            d="M73.9521 35.9993L77.4215 38.0034V41.5166L80.4603 39.759L83.9367 41.7632V45.7706L77.4215 49.5302V60.0669L86.5462 54.7983V47.2784L90.0162 45.2749L93.4898 47.2784V50.7916L96.5306 49.0346L99.9999 51.0388V55.0462L96.9548 56.8025L99.9999 58.5552V62.5626L96.5306 64.5724L90.0161 60.8099L80.8914 66.0773L90.0161 71.3454L96.5306 67.5872L99.9999 69.5863V73.5974L96.9548 75.3557L99.9999 77.112V81.1194L96.5306 83.1206L93.4898 81.3644V84.8762L90.0162 86.8803L86.5462 84.8762V77.3568L77.4215 72.0887V82.6213L83.9367 86.3845V90.3919L80.4603 92.3961L77.4215 90.6427V94.1515L73.9521 96.1584L70.4772 94.1515V90.6427L67.4377 92.3961L63.9705 90.3919V86.3845L70.4772 82.6213V72.0887L61.3566 77.3568V84.8762L57.8846 86.8803L56.3818 86.0136V70.4786L57.8846 71.3454L67.0093 66.0773L57.8846 60.8099L56.3818 61.6795V46.1432L57.8846 45.2749L61.3566 47.2784V54.7983L70.4772 60.0669V49.5302L63.9705 45.7706V41.7632L67.4377 39.759L70.4772 41.5167V38.0034L73.9521 35.9993Z"
            fill="white" fill-rule="evenodd" />
    </g>
    <defs>
        <clipPath id="clip0_108_47">
            <rect fill="white" height="100" width="100" />
        </clipPath>
    </defs>
</svg>
