<svg fill="none" height="100" viewBox="0 0 100 100" width="100" xmlns="http://www.w3.org/2000/svg">
    <g clip-path="url(#clip0_121_231)">
        <path
            d="M65.8322 34.7628C65.8322 49.3374 55.2766 52.3565 49.9989 52.3565C44.7211 52.3565 34.1655 49.3374 34.1655 34.7628C34.1655 20.1826 49.9989 2.50024 49.9989 2.50024C49.9989 2.50024 65.8322 20.1826 65.8322 34.7628Z"
            fill="white" stroke="white" stroke-linecap="round" stroke-linejoin="round"
            stroke-width="5" />
        <path
            d="M2.5 68.8023L7.10222 72.6634C9.4644 74.6466 12.4401 75.6464 15.4604 75.4716C18.4807 75.2969 21.3337 73.9598 23.4739 71.7161C25.6643 69.4162 28.6012 68.0688 31.6972 67.9435C34.7932 67.8182 37.8201 68.9242 40.1728 71.0403L41.1228 71.8934C46.2317 76.4912 53.7683 76.4912 58.8772 71.8934L59.8272 71.0403C62.1792 68.9235 65.2058 67.8166 68.3018 67.9408C71.3978 68.0651 74.335 69.4114 76.5261 71.7106C78.6656 73.9551 81.5182 75.2932 84.5386 75.4689C87.5589 75.6447 90.535 74.6459 92.8978 72.6634L97.5 68.8023M94.8611 90.9606L92.5283 93.4091C87.9894 98.1732 80.6269 98.1732 76.0828 93.4091C74.0112 91.238 71.2356 89.967 68.3103 89.8499C65.385 89.7329 62.5253 90.7784 60.3022 92.7776L58.8772 94.0517C53.7683 98.6496 46.2317 98.6496 41.1228 94.0517L39.6978 92.7776C37.4747 90.7784 34.615 89.7329 31.6897 89.8499C28.7644 89.967 25.9888 91.238 23.9172 93.4091C19.3783 98.1732 12.0158 98.1732 7.47167 93.4091L5.13889 90.9606"
            stroke="white" stroke-linecap="round" stroke-linejoin="round" stroke-width="5" />
    </g>
    <defs>
        <clipPath id="clip0_121_231">
            <rect fill="white" height="100" width="100" />
        </clipPath>
    </defs>
</svg>
