<svg fill="none" height="100" viewBox="0 0 100 100" width="100" xmlns="http://www.w3.org/2000/svg">
    <g clip-path="url(#clip0_108_30)">
        <path
            d="M52.561 64.4788H45.1212C44.921 64.4788 44.7612 64.6385 44.7612 64.8387V70.4984C44.7612 70.6986 44.921 70.8583 45.1212 70.8583H52.561C52.7612 70.8583 52.921 70.6986 52.921 70.4984V64.8387C52.921 64.6587 52.7612 64.4788 52.561 64.4788Z"
            fill="white" />
        <path
            d="M99.9799 48.3594C99.5599 35.1998 94.0599 23.3402 85.3602 14.6403C76.3007 5.60023 63.8016 0.000488281 50 0.000488281C36.1985 0.000488281 23.7004 5.60023 14.6398 14.6403C5.95979 23.34 0.459686 35.2007 0.0202285 48.3594H0V49.9993C0 63.7993 5.59974 76.299 14.6398 85.3595C23.6993 94.3996 36.1984 99.9993 50 99.9993C63.8016 99.9993 76.2996 94.3996 85.3602 85.3595C94.4002 76.3 100 63.8009 100 49.9993V48.3594H99.9799ZM62.4411 79.0393C62.5213 80.9395 60.9609 82.4991 59.1013 82.4991C57.2612 82.4991 55.7616 80.9994 55.7616 79.1593V73.7192C55.7616 73.2596 55.4219 72.5795 54.5813 72.5795H54.3616V82.979C54.3616 83.1792 54.5213 83.3389 54.7215 83.3389H55.1212C55.3214 83.3389 55.4811 83.4986 55.4811 83.6988V84.5386C55.4811 84.7388 55.3214 84.8986 55.1212 84.8986H42.4414C42.2412 84.8986 42.0815 84.7388 42.0815 84.5386V83.6988C42.0815 83.4986 42.2412 83.3389 42.4414 83.3389H42.8411C43.0413 83.3389 43.201 83.1792 43.201 82.979V64.2792C43.201 63.5789 43.7611 63.0195 44.4608 63.0195H53.1005C53.8008 63.0195 54.3602 63.5796 54.3602 64.2792V71.159H54.6602C55.9604 71.159 57.1999 72.2388 57.1999 73.7391V79.1792C57.1999 80.2192 58.0398 81.0794 59.1001 81.0794C60.2203 81.0794 61.0602 80.0993 60.9799 79.0594L60.9401 74.7793C60.9401 73.5593 60.6402 72.3791 60.0598 71.339C59.9196 71.339 59.7599 71.2992 59.6399 71.1988L57.7601 69.7186C57.6199 69.6188 57.5404 69.4584 57.5202 69.2784L57.2404 66.8587V66.8189L55.0405 65.0792L55.7003 64.2394L57.8801 65.9595C58.0803 65.8995 58.2798 65.9393 58.4598 66.0795L60.6396 67.7794C60.7798 67.8791 60.8593 68.0396 60.8795 68.1993L61.0993 70.0995V70.1595C61.9593 71.5196 62.4392 73.1191 62.4392 74.7792L62.4411 79.0393ZM52.4014 52.4004C51.0817 53.7202 48.9417 53.7202 47.6211 52.4004C47.001 51.7803 46.6411 50.9405 46.6411 50.0003C46.6411 49.0601 47.0213 48.2202 47.6211 47.6203C48.2413 47.0002 49.0811 46.6201 50.0011 46.6201C50.9414 46.6201 51.7812 47.0002 52.3811 47.6203C53.0012 48.2202 53.3611 49.0803 53.3611 50.0003C53.3813 50.9406 53.0012 51.7804 52.4013 52.4004H52.4014ZM56.461 48.3603C56.1611 47.1801 55.541 46.1205 54.7214 45.3002C53.8815 44.4604 52.8416 43.8605 51.6612 43.5605L50.7014 28.0209C50.6414 27.1609 49.4012 27.1609 49.3412 28.0209L48.3814 43.5605C47.2012 43.8605 46.1416 44.4806 45.3213 45.3002C44.4815 46.14 43.8816 47.18 43.5816 48.3603H15.2213C15.6413 39.4005 19.4414 31.3202 25.381 25.3803C31.6811 19.0802 40.3808 15.1803 50.0003 15.1803C59.6198 15.1803 68.3197 19.0802 74.6196 25.3803C80.5599 31.3206 84.3593 39.4001 84.7793 48.3603H56.461ZM88.0606 48.3603C87.8206 42.6202 86.3007 37.2005 83.7804 32.3806L86.3802 30.8809C87.1601 30.4212 87.4203 29.4412 86.9801 28.6605C86.54 27.8807 85.5404 27.6003 84.7403 28.0607L82.1405 29.5603C80.6409 27.2202 78.9004 25.0404 76.921 23.0608C74.9608 21.1006 72.781 19.3409 70.4214 17.8412L71.9211 15.2414C72.3808 14.4616 72.1011 13.4613 71.3212 13.0017C70.5414 12.5615 69.5411 12.8217 69.1009 13.6015L67.6012 16.2013C62.7813 13.6812 57.3614 12.1612 51.6215 11.9212V8.92107C51.6215 8.02125 50.8814 7.28117 49.9815 7.28117H50.0018C49.1019 7.28117 48.3619 8.02125 48.3619 8.92107V11.9407C42.6218 12.1806 37.202 13.7006 32.3821 16.2208L30.8824 13.621C30.4227 12.8412 29.4225 12.581 28.6426 13.0211C27.8628 13.4808 27.6026 14.4608 28.0427 15.2414L29.5424 17.8412C27.1826 19.3409 25.0225 21.0814 23.0623 23.0413C21.1022 25.0015 19.3424 27.1813 17.8428 29.5409L15.243 28.0412C14.4631 27.5815 13.4629 27.8612 13.0032 28.6411C12.5631 29.4209 12.8232 30.4212 13.6031 30.8614L16.2029 32.3611C13.7015 37.2007 12.1815 42.6002 11.9417 48.3605H3.30198C3.7219 36.1007 8.86208 25.0608 16.9618 16.961C25.4215 8.50126 37.1026 3.28098 50.0006 3.28098C62.8986 3.28098 74.5806 8.50054 83.0394 16.961C91.1391 25.0607 96.2794 36.1 96.6992 48.3605L88.0606 48.3603Z"
            fill="white" />
    </g>
    <defs>
        <clipPath id="clip0_108_30">
            <rect fill="white" height="100" width="100" />
        </clipPath>
    </defs>
</svg>
