<svg fill="none" height="100" viewBox="0 0 100 100" width="100" xmlns="http://www.w3.org/2000/svg">
    <g clip-path="url(#clip0_112_74)">
        <path
            d="M0 96.0153C0 98.1772 1.95622 100 4.3782 100H76.2459C78.6213 100 80.6241 98.1772 80.6241 96.0153C80.6241 93.8533 78.6679 92.0305 76.2459 92.0305H72.6595V64.6036C75.4075 64.9852 77.0843 66.6808 77.0843 69.309V76.3035C77.0843 82.6621 81.742 86.9012 88.7285 86.9012C95.4821 86.9012 100 82.6621 100 76.3035V32.4714C100 26.9182 98.8822 22.2976 96.6931 18.6944C94.4574 15.2607 91.1504 12.9292 86.8654 11.7423C84.9558 11.1912 82.8132 12.251 82.2077 13.989C81.6488 15.8118 82.7667 17.7618 84.7694 18.2705C87.238 18.8639 90.6381 20.6443 91.9888 26.6638H85.7476C83.4653 26.6638 81.6954 28.2747 81.6954 30.3518V47.181C81.6954 49.2158 83.5119 50.8266 85.7476 50.8266H92.5477V76.3035C92.5477 78.5502 91.0107 80.0339 88.775 80.0339C86.2133 80.0339 84.49 78.5502 84.49 76.3035V69.2242C84.49 62.3569 80.1118 58.1178 72.6595 57.7363V11.5303C72.6595 4.02713 68.2347 0 59.9907 0H20.6334C12.3894 0 7.9646 4.02713 7.9646 11.5303V92.0305H4.3782C2.00279 92.0305 0 93.8533 0 96.0153ZM22.4965 47.5625C18.9101 47.5625 16.721 45.7397 16.721 42.7724V12.7596C16.721 9.79228 18.9101 7.96948 22.4965 7.96948H58.1276C61.714 7.96948 63.9031 9.79228 63.9031 12.7596V42.7724C63.9031 45.7397 61.714 47.5625 58.1276 47.5625H22.4965Z"
            fill="white" />
    </g>
    <defs>
        <clipPath id="clip0_112_74">
            <rect fill="white" height="100" width="100" />
        </clipPath>
    </defs>
</svg>
