<svg fill="none" height="100" viewBox="0 0 100 100" width="100" xmlns="http://www.w3.org/2000/svg">
    <g clip-path="url(#clip0_121_238)">
        <mask fill="white" id="path-1-inside-1_121_238">
            <path
                d="M50 0C36.7392 0 24.0215 5.26784 14.6447 14.6447C5.26784 24.0215 0 36.7392 0 50C0 63.2608 5.26784 75.9785 14.6447 85.3553C24.0215 94.7322 36.7392 100 50 100C63.2608 100 75.9785 94.7322 85.3553 85.3553C94.7322 75.9785 100 63.2608 100 50C100 36.7392 94.7322 24.0215 85.3553 14.6447C75.9785 5.26784 63.2608 0 50 0V0ZM50 2.375C76.3125 2.375 97.625 23.6875 97.625 50C97.625 76.2917 76.3125 97.625 50 97.625C23.7083 97.625 2.375 76.3083 2.375 50C2.375 23.7083 23.7083 2.375 50 2.375ZM50 3.35C49.5833 3.35 49.2375 3.6 49.0917 3.9625L47.0417 10.425C37.0555 11.1695 27.7201 15.6623 20.9081 23.0021C14.096 30.342 10.3111 39.9861 10.3125 50C10.3125 56.1667 11.7167 62.0208 14.2292 67.2333L9.64583 72.2583C9.53105 72.4148 9.46406 72.6012 9.45296 72.7949C9.44187 72.9887 9.48715 73.1815 9.58333 73.35C9.68589 73.516 9.83368 73.6492 10.0093 73.7341C10.185 73.819 10.3812 73.852 10.575 73.8292L17.2083 72.3583C20.848 77.7008 25.7382 82.0729 31.4534 85.0938C37.1686 88.1148 43.5355 89.6932 50 89.6917C63.625 89.6917 75.6667 82.8083 82.8083 72.3583L89.4417 73.8292C89.6341 73.8474 89.8276 73.8085 89.9981 73.7173C90.1685 73.6262 90.3083 73.4868 90.4 73.3167C90.4993 73.1489 90.546 72.9552 90.5342 72.7606C90.5223 72.566 90.4523 72.3794 90.3333 72.225L85.75 67.2333C88.3558 61.8628 89.7038 55.9693 89.6917 50C89.6931 39.9861 85.9082 30.342 79.0961 23.0021C72.2841 15.6623 62.9487 11.1695 52.9625 10.425L50.9083 3.94583C50.8318 3.76859 50.7049 3.61769 50.5435 3.51179C50.382 3.40589 50.1931 3.34964 50 3.35V3.35ZM49.9875 4.39167C50.0875 4.39167 50.1875 4.475 50.2208 4.57083L54.4708 18.5458C53.8515 19.0103 53.3485 19.6122 53.0015 20.3042C52.6544 20.9961 52.4728 21.7592 52.4708 22.5333C52.4708 24.1542 53.2625 25.5917 54.4708 26.5H54.4542C56.2708 27.8583 57.4458 30.025 57.4458 32.4542V37.1208L75.4708 26.7167L77.4542 30.1542L57.4458 41.6958V45.7167L60.9208 47.7167L80.9292 36.1583L82.9125 39.5958L64.8875 50.0125L68.9375 52.3458C71.0542 53.5708 72.3458 55.6708 72.6125 57.9208V57.9042C72.7052 58.6709 72.9753 59.4054 73.4013 60.0495C73.8274 60.6936 74.3976 61.2296 75.0669 61.615C75.7361 62.0004 76.4859 62.2245 77.2569 62.2697C78.0278 62.3148 78.7987 62.1797 79.5083 61.875L89.4792 72.5417C89.5625 72.625 89.5625 72.7375 89.5125 72.8333C89.4458 72.9375 89.3458 72.9708 89.2292 72.9542L75.0083 69.6458C74.9169 68.8804 74.6487 68.1467 74.2249 67.5027C73.8012 66.8587 73.2334 66.3221 72.5665 65.9354C71.8997 65.5486 71.152 65.3222 70.3826 65.2741C69.6132 65.2261 68.8431 65.3576 68.1333 65.6583L68.1458 65.6417C66.0625 66.5375 63.6 66.4708 61.4792 65.2458L57.4458 62.9125V83.7208H53.4792V60.6167L50.0042 58.6167L46.5333 60.6167V83.7208H42.5625V62.9167L38.5125 65.2292C36.3958 66.4542 33.9292 66.5208 31.8458 65.6292L31.8625 65.6458C31.1525 65.3443 30.382 65.2121 29.6121 65.2598C28.8421 65.3075 28.0939 65.5337 27.4265 65.9205C26.7591 66.3074 26.1909 66.8443 25.7668 67.4887C25.3428 68.1331 25.0745 68.8673 24.9833 69.6333L10.7625 72.9375C10.712 72.9517 10.6581 72.9478 10.6102 72.9265C10.5623 72.9052 10.5233 72.8678 10.5 72.8208C10.4333 72.7375 10.45 72.625 10.5333 72.5417L20.5208 61.875C21.9083 62.4708 23.5625 62.4375 24.9667 61.6083C26.375 60.8 27.2333 59.4083 27.4167 57.9042V57.9208C27.5505 56.7705 27.9518 55.6674 28.5885 54.7C29.2252 53.7326 30.0797 52.9278 31.0833 52.35L35.125 50.0167L17.0958 39.6167L19.0833 36.175L39.0917 47.7333L42.5625 45.7167V41.7L22.5542 30.1583L24.5375 26.7167L42.5625 37.1167V32.4583C42.5625 30.0292 43.7375 27.8625 45.5583 26.5042H45.5417C46.75 25.6125 47.525 24.1708 47.525 22.5375C47.525 20.9 46.7333 19.4625 45.525 18.55L49.775 4.57917C49.8083 4.4625 49.9042 4.39583 49.9875 4.39583V4.39167ZM50.0042 28.9833C49.0837 28.9833 48.2008 29.349 47.5499 29.9999C46.899 30.6508 46.5333 31.5336 46.5333 32.4542V39.4125L50 41.4167L53.4708 39.4167V32.4542C53.4708 31.5336 53.1052 30.6508 52.4543 29.9999C51.8033 29.349 50.9205 28.9833 50 28.9833H50.0042ZM50.0042 46L46.5333 48V52.0167L50.0042 54L53.475 52V48L50.0042 46ZM39.0875 52.3167L33.0708 55.7875C32.6746 56.015 32.3271 56.3186 32.0484 56.6807C31.7697 57.0428 31.5653 57.4564 31.4468 57.8977C31.3284 58.339 31.2982 58.7994 31.3581 59.2524C31.418 59.7054 31.5668 60.1421 31.7958 60.5375C32.0998 61.0658 32.5392 61.5034 33.0688 61.8052C33.5984 62.107 34.1989 62.262 34.8083 62.2542C35.4167 62.2552 36.0146 62.0956 36.5417 61.7917L42.5625 58.3167V54.3167L39.0875 52.3167ZM60.9333 52.3167L57.4625 54.3167V58.3333L63.4833 61.8083C64.2811 62.2571 65.2236 62.3729 66.1063 62.1308C66.9889 61.8887 67.7404 61.3081 68.1976 60.5151C68.6547 59.7222 68.7805 58.7809 68.5477 57.8957C68.3149 57.0105 67.7423 56.253 66.9542 55.7875L60.9333 52.3167Z" />
        </mask>
        <path
            d="M50 0C36.7392 0 24.0215 5.26784 14.6447 14.6447C5.26784 24.0215 0 36.7392 0 50C0 63.2608 5.26784 75.9785 14.6447 85.3553C24.0215 94.7322 36.7392 100 50 100C63.2608 100 75.9785 94.7322 85.3553 85.3553C94.7322 75.9785 100 63.2608 100 50C100 36.7392 94.7322 24.0215 85.3553 14.6447C75.9785 5.26784 63.2608 0 50 0V0ZM50 2.375C76.3125 2.375 97.625 23.6875 97.625 50C97.625 76.2917 76.3125 97.625 50 97.625C23.7083 97.625 2.375 76.3083 2.375 50C2.375 23.7083 23.7083 2.375 50 2.375ZM50 3.35C49.5833 3.35 49.2375 3.6 49.0917 3.9625L47.0417 10.425C37.0555 11.1695 27.7201 15.6623 20.9081 23.0021C14.096 30.342 10.3111 39.9861 10.3125 50C10.3125 56.1667 11.7167 62.0208 14.2292 67.2333L9.64583 72.2583C9.53105 72.4148 9.46406 72.6012 9.45296 72.7949C9.44187 72.9887 9.48715 73.1815 9.58333 73.35C9.68589 73.516 9.83368 73.6492 10.0093 73.7341C10.185 73.819 10.3812 73.852 10.575 73.8292L17.2083 72.3583C20.848 77.7008 25.7382 82.0729 31.4534 85.0938C37.1686 88.1148 43.5355 89.6932 50 89.6917C63.625 89.6917 75.6667 82.8083 82.8083 72.3583L89.4417 73.8292C89.6341 73.8474 89.8276 73.8085 89.9981 73.7173C90.1685 73.6262 90.3083 73.4868 90.4 73.3167C90.4993 73.1489 90.546 72.9552 90.5342 72.7606C90.5223 72.566 90.4523 72.3794 90.3333 72.225L85.75 67.2333C88.3558 61.8628 89.7038 55.9693 89.6917 50C89.6931 39.9861 85.9082 30.342 79.0961 23.0021C72.2841 15.6623 62.9487 11.1695 52.9625 10.425L50.9083 3.94583C50.8318 3.76859 50.7049 3.61769 50.5435 3.51179C50.382 3.40589 50.1931 3.34964 50 3.35V3.35ZM49.9875 4.39167C50.0875 4.39167 50.1875 4.475 50.2208 4.57083L54.4708 18.5458C53.8515 19.0103 53.3485 19.6122 53.0015 20.3042C52.6544 20.9961 52.4728 21.7592 52.4708 22.5333C52.4708 24.1542 53.2625 25.5917 54.4708 26.5H54.4542C56.2708 27.8583 57.4458 30.025 57.4458 32.4542V37.1208L75.4708 26.7167L77.4542 30.1542L57.4458 41.6958V45.7167L60.9208 47.7167L80.9292 36.1583L82.9125 39.5958L64.8875 50.0125L68.9375 52.3458C71.0542 53.5708 72.3458 55.6708 72.6125 57.9208V57.9042C72.7052 58.6709 72.9753 59.4054 73.4013 60.0495C73.8274 60.6936 74.3976 61.2296 75.0669 61.615C75.7361 62.0004 76.4859 62.2245 77.2569 62.2697C78.0278 62.3148 78.7987 62.1797 79.5083 61.875L89.4792 72.5417C89.5625 72.625 89.5625 72.7375 89.5125 72.8333C89.4458 72.9375 89.3458 72.9708 89.2292 72.9542L75.0083 69.6458C74.9169 68.8804 74.6487 68.1467 74.2249 67.5027C73.8012 66.8587 73.2334 66.3221 72.5665 65.9354C71.8997 65.5486 71.152 65.3222 70.3826 65.2741C69.6132 65.2261 68.8431 65.3576 68.1333 65.6583L68.1458 65.6417C66.0625 66.5375 63.6 66.4708 61.4792 65.2458L57.4458 62.9125V83.7208H53.4792V60.6167L50.0042 58.6167L46.5333 60.6167V83.7208H42.5625V62.9167L38.5125 65.2292C36.3958 66.4542 33.9292 66.5208 31.8458 65.6292L31.8625 65.6458C31.1525 65.3443 30.382 65.2121 29.6121 65.2598C28.8421 65.3075 28.0939 65.5337 27.4265 65.9205C26.7591 66.3074 26.1909 66.8443 25.7668 67.4887C25.3428 68.1331 25.0745 68.8673 24.9833 69.6333L10.7625 72.9375C10.712 72.9517 10.6581 72.9478 10.6102 72.9265C10.5623 72.9052 10.5233 72.8678 10.5 72.8208C10.4333 72.7375 10.45 72.625 10.5333 72.5417L20.5208 61.875C21.9083 62.4708 23.5625 62.4375 24.9667 61.6083C26.375 60.8 27.2333 59.4083 27.4167 57.9042V57.9208C27.5505 56.7705 27.9518 55.6674 28.5885 54.7C29.2252 53.7326 30.0797 52.9278 31.0833 52.35L35.125 50.0167L17.0958 39.6167L19.0833 36.175L39.0917 47.7333L42.5625 45.7167V41.7L22.5542 30.1583L24.5375 26.7167L42.5625 37.1167V32.4583C42.5625 30.0292 43.7375 27.8625 45.5583 26.5042H45.5417C46.75 25.6125 47.525 24.1708 47.525 22.5375C47.525 20.9 46.7333 19.4625 45.525 18.55L49.775 4.57917C49.8083 4.4625 49.9042 4.39583 49.9875 4.39583V4.39167ZM50.0042 28.9833C49.0837 28.9833 48.2008 29.349 47.5499 29.9999C46.899 30.6508 46.5333 31.5336 46.5333 32.4542V39.4125L50 41.4167L53.4708 39.4167V32.4542C53.4708 31.5336 53.1052 30.6508 52.4543 29.9999C51.8033 29.349 50.9205 28.9833 50 28.9833H50.0042ZM50.0042 46L46.5333 48V52.0167L50.0042 54L53.475 52V48L50.0042 46ZM39.0875 52.3167L33.0708 55.7875C32.6746 56.015 32.3271 56.3186 32.0484 56.6807C31.7697 57.0428 31.5653 57.4564 31.4468 57.8977C31.3284 58.339 31.2982 58.7994 31.3581 59.2524C31.418 59.7054 31.5668 60.1421 31.7958 60.5375C32.0998 61.0658 32.5392 61.5034 33.0688 61.8052C33.5984 62.107 34.1989 62.262 34.8083 62.2542C35.4167 62.2552 36.0146 62.0956 36.5417 61.7917L42.5625 58.3167V54.3167L39.0875 52.3167ZM60.9333 52.3167L57.4625 54.3167V58.3333L63.4833 61.8083C64.2811 62.2571 65.2236 62.3729 66.1063 62.1308C66.9889 61.8887 67.7404 61.3081 68.1976 60.5151C68.6547 59.7222 68.7805 58.7809 68.5477 57.8957C68.3149 57.0105 67.7423 56.253 66.9542 55.7875L60.9333 52.3167Z"
            fill="#02AA13" mask="url(#path-1-inside-1_121_238)" stroke="#02AA13" />
    </g>
    <defs>
        <clipPath id="clip0_121_238">
            <rect fill="white" height="100" width="100" />
        </clipPath>
    </defs>
</svg>
