<svg fill="none" height="100" viewBox="0 0 100 100" width="100" xmlns="http://www.w3.org/2000/svg">
    <path
        d="M63.3324 34.7625C63.3324 41.3676 60.9823 45.0032 58.356 47.0547C55.6131 49.1972 52.2482 49.8562 49.9991 49.8562C47.75 49.8562 44.3851 49.1972 41.6422 47.0547C39.0159 45.0032 36.6658 41.3676 36.6658 34.7625C36.6658 28.2293 40.2762 20.6813 44.1938 14.5024C46.1165 11.47 48.0431 8.87441 49.4895 7.03709C49.6671 6.81153 49.8372 6.59759 49.9991 6.39589C50.161 6.59759 50.3312 6.81153 50.5087 7.03709C51.9551 8.87441 53.8817 11.47 55.8044 14.5024C59.7221 20.6813 63.3324 28.2293 63.3324 34.7625Z"
        stroke="white" stroke-linecap="round" stroke-linejoin="round" stroke-width="5" />
    <path
        d="M2.5 68.8018L7.10222 72.6629C9.4644 74.6461 12.4401 75.6459 15.4604 75.4711C18.4807 75.2964 21.3337 73.9593 23.4739 71.7156C25.6643 69.4157 28.6012 68.0684 31.6972 67.9431C34.7932 67.8178 37.8201 68.9237 40.1728 71.0398L41.1228 71.8929C46.2317 76.4907 53.7683 76.4907 58.8772 71.8929L59.8272 71.0398C62.1792 68.923 65.2058 67.8161 68.3018 67.9403C71.3978 68.0646 74.335 69.4109 76.5261 71.7101C78.6656 73.9546 81.5182 75.2927 84.5386 75.4684C87.5589 75.6442 90.535 74.6454 92.8978 72.6629L97.5 68.8018M94.8611 90.9601L92.5283 93.4086C87.9894 98.1727 80.6269 98.1727 76.0828 93.4086C74.0112 91.2375 71.2356 89.9665 68.3103 89.8495C65.385 89.7324 62.5253 90.7779 60.3022 92.7771L58.8772 94.0512C53.7683 98.6491 46.2317 98.6491 41.1228 94.0512L39.6978 92.7771C37.4747 90.7779 34.615 89.7324 31.6897 89.8495C28.7644 89.9665 25.9888 91.2375 23.9172 93.4086C19.3783 98.1727 12.0158 98.1727 7.47167 93.4086L5.13889 90.9601"
        stroke="white" stroke-linecap="round" stroke-linejoin="round" stroke-width="5" />
</svg>
