<svg fill="none" height="100" viewBox="0 0 100 100" width="100" xmlns="http://www.w3.org/2000/svg">
    <path
        d="M43.7519 25.0642H42.1894C42.1894 23.3455 40.7831 21.9392 39.0644 21.9392H14.0644C12.3457 21.9392 10.9395 23.3455 10.9395 25.0642V36.0017C10.9395 37.7204 12.3457 39.1267 14.0644 39.1267H39.0644C40.7831 39.1267 42.1894 37.7204 42.1894 36.0017H43.7519C45.4706 36.0017 46.8769 34.5954 46.8769 32.8767V28.1892C46.8769 26.4705 45.4706 25.0642 43.7519 25.0642ZM17.1894 36.0017H14.0644V25.0642H17.1894V36.0017ZM39.0644 36.0017H26.5644V25.0642H39.0644V36.0017ZM43.7519 32.8767H42.1894V28.1892H43.7519V32.8767Z"
        fill="white" />
    <path
        d="M30.4697 32.0962H31.251V32.8774C31.251 33.7396 31.9492 34.4399 32.8135 34.4399C33.6777 34.4399 34.376 33.7396 34.376 32.8774V32.0962H35.1572C36.0215 32.0962 36.7197 31.3958 36.7197 30.5337C36.7197 29.6715 36.0215 28.9712 35.1572 28.9712H34.376V28.1899C34.376 27.3278 33.6777 26.6274 32.8135 26.6274C31.9492 26.6274 31.251 27.3278 31.251 28.1899V28.9712H30.4697C29.6055 28.9712 28.9072 29.6715 28.9072 30.5337C28.9072 31.3958 29.6055 32.0962 30.4697 32.0962Z"
        fill="white" />
    <path
        d="M93.7195 17.8445L67.157 12.532C65.0163 12.0947 62.8603 12.5634 61.0947 13.8288C60.5946 14.1727 60.1726 14.5947 59.782 15.032C59.0635 13.5009 58.0785 12.0786 56.86 10.8761L54.9536 9.00115C52.2193 6.29812 48.4379 4.75098 44.5782 4.75098H10.939C4.90813 4.75098 0.00153541 9.65757 0.00153541 15.6885V43.0473C0.00153541 50.532 6.09527 56.6257 13.5799 56.6257H32.4227L26.3758 63.5475C25.3915 64.6412 25.3288 66.2505 26.1567 67.4223C20.141 74.2819 9.07873 84.688 2.57821 85.9062C1.0785 86.1873 0 87.4687 0 88.9683V92.1087C0 93.0308 0.405963 93.8902 1.09375 94.4992C1.67201 94.9833 2.39048 95.249 3.12499 95.249C3.2659 95.249 3.42215 95.2337 3.5784 95.2177C14.5005 93.6084 28.2498 79.1393 32.8283 74.0302C33.3285 74.3427 33.8907 74.4989 34.469 74.4989C35.1874 74.4989 35.9066 74.2492 36.4849 73.7491L56.8437 56.312C57.1876 56.312 57.5315 56.2806 57.8908 56.2806C58.1565 59.0777 59.2342 61.7961 60.969 64.0149L66.1252 70.6402C68.2498 73.3898 71.2814 75.3277 74.6722 76.0775L90.5002 79.5932C91.0624 79.7181 91.6253 79.7809 92.1875 79.7809C93.953 79.7809 95.6718 79.1712 97.078 78.0468C98.9377 76.5471 100 74.3282 100 71.953V25.4996C100 21.781 97.3591 18.5617 93.7186 17.8433L93.7195 17.8445ZM64.0642 21.9384C64.9236 21.9384 65.6267 22.6416 65.6267 23.5009V28.1884C65.6267 29.0478 64.9236 29.7509 64.0642 29.7509H56.2517C55.3923 29.7509 54.6892 29.0478 54.6892 28.1884V23.5009C54.6892 22.6416 55.3923 21.9384 56.2517 21.9384H64.0642ZM3.12682 92.1097L3.14216 88.9694C10.423 87.6259 21.7993 77.079 28.3296 69.673L30.5485 71.8758C22.7207 80.7192 11.22 90.9383 3.12716 92.1097H3.12682ZM34.4696 71.3758L28.7037 65.626L31.7039 62.2039L37.7348 68.5787L34.4689 71.3758H34.4696ZM47.9539 39.3759C47.5319 39.5322 47.1412 39.8133 46.7973 40.1885L35.1566 53.5012H13.5799C7.81402 53.5012 3.12653 48.8137 3.12653 43.0478V15.689C3.12653 11.3768 6.62688 7.87647 10.939 7.87647H44.58C47.6268 7.87647 50.6109 9.09508 52.7679 11.2206L54.6743 13.0956C56.2368 14.6427 57.2837 16.6579 57.7059 18.814H56.2529C53.6747 18.814 51.5654 20.9232 51.5654 23.5014V28.1889C51.5654 30.7671 53.6747 32.8764 56.2529 32.8764H57.8154V34.8448C57.5964 36.3606 57.1276 37.7821 56.4559 39.1264H49.1436C48.7062 39.1264 48.2689 39.2199 47.9564 39.3761L47.9539 39.3759ZM70.3128 52.0007L70.0937 52.0321C66.0627 52.6104 62.4375 52.9696 59.2657 53.0944C58.5472 53.1572 57.8441 53.1572 57.1564 53.1726L51.0941 42.2505H70.3119L70.3128 52.0007ZM87.5002 64.8132C87.5002 65.2973 87.2812 65.7353 86.9066 66.0318C86.516 66.3443 86.0319 66.4538 85.5471 66.3289L73.0471 63.204C72.3593 63.0324 71.8753 62.4074 71.8753 61.6882V54.9227L72.1096 54.8913C75.6253 54.3444 78.5787 53.7661 80.1718 53.4536C80.1718 53.4536 80.3127 53.4222 80.328 53.4222C81.7656 53.1097 82.8126 51.8284 82.8126 50.3601V42.2505C82.8126 40.5317 81.4064 39.1255 79.6876 39.1255H71.8752V35.0001C71.8752 34.5467 72.0781 34.1094 72.4374 33.8129C72.6404 33.6253 73.0777 33.3595 73.7027 33.469L86.2027 35.5471C86.9372 35.6719 87.4994 36.3283 87.4994 37.0782V64.812L87.5002 64.8132ZM73.4377 51.5166V42.2511H79.6877L79.5629 50.3914C78.2815 50.6411 76.0786 51.0792 73.4377 51.5166L73.4377 51.5166Z"
        fill="white" />
    <path
        d="M68.7519 45.3767C68.7519 44.5145 68.0537 43.8142 67.1894 43.8142H57.8145C56.9502 43.8142 56.252 44.5145 56.252 45.3767C56.252 46.2389 56.9502 46.9392 57.8145 46.9392H67.1894C68.0537 46.9392 68.7519 46.2389 68.7519 45.3767Z"
        fill="white" />
</svg>
