<svg fill="none" height="100" viewBox="0 0 100 100" width="100" xmlns="http://www.w3.org/2000/svg">
    <g clip-path="url(#clip0_108_50)">
        <path
            d="M82.467 18.7486L83.0619 17.1435C83.554 15.8282 84.7638 15.2779 85.7371 16.0296L88.3604 18.0368C89.285 18.7427 89.6081 20.3369 89.141 21.5908L85.6255 31.0197L79.6227 26.4351C74.0397 22.6768 67.5079 19.9998 61.2601 19.9998L29.8048 19.9991C23.1521 19.9991 15.9663 23.0951 10.1037 27.372L22.3915 60.3551H66.9581L73.6628 42.3636L79.564 47.275L71.2231 69.6527C71.1657 69.8084 71.0953 69.9633 71.0122 70.1042L70.3582 71.8583L70.2901 71.9727C69.9904 72.4558 69.481 72.7819 69.0251 72.9102C67.9748 73.2179 66.8611 72.7376 65.9358 72.101C65.3292 71.6938 64.3398 71.6378 63.6758 71.6791C62.2429 71.7661 60.7623 72.2884 59.4292 72.9744C54.6 75.4433 50.2429 80.5997 46.8852 85.6755L46.8646 85.7058L44.6749 88.6003L42.4841 85.7058L42.4645 85.6755C39.098 80.5966 34.7369 75.4433 29.9033 72.9744C28.5679 72.2884 27.0874 71.7654 25.6472 71.6791C24.9865 71.6378 23.9882 71.6931 23.3872 72.101C22.4603 72.7369 21.3404 73.2171 20.2913 72.9102C19.8404 72.7819 19.3275 72.4558 19.0301 71.9727L18.9587 71.8613L18.2093 69.8511C18.1652 69.7596 18.1853 69.8009 18.1295 69.6526L17.0112 66.6591L15.3253 62.1564L15.3331 62.1505L0.214779 21.5892C-0.255643 20.33 0.0657813 18.7418 0.992112 18.0352L3.61879 16.028C4.59088 15.2777 5.79905 15.8266 6.2889 17.1418L7.23531 19.6823C14.0031 14.8366 22.1423 11.3999 29.8036 11.3999H61.2574C68.4901 11.3999 75.9987 14.4265 82.4643 18.7477L82.467 18.7486Z"
            fill="#D9D9D9" />
        <path clip-rule="evenodd"
            d="M54.4986 40.7374C53.613 40.0344 52.575 39.6825 51.5432 39.6825C50.6922 39.6825 49.8608 39.9282 49.1114 40.3855C48.709 39.1647 47.9942 38.1542 47.1002 37.5463C47.1427 35.5081 47.9847 33.6765 49.3245 32.6372C49.7363 32.3266 50.1822 32.0898 50.6242 31.9784C51.421 31.7409 52.0438 30.9177 52.1889 29.8628C52.3401 28.808 52.0136 27.7914 51.3055 27.2028C49.7687 25.8765 47.723 25.0915 45.5344 25.0141C43.8486 24.9381 42.2783 25.7592 41.0685 27.2455C39.8821 28.7333 39.2331 30.6875 39.2331 32.8437C39.2331 35.4454 40.2191 37.7683 41.7119 39.2039C41.1667 40.1614 40.8369 41.3453 40.8369 42.6162C40.8369 42.7276 40.8414 42.828 40.8447 42.929C40.1957 43.3923 39.4608 43.635 38.7315 43.635C37.958 43.635 37.1925 43.362 36.5105 42.853C36.0953 42.5425 35.7393 42.15 35.4129 41.6779C35.0301 41.0915 34.4971 40.7787 33.9325 40.7787C32.8705 40.7787 31.9805 41.8764 31.9526 43.2831C31.8628 45.7064 32.3968 48.4852 33.4319 50.9896C34.5251 53.6496 36.5981 55.3278 38.8162 55.3278C39.8252 55.3278 40.8285 54.9789 41.6883 54.3143C43.4003 53.002 44.4372 50.6989 44.6192 48.2691C44.7944 48.3023 44.9674 48.3134 45.151 48.3134C45.9847 48.3134 46.7698 47.9888 47.4349 47.4341C48.7597 48.4889 49.5866 50.3906 49.5866 52.4376C49.5866 53.061 49.4946 53.6887 49.3824 54.2744C49.1748 55.0917 49.2602 55.9585 49.6452 56.6616C50.0314 57.3646 50.6229 57.7592 51.2468 57.7592C51.5682 57.7592 51.8645 57.639 52.1614 57.4435C53.8215 56.3067 55.3288 54.3555 56.4805 51.8844C57.3694 49.9686 57.6344 47.6656 57.2221 45.5515C56.8381 43.4794 55.8605 41.757 54.4984 40.7376L54.4986 40.7374Z"
            fill="white" fill-rule="evenodd" />
        <path clip-rule="evenodd"
            d="M57.6071 34.8266C56.356 34.8266 55.3438 33.4855 55.3438 31.8361C55.3438 30.1896 56.356 28.8486 57.6071 28.8486C58.8571 28.8486 59.8694 30.1897 59.8694 31.8361C59.8683 33.487 58.8571 34.8266 57.6071 34.8266Z"
            fill="white" fill-rule="evenodd" />
        <path clip-rule="evenodd"
            d="M61.0914 43.5494C59.8458 43.5494 58.8291 42.2112 58.8291 40.5619C58.8291 38.9066 59.8447 37.5684 61.0914 37.5684C62.3413 37.5684 63.3536 38.9065 63.3536 40.5619C63.3536 42.2113 62.3414 43.5494 61.0914 43.5494Z"
            fill="white" fill-rule="evenodd" />
        <path clip-rule="evenodd"
            d="M65.0514 36.9435C63.8036 36.9435 62.7847 35.6084 62.7847 33.9561C62.7847 32.3067 63.8025 30.9656 65.0514 30.9656C66.2969 30.9656 67.3136 32.3067 67.3136 33.9561C67.3136 35.6084 66.2986 36.9435 65.0514 36.9435Z"
            fill="white" fill-rule="evenodd" />
        <path
            d="M70.3701 38.7413H91.587V42.6509L97.7705 36.5356L91.587 30.4211V34.3352H70.2887L70.0951 33.9922L67.2134 28.8803L68.2039 27.7612L70.8924 32.5272H90.3122V26.9675L91.311 27.9567L99.2462 35.7995L100 36.5357L99.2462 37.2756L91.311 45.1206L90.3122 46.1099V40.5449H70.8924L68.2039 45.3139L67.2134 44.1948L70.0951 39.0857L70.2887 38.7412L70.3701 38.7413Z"
            fill="white" />
    </g>
    <defs>
        <clipPath id="clip0_108_50">
            <rect fill="white" height="100" width="100" />
        </clipPath>
    </defs>
</svg>
