<svg fill="none" height="100" viewBox="0 0 100 100" width="100" xmlns="http://www.w3.org/2000/svg">
    <path clip-rule="evenodd"
        d="M62.6084 6.20776L60.2258 8.01983C66.3291 18.1779 63.4321 32.359 53.4817 42.5344C53.1261 38.3263 51.7942 32.7587 47.5958 29.1634C40.0732 22.7234 26.9837 34.123 19.0229 40.1682C11.0605 46.2117 -3.44102 55.7546 0.742716 64.7342C4.27206 72.2988 13.8785 74.7743 16.802 75.3669L10.6155 80.0632L9.20732 79.9874L2.34099 79.6099L7.72338 86.7024L13.107 93.7923L14.5922 87.0774L14.8953 85.7003L50.4327 58.7211L55.5255 59.4231C56.2115 58.8177 56.9312 58.2336 57.6779 57.6649C71.0588 47.5043 88.3841 47.5116 97.6149 57.2732L100 55.4587L62.6084 6.20776ZM48.9801 46.4857C48.283 47.0179 47.5682 47.5134 46.8473 47.9881L46.1539 53.0808L20.6855 72.4214C-3.10625 62.3329 13.3584 52.2284 13.3584 52.2284L22.7595 45.089L32.1606 37.9532C32.1619 37.9532 44.776 26.2463 48.98 46.4857L48.9801 46.4857Z"
        fill="white" fill-rule="evenodd" />
</svg>
