<svg fill="none" height="100" viewBox="0 0 100 100" width="100" xmlns="http://www.w3.org/2000/svg">
    <g clip-path="url(#clip0_108_53)">
        <path
            d="M17.8571 0C15.963 0 14.1461 0.752551 12.8061 2.09184C11.4668 3.43192 10.7143 5.24878 10.7143 7.14286H0V10.7143C1.27631 10.7143 2.45531 11.3951 3.09306 12.5C3.73082 13.6049 3.73082 14.9665 3.09306 16.0714C2.45531 17.1763 1.27627 17.8571 0 17.8571V21.4286H10.7143V78.5714H0V82.1429C1.27153 82.1492 2.44429 82.8316 3.07796 83.9333C3.71173 85.0359 3.71173 86.3927 3.07796 87.4944C2.44418 88.5969 1.27151 89.2793 0 89.2856V92.8571H10.7143C10.7143 94.7512 11.4668 96.5681 12.8061 97.9081C14.1462 99.2474 15.9631 99.9999 17.8571 99.9999H82.1429C84.037 99.9999 85.8539 99.2474 87.1939 97.9081C88.5332 96.568 89.2857 94.7512 89.2857 92.8571H100V89.2856C98.7285 89.2793 97.5557 88.5969 96.9221 87.4944C96.2883 86.3927 96.2883 85.0358 96.9221 83.9333C97.5558 82.8316 98.7285 82.1492 100 82.1429V78.5714H89.2857V21.4286H100V17.8571C98.7237 17.8571 97.5447 17.1763 96.9069 16.0714C96.2692 14.9665 96.2692 13.6049 96.9069 12.5C97.5447 11.3951 98.7237 10.7143 100 10.7143V7.14286H89.2857C89.2857 5.24873 88.5332 3.43184 87.1939 2.09184C85.8538 0.752551 84.0369 0 82.1429 0H17.8571ZM6.18694 10.7143H10.7143V17.8571H6.18694C6.81433 16.7714 7.14437 15.5398 7.14437 14.2857C7.14437 13.0316 6.81433 11.8 6.18694 10.7143ZM21.4286 10.7143H78.5714V28.5714H21.4286V10.7143ZM89.2857 10.7143H93.8131C93.1857 11.8001 92.8556 13.0316 92.8556 14.2857C92.8556 15.5398 93.1857 16.7714 93.8131 17.8571H89.2857V10.7143ZM44.3224 39.7673L55.1341 48.5349C55.6212 48.9327 55.7463 49.6246 55.4306 50.1683C55.1149 50.712 54.4509 50.9448 53.8649 50.7184C51.1178 49.6565 48.0541 49.7713 45.3947 51.0373C42.7362 52.3032 40.7143 54.6079 39.8072 57.4101C38.8992 60.2116 39.1854 63.264 40.5972 65.8485L37.465 67.5649C35.3556 63.7024 35.1427 59.0834 36.8902 55.0441C38.6368 51.0047 42.1486 47.9961 46.4079 46.8896L44.3224 39.7673ZM62.5351 53.8649V53.8641C64.6453 57.7265 64.8573 62.3455 63.1099 66.3849C61.3632 70.4243 57.8515 73.4329 53.5921 74.5394L55.6776 81.6608L44.866 72.8933V72.8941C44.3789 72.4963 44.2538 71.8035 44.5694 71.2606C44.8851 70.7169 45.5492 70.4834 46.1351 70.7098C48.8823 71.7724 51.946 71.6568 54.6045 70.3917C57.2639 69.1258 59.2849 66.8211 60.1929 64.0188C61.1009 61.2168 60.8147 58.165 59.4029 55.5805L62.5351 53.8649ZM6.18612 82.1445L10.7135 82.1437V89.2865H6.18612C7.46243 87.0767 7.46243 84.3535 6.18612 82.1437V82.1445ZM89.2841 82.1445H93.8114V82.1437C92.5351 84.3535 92.5351 87.0767 93.8114 89.2865H89.2841V82.1445Z"
            fill="white" />
    </g>
    <defs>
        <clipPath id="clip0_108_53">
            <rect fill="white" height="100" width="100" />
        </clipPath>
    </defs>
</svg>
