<svg fill="none" height="100" viewBox="0 0 100 100" width="100" xmlns="http://www.w3.org/2000/svg">
    <path clip-rule="evenodd"
        d="M91.07 0H8.92568C7.50642 0.00373681 6.14627 0.569504 5.14257 1.57322C4.13887 2.57694 3.5731 3.93707 3.5686 5.3571V78.5702H96.4272V5.3571C96.4227 3.93709 95.8569 2.57692 94.8532 1.57322C93.8495 0.569523 92.4892 0.00375001 91.07 0ZM21.5159 71.3387C23.8597 73.6833 27.039 75.0001 30.3543 75.0001C33.669 74.9965 36.846 73.6781 39.1898 71.3351C41.5327 68.9913 42.8511 65.8142 42.8548 62.4996C42.8548 59.1843 41.5379 56.005 39.1934 53.6613C36.8489 51.3167 33.6696 49.9998 30.3543 49.9998C27.039 49.9998 23.8597 51.3167 21.5159 53.6613C19.1714 56.005 17.8545 59.1843 17.8545 62.4996C17.8545 65.8149 19.1714 68.9942 21.5159 71.3387ZM16.4651 37.104C20.1489 40.7878 25.145 42.8572 30.3543 42.8572C35.5634 42.8542 40.5574 40.7832 44.2404 37.1002C47.9235 33.4172 49.9944 28.4226 49.9974 23.2141C49.9974 18.0041 47.928 13.0079 44.2442 9.32412C40.5604 5.64032 35.5641 3.57092 30.3543 3.57092C25.145 3.57092 20.1489 5.64032 16.4651 9.32412C12.7813 13.0079 10.7119 18.0041 10.7119 23.2141C10.7119 28.4241 12.7813 33.4202 16.4651 37.104ZM67.9445 71.3387C70.289 73.6833 73.4683 75.0001 76.7836 75.0001C80.0976 74.9965 83.2753 73.6781 85.6183 71.3351C87.962 68.9913 89.2796 65.8142 89.2833 62.4996C89.2833 59.1843 87.9664 56.005 85.6227 53.6613C83.2782 51.3167 80.0989 49.9998 76.7836 49.9998C73.4683 49.9998 70.289 51.3167 67.9445 53.6613C65.6007 56.005 64.2838 59.1843 64.2838 62.4996C64.2838 65.8149 65.6007 68.9942 67.9445 71.3387ZM67.9445 32.0536C70.289 34.3974 73.4683 35.715 76.7836 35.715C80.0976 35.7114 83.2753 34.3929 85.6183 32.0492C87.962 29.7062 89.2796 26.5283 89.2833 23.2145C89.2833 19.8992 87.9664 16.7199 85.6227 14.3754C83.2782 12.0316 80.0989 10.7147 76.7836 10.7147C73.4683 10.7147 70.289 12.0316 67.9445 14.3754C65.6007 16.7199 64.2838 19.8992 64.2838 23.2145C64.2838 26.5298 65.6007 29.7091 67.9445 32.0536Z"
        fill="#D9D9D9" fill-rule="evenodd" />
    <path clip-rule="evenodd"
        d="M3.57312 82.1431V94.6429C3.5776 96.0629 4.14337 97.4231 5.14709 98.4268C6.15081 99.4305 7.51093 99.9962 8.9302 100H91.0745C92.4937 99.9963 93.8539 99.4305 94.8576 98.4268C95.8613 97.4231 96.4271 96.0629 96.4315 94.6429V82.1431H3.57312ZM19.4282 94.8597C20.4334 95.8641 21.7959 96.4291 23.2167 96.4291C24.6359 96.4246 25.9962 95.8588 26.9999 94.8551C28.0036 93.8514 28.5694 92.4912 28.5738 91.072C28.5738 89.6512 28.0096 88.288 27.0051 87.2835C25.9999 86.279 24.6374 85.7148 23.2167 85.7148C21.7959 85.7148 20.4334 86.279 19.4282 87.2835C18.4237 88.288 17.8595 89.6512 17.8595 91.072C17.8595 92.4928 18.4237 93.8552 19.4282 94.8597ZM37.2859 94.8597C38.2903 95.8641 39.6528 96.4291 41.0736 96.4291C42.4936 96.4246 43.8538 95.8588 44.8575 94.8551C45.8613 93.8514 46.427 92.4912 46.4308 91.072C46.4308 89.6512 45.8665 88.288 44.862 87.2835C43.8576 86.279 42.4944 85.7148 41.0736 85.7148C39.6528 85.7148 38.2903 86.279 37.2859 87.2835C36.2814 88.288 35.7164 89.6512 35.7164 91.072C35.7164 92.4928 36.2814 93.8552 37.2859 94.8597ZM55.1428 94.8597C56.1472 95.8641 57.5097 96.4291 58.9305 96.4291C60.3498 96.4246 61.7107 95.8588 62.7144 94.8551C63.7182 93.8514 64.2839 92.4912 64.2884 91.072C64.2884 89.6512 63.7234 88.288 62.7189 87.2835C61.7145 86.279 60.352 85.7148 58.9312 85.7148C57.5104 85.7148 56.1472 86.279 55.1428 87.2835C54.1383 88.288 53.574 89.6512 53.574 91.072C53.574 92.4928 54.1383 93.8552 55.1428 94.8597ZM72.9997 94.8597C74.0049 95.8641 75.3667 96.4291 76.7874 96.4291C78.2067 96.4246 79.5677 95.8588 80.5714 94.8551C81.5751 93.8514 82.1409 92.4912 82.1453 91.072C82.1453 89.6512 81.5811 88.288 80.5766 87.2835C79.5714 86.279 78.2089 85.7148 76.7882 85.7148C75.3674 85.7148 74.0049 86.279 72.9997 87.2835C71.9952 88.288 71.431 89.6512 71.431 91.072C71.431 92.4928 71.9952 93.8552 72.9997 94.8597Z"
        fill="#D9D9D9" fill-rule="evenodd" />
    <path
        d="M30.3543 53.5723C27.9866 53.5723 25.7154 54.5125 24.0413 56.1873C23.3085 56.9198 22.7164 57.7665 22.2821 58.6856C21.8749 59.5472 21.6062 60.4724 21.4906 61.4267C21.4819 61.4986 21.4741 61.5708 21.4671 61.6431C21.4612 61.7049 21.4559 61.7668 21.4512 61.8288C21.4456 61.9042 21.4409 61.9798 21.4372 62.0555L21.4368 62.0623C21.4333 62.1335 21.4307 62.2049 21.4289 62.2765V62.2776L21.4286 62.2901C21.428 62.3153 21.4276 62.3406 21.4272 62.3658L21.4271 62.3696L21.4271 62.371L21.4264 62.4363L21.4264 62.4389L21.4264 62.4448L21.4264 62.446L21.4263 62.4647L21.4263 62.4696L21.4263 62.4707L21.4263 62.4718L21.4263 62.4739L21.4262 62.4962V62.4973V62.4985V62.5004L21.4263 62.5276C21.4265 62.5923 21.4274 62.6569 21.429 62.7215L21.4292 62.7284C21.4311 62.802 21.4339 62.8755 21.4376 62.9488C21.4411 63.0177 21.4454 63.0865 21.4505 63.1551C21.6077 65.2824 22.5224 67.2911 24.0413 68.81C25.7154 70.4841 27.9866 71.425 30.3543 71.425C32.7227 71.425 34.9932 70.4841 36.6681 68.81C36.8771 68.6008 37.0753 68.3828 37.2611 68.1561C38.4695 66.6809 39.177 64.8537 39.2722 62.9413C39.2737 62.9094 39.2751 62.8775 39.2764 62.8456L39.277 62.8297C39.2783 62.7932 39.2795 62.7567 39.2804 62.7202C39.282 62.6556 39.2829 62.5909 39.2831 62.5262V62.5251V62.5239L39.2831 62.5004V62.4985V62.4973V62.4962L39.283 62.4482L39.283 62.4471L39.283 62.446L39.2829 62.4399L39.2829 62.4347L39.2829 62.4314L39.2825 62.3935L39.2823 62.3803L39.2823 62.3792C39.2818 62.345 39.2812 62.3109 39.2803 62.2768V62.2756C39.2785 62.2022 39.2757 62.1289 39.2721 62.0557C39.2678 61.9692 39.2623 61.8828 39.2555 61.7967C39.2514 61.7455 39.247 61.6943 39.242 61.6432C39.2374 61.5951 39.2324 61.547 39.227 61.499L39.2231 61.4651C39.2168 61.4116 39.2102 61.3582 39.203 61.3049C39.2023 61.3001 39.2016 61.2952 39.201 61.2904L39.1954 61.2501L39.193 61.2332C39.185 61.1775 39.1764 61.1214 39.1674 61.0658C38.8681 59.2299 37.9996 57.5204 36.6673 56.1881C34.9925 54.514 32.722 53.5731 30.3543 53.5723Z"
        fill="#D9D9D9" />
    <path
        d="M76.7836 60.7149C76.0616 60.7149 75.4099 61.1499 75.1341 61.8173C75.055 62.0084 75.0108 62.2077 75.0003 62.4069L75.0001 62.4102C74.9987 62.4392 74.998 62.4683 74.998 62.4973V62.4989C74.9976 62.964 75.1788 63.4218 75.5205 63.7635C76.0317 64.2739 76.8 64.4271 77.4667 64.1506C78.1341 63.8741 78.5691 63.2231 78.5691 62.5004C78.5661 61.5154 77.7686 60.7179 76.7836 60.7149Z"
        fill="#D9D9D9" />
</svg>
