<svg fill="none" height="100" viewBox="0 0 100 100" width="100" xmlns="http://www.w3.org/2000/svg">
    <path clip-rule="evenodd"
        d="M70.2258 23.3642C75.3541 28.6373 78.2092 35.6497 78.2092 43.0233C78.2092 58.5996 65.579 71.2336 49.9989 71.2336C34.4226 71.2336 21.7886 58.6009 21.7886 43.0233C21.7886 35.6493 24.6423 28.6357 29.7683 23.3642V5.06128H70.2244V23.3642H70.2258ZM50.0002 22.7975C38.8289 22.7975 29.7713 31.8536 29.7713 43.0247C29.7713 54.1949 38.8311 63.2504 50.0002 63.2504C61.1703 63.2504 70.2258 54.1943 70.2258 43.0247C70.2246 31.8546 61.1697 22.7975 50.0002 22.7975V22.7975ZM64.0567 11.2349H35.9427V18.5625C40.2103 16.1037 45.0383 14.8141 49.9992 14.8141C54.9608 14.8141 59.7869 16.1037 64.0557 18.5625V11.2349H64.0567Z"
        fill="white" fill-rule="evenodd" />
    <path clip-rule="evenodd"
        d="M0 40.5149H17.7091C17.6345 41.4076 17.5962 42.3073 17.5962 43.2082C17.5962 45.3103 17.8 47.3692 18.1843 49.3584L0.00015551 49.359L0 40.5149ZM82.2877 40.5149H100V49.3603H81.8142C82.1986 47.3673 82.4036 45.3115 82.4036 43.2101C82.4036 42.3067 82.3622 41.4077 82.2888 40.5149H82.2877Z"
        fill="white" fill-rule="evenodd" />
    <path clip-rule="evenodd"
        d="M9.2666 74.2733L23.5557 61.9333C25.2698 64.3539 27.3105 66.5238 29.6088 68.3882L15.0475 80.9665L9.2666 74.2733ZM74.1133 18.27L84.9523 8.91162L90.7315 15.6041L77.883 26.7003C76.8065 24.8829 75.5463 23.1675 74.1133 21.5733V18.27Z"
        fill="white" fill-rule="evenodd" />
    <path clip-rule="evenodd"
        d="M90.7303 74.2733L76.4436 61.9333C74.7233 64.3539 72.6845 66.5238 70.3869 68.3882L84.9512 80.9652L90.7303 74.2733ZM25.8821 18.27L15.0467 8.91162L9.26562 15.6035L22.1141 26.6997C23.1905 24.8822 24.4508 23.1668 25.8814 21.5726L25.8821 18.27Z"
        fill="white" fill-rule="evenodd" />
    <path clip-rule="evenodd"
        d="M45.5767 94.9387V75.3069C47.023 75.5063 48.4988 75.6103 49.9985 75.6103C51.4981 75.6103 52.9739 75.5062 54.419 75.3069V94.9387H45.5767Z"
        fill="white" fill-rule="evenodd" />
</svg>
