<svg fill="none" height="80" viewBox="0 0 80 80" width="80" xmlns="http://www.w3.org/2000/svg">
    <path
        d="M68.7582 39.5084L41.497 10.6571C41.3007 10.4488 41.0676 10.2835 40.8109 10.1708C40.5542 10.058 40.2791 10 40.0012 10C39.7234 10 39.4482 10.058 39.1916 10.1708C38.9349 10.2835 38.7018 10.4488 38.5055 10.6571L11.2443 39.5084C10.4501 40.3496 10 41.4921 10 42.6838C10 45.1581 11.8995 47.1699 14.2358 47.1699H17.1082V67.7569C17.1082 68.9976 18.0546 70 19.2261 70H35.7655V54.2986H43.1781V70H60.7764C61.9479 70 62.8943 68.9976 62.8943 67.7569V47.1699H65.7667C66.8918 47.1699 67.9706 46.7002 68.7648 45.8521C70.4128 44.0997 70.4128 41.2608 68.7582 39.5084Z"
        stroke="white" stroke-width="2" />
</svg>
