<svg fill="none" height="80" viewBox="0 0 80 80" width="80" xmlns="http://www.w3.org/2000/svg">
    <g filter="url(#filter0_d_300_150)">
        <path
            d="M43.985 64.336V66.557H43.658H42.9959L42.7374 67.1665C42.2779 68.2497 41.2276 69 40 69C38.7706 69 37.72 68.2489 37.2629 67.1691L37.0046 66.559H36.342H36.056V64.358V63.358H35.288V61.157V60.157H34.52L34.52 58.557H34.5201L45.518 58.5561V60.1567L45.5176 60.1569L45.5176 60.1569L45.5096 60.1594L45.4446 60.1804L44.752 60.4041V61.132V63.3564L44.6413 63.3969L43.985 63.6372V64.336ZM27.4598 42.5574L27.4597 42.5573C25.827 39.9956 24.2073 37.4519 22.9903 34.9172C21.7735 32.3829 21 29.9373 21 27.586C21 18.5583 29.4005 11 40 11C50.5995 11 59 18.5583 59 27.586C59 29.9381 58.2258 32.3844 57.0078 34.9195C55.7897 37.455 54.1685 39.9996 52.5343 42.562L52.5336 42.5631L52.533 42.5642L52.4699 42.663C49.8831 46.7175 47.2869 50.7867 46.258 55H33.7413C32.715 50.7934 30.122 46.7297 27.5386 42.6809L27.4711 42.5752L27.471 42.5751L27.4644 42.5647L27.4639 42.564L27.4598 42.5574Z"
            shape-rendering="crispEdges" stroke="white" stroke-width="2" />
    </g>
    <defs>
        <filter color-interpolation-filters="sRGB" filterUnits="userSpaceOnUse" height="62"
            id="filter0_d_300_150" width="42" x="19" y="10">
            <feFlood flood-opacity="0" result="BackgroundImageFix" />
            <feColorMatrix in="SourceAlpha" result="hardAlpha" type="matrix"
                values="0 0 0 0 0 0 0 0 0 0 0 0 0 0 0 0 0 0 127 0" />
            <feOffset dy="1" />
            <feGaussianBlur stdDeviation="0.5" />
            <feComposite in2="hardAlpha" operator="out" />
            <feColorMatrix type="matrix" values="0 0 0 0 0 0 0 0 0 0 0 0 0 0 0 0 0 0 0.5 0" />
            <feBlend in2="BackgroundImageFix" mode="normal" result="effect1_dropShadow_300_150" />
            <feBlend in="SourceGraphic" in2="effect1_dropShadow_300_150" mode="normal"
                result="shape" />
        </filter>
    </defs>
</svg>
