<svg fill="none" height="80" viewBox="0 0 80 80" width="80" xmlns="http://www.w3.org/2000/svg">
    <g filter="url(#filter0_d_300_138)">
        <path
            d="M42.647 42.5568L42.647 42.5567C42.9175 41.6724 42.4396 40.7771 41.5953 40.5114L41.5939 40.5109C41.4392 40.4619 41.2786 40.4368 41.1174 40.4363C40.4513 40.4351 39.8263 40.867 39.6074 41.5825L42.647 42.5568ZM42.647 42.5568C42.3783 43.4351 41.4973 43.8916 40.6593 43.6279L42.647 42.5568ZM62.6104 39.6752L62.6215 39.682L62.6328 39.6886C65.5878 41.4073 67.7286 44.3232 68.5756 47.8703L68.5755 47.8703L68.5789 47.8835C69.4922 51.4915 68.9067 55.4469 66.9495 58.7365C64.3062 63.1265 60.8747 66.5661 57.1662 68.5414C56.5747 68.8466 56.0353 69 55.4694 69C54.3409 69 53.249 68.4498 52.5256 67.4218C51.8073 66.3979 51.6343 65.1489 52.0307 63.9312L52.0398 63.9032L52.0473 63.8746C52.3402 62.754 52.5666 61.5143 52.5666 60.2517C52.5666 56.1633 50.4401 52.3589 47.0215 50.236L46.4792 49.8993L45.9454 50.2494C44.5369 51.1735 42.8772 51.7039 41.1088 51.7039C40.7221 51.7039 40.3524 51.6829 39.9922 51.6343L38.9621 51.4952L38.863 52.5299C38.4652 56.6829 36.1882 60.6084 32.4433 62.8298L32.4432 62.8298L32.4357 62.8344C30.5757 63.96 28.3854 64.5586 26.1942 64.5586C21.3654 64.5586 16.813 61.7047 14.3923 57.1324L14.3914 57.1308C12.0223 52.6762 10.8223 47.7624 11.0213 43.528L11.0218 43.5183L11.022 43.5087C11.0784 41.4668 12.7278 39.8928 14.6941 39.8928C15.7192 39.8928 16.6945 40.3319 17.4158 41.187L17.4241 41.1969L17.4327 41.2066C18.2572 42.1342 19.1735 42.9225 20.2517 43.5558L20.2567 43.5586C22.0054 44.5723 23.9895 45.1243 25.9841 45.1243C27.8816 45.1243 29.7735 44.6344 31.4554 43.7057L32.01 43.3995L31.9701 42.7673C31.9596 42.6009 31.9541 42.4344 31.9541 42.2611C31.9541 40.152 32.649 38.1883 33.8163 36.604L34.4057 35.804L33.6094 35.2095C30.3303 32.7614 28.1681 28.796 28.1681 24.3419C28.1681 20.6763 29.5884 17.3485 32.184 14.8137C34.8595 12.2655 38.2962 10.875 41.9771 11.0089V11.0089L41.9857 11.0091C46.988 11.1483 51.6064 12.5396 55.0492 14.852L55.0572 14.8574L55.0652 14.8626C56.3846 15.7125 56.9928 17.1692 56.7134 18.7205C56.4375 20.2521 55.2837 21.4438 53.792 21.7913C52.6235 22.0298 51.4783 22.5061 50.4296 23.1243L50.4296 23.1243L50.4225 23.1285C46.9782 25.1976 44.817 28.8642 44.7082 32.9474L44.6917 33.5665L45.2385 33.8571C47.1301 34.8625 48.6616 36.5373 49.5182 38.5701L49.9241 39.5331L50.8683 39.0853C52.5066 38.3082 54.3171 37.8877 56.1651 37.8877C58.4283 37.8877 60.6848 38.4868 62.6104 39.6752ZM40.6593 43.6279C39.8148 43.3619 39.337 42.4666 39.6074 41.5826L40.6593 43.6279ZM34.0471 42.2615C34.0471 46.1981 37.2167 49.4938 41.1067 49.4938C45.0004 49.4938 48.1683 46.1982 48.1683 42.2615C48.1683 38.3309 45.0004 35.0314 41.1067 35.0314C37.2176 35.0314 34.0471 38.3299 34.0471 42.2615Z"
            shape-rendering="crispEdges" stroke="white" stroke-width="2" />
    </g>
    <defs>
        <filter color-interpolation-filters="sRGB" filterUnits="userSpaceOnUse" height="62"
            id="filter0_d_300_138" width="62" x="9" y="10">
            <feFlood flood-opacity="0" result="BackgroundImageFix" />
            <feColorMatrix in="SourceAlpha" result="hardAlpha" type="matrix"
                values="0 0 0 0 0 0 0 0 0 0 0 0 0 0 0 0 0 0 127 0" />
            <feOffset dy="1" />
            <feGaussianBlur stdDeviation="0.5" />
            <feComposite in2="hardAlpha" operator="out" />
            <feColorMatrix type="matrix" values="0 0 0 0 0 0 0 0 0 0 0 0 0 0 0 0 0 0 0.5 0" />
            <feBlend in2="BackgroundImageFix" mode="normal" result="effect1_dropShadow_300_138" />
            <feBlend in="SourceGraphic" in2="effect1_dropShadow_300_138" mode="normal"
                result="shape" />
        </filter>
    </defs>
</svg>
