<svg fill="none" height="80" viewBox="0 0 80 80" width="80" xmlns="http://www.w3.org/2000/svg">
    <path
        d="M40 11H69V29H65.5H64.1477L64.5439 30.2929C65.4759 33.335 66 36.603 66 40C66 47.7233 63.2378 55.1118 58.3486 60.5442C53.4625 65.9732 46.8596 69 40 69H11V51H14.5H15.8539L15.4558 49.7059C14.4949 46.5827 14.0027 43.3032 14 39.9995C14.0001 32.2764 16.7623 24.8881 21.6514 19.4558C26.5375 14.0268 33.1404 11 40 11ZM20.9343 52.131L21.4415 53.0983L22.3604 52.5081L32.7404 45.8414L33.503 45.3516L33.0903 44.5447C32.4092 43.2127 32 41.6681 32 40C32 38.0282 32.5732 36.2154 33.5212 34.7408L34.0105 33.9796L33.3019 33.4169L23.5219 25.6502L22.646 24.9546L22.0524 25.9027C19.5582 29.8865 18 34.8024 18 40C18 44.4276 19.0589 48.5537 20.9343 52.131ZM39.9503 64.3321L39.9751 64.3333H40C48.196 64.3333 55.2906 59.376 59.0668 52.1288L59.4889 51.3188L58.7204 50.8253L48.3404 44.1586L47.4184 43.5664L46.9128 44.5386C45.5003 47.2549 42.9065 49 40 49H39.13H38.2124L38.1337 49.9142L36.9937 63.1475L36.9047 64.1806L37.9403 64.2321L39.9503 64.3321ZM39 30V31H40C43.1644 31 45.9835 33.096 47.2637 36.2434L47.673 37.2497L48.642 36.7587L59.562 31.2254L60.3848 30.8084L60.0356 29.9547C58.3008 25.7141 55.4973 22.1025 51.9462 19.5629C48.3936 17.0223 44.2459 15.6648 39.9996 15.6667L39 15.6671V16.6667V30ZM40 35.6667C37.7012 35.6667 36 37.7161 36 40C36 42.2839 37.7012 44.3333 40 44.3333C42.2988 44.3333 44 42.2839 44 40C44 37.7161 42.2988 35.6667 40 35.6667Z"
        stroke="white" stroke-width="2" />
</svg>
