<svg fill="none" height="80" viewBox="0 0 80 80" width="80" xmlns="http://www.w3.org/2000/svg">
    <path
        d="M40.705 17.1001L40 16.3992L39.295 17.1001L25.545 30.7692L25.545 30.7692C22.6855 33.6121 20.7376 37.2348 19.9485 41.1795C19.1593 45.1242 19.5646 49.2129 21.1128 52.9284C22.661 56.6437 25.2822 59.8183 28.6442 62.0514C32.006 64.2845 35.9579 65.476 40 65.476C44.0421 65.476 47.994 64.2845 51.3558 62.0514C54.7178 59.8183 57.339 56.6437 58.8872 52.9284C60.4354 49.2129 60.8407 45.1242 60.0515 41.1795C59.2624 37.2348 57.3145 33.6121 54.455 30.7692L54.455 30.7692L40.705 17.1001ZM41.7778 39.6246V40.6246H42.7778H47.8072L38.2222 54.388V45.1474V44.1474H37.2222H32.1928L41.7778 30.3839V39.6246ZM40 11.4101L56.9728 28.2829C60.3287 31.6192 62.6135 35.8691 63.5391 40.495C64.4646 45.1208 63.9896 49.9156 62.1739 54.2734C60.3581 58.6312 57.2828 62.3569 53.3359 64.9786C49.389 67.6003 44.748 69 40 69C35.252 69 30.611 67.6003 26.6641 64.9786C22.7172 62.3569 19.6419 58.6312 17.8261 54.2734C16.0104 49.9156 15.5354 45.1208 16.4609 40.495C17.3865 35.8691 19.6713 31.6192 23.0273 28.2829L40 11.4101Z"
        stroke="white" stroke-width="2" />
</svg>
