<svg fill="none" height="100" viewBox="0 0 100 100" width="100" xmlns="http://www.w3.org/2000/svg">
    <path clip-rule="evenodd"
        d="M70.224 23.3643C75.351 28.6373 78.2061 35.6497 78.2061 43.0233C78.2061 58.5994 65.5777 71.2318 49.996 71.2318C34.4217 71.2318 21.7891 58.6016 21.7891 43.0233C21.7891 35.6493 24.6435 28.6357 29.77 23.3643L29.7706 5.06152H70.2232L70.2226 23.3643H70.224ZM49.9985 22.7976C38.8297 22.7976 29.773 31.8536 29.773 43.0247C29.773 54.1935 38.8304 63.2502 49.9985 63.2502C61.1717 63.2502 70.2256 54.1928 70.2256 43.0247C70.2244 31.8546 61.1721 22.7976 49.9985 22.7976V22.7976ZM64.0562 11.2351H35.944V18.5626C40.2109 16.1038 45.0333 14.8143 49.9972 14.8143C54.9607 14.8143 59.7861 16.1039 64.0549 18.5626L64.0543 11.2351H64.0562Z"
        fill="white" fill-rule="evenodd" />
    <path clip-rule="evenodd"
        d="M0.000756113 40.5146H17.7097C17.6376 41.4074 17.5981 42.3071 17.5981 43.2079C17.5981 45.3101 17.8031 47.3689 18.1824 49.3581L0 49.3587L0.000756113 40.5146ZM82.2878 40.5146H100V49.36H81.8144C82.1974 47.3695 82.3987 45.3112 82.3987 43.2098C82.3987 42.3064 82.3636 41.4075 82.289 40.5146H82.2878Z"
        fill="white" fill-rule="evenodd" />
    <path clip-rule="evenodd"
        d="M9.26514 74.2747L23.5554 61.9334C25.2732 64.3553 27.3119 66.525 29.6147 68.3884L15.0461 80.9652L9.26514 74.2747ZM74.1129 18.2701L84.9506 8.91187L90.7297 15.6043L77.8845 26.7004C76.8068 24.8854 75.5455 23.1676 74.1123 21.5734L74.1129 18.2701Z"
        fill="white" fill-rule="evenodd" />
    <path clip-rule="evenodd"
        d="M90.7292 74.2747L76.4402 61.9334C74.7261 64.3553 72.6867 66.525 70.3822 68.3884L84.9496 80.9652L90.7292 74.2747ZM25.8846 18.2701L15.0457 8.91187L9.26465 15.6037L22.1142 26.6998C23.1918 24.8823 24.4532 23.167 25.8838 21.5728L25.8846 18.2701Z"
        fill="white" fill-rule="evenodd" />
    <path clip-rule="evenodd"
        d="M45.5786 94.9383V75.3066C47.0249 75.506 48.5007 75.6088 49.9985 75.6088C51.4993 75.6088 52.9739 75.5054 54.4202 75.3066V94.9383H45.5786Z"
        fill="white" fill-rule="evenodd" />
    <path clip-rule="evenodd"
        d="M39.3819 50.3209L31.3225 42.5777C31.3225 42.5777 30.7045 41.8344 31.7563 41.8344H38.927L42.6049 37.1584C42.6049 37.1584 42.721 36.7175 43.2454 36.8723C43.7701 37.0276 60.0394 41.0294 60.0394 41.0294H68.4693C68.4693 41.0294 69.0266 41.0001 68.7469 41.7727C68.4693 42.5444 66.6236 48.091 66.6236 48.091C66.6236 48.091 65.7576 50.3206 63.5622 50.3206H39.3817L39.3819 50.3209Z"
        fill="white" fill-rule="evenodd" />
</svg>
