<svg fill="none" height="100" viewBox="0 0 100 100" width="100" xmlns="http://www.w3.org/2000/svg">
    <path
        d="M3.77074 24.4677H16.0012C17.224 24.4677 18.3452 23.8562 19.059 22.9391L25.582 13.8681H75.7275L82.4545 22.9391C83.1683 23.8563 84.2888 24.4677 85.4099 24.4677H95.8061C97.8444 24.4677 99.577 22.8367 99.577 20.6967C99.577 18.556 97.9461 16.9258 95.8061 16.9258H87.3466L80.6196 7.95651C79.9058 6.937 78.7854 6.42798 77.5617 6.42798H23.5432C22.3204 6.42798 21.1992 7.0394 20.4854 7.95651L13.9624 17.0276H3.77092C1.73267 17.0276 2.18806e-07 18.6585 2.18806e-07 20.7985C-0.000710868 22.9392 1.73187 24.4677 3.77092 24.4677H3.77074Z"
        fill="white" />
    <path
        d="M96.519 27.6272H86.1228C84.9 27.6272 83.7788 28.137 83.1675 29.1557L77.0518 37.4112L68.6938 29.5631C68.2865 29.1557 67.8784 29.0533 67.267 29.0533C66.7572 29.0533 66.2475 29.359 65.9418 29.7671L59.5205 37.8186L51.9781 29.2573C51.5707 28.8499 50.9586 28.5435 50.3472 28.6459C49.7358 28.7476 49.226 29.0533 48.9203 29.563L44.334 37.5129L36.0786 28.3403C35.7729 27.933 35.2631 27.7289 34.6517 27.7289C34.1419 27.7289 33.6322 27.933 33.2248 28.3403L25.479 37.3096L19.6691 29.2582C18.9553 28.2387 17.8348 27.7296 16.6112 27.7296H4.38079C2.34253 27.7296 0.609863 29.3606 0.609863 31.5006C0.609863 33.5388 2.24078 35.2715 4.38079 35.2715H14.6747L16.2032 37.4122V47.4004C16.2032 48.1142 16.6106 48.7256 17.1204 49.0313L49.6334 67.0716C49.8375 67.1733 50.0408 67.1733 50.2448 67.2757C49.7351 70.6391 48.2066 78.1817 45.2505 83.481C41.174 90.5138 49.1237 93.1634 49.1237 93.1634C49.1237 93.1634 55.9525 96.0172 57.4816 86.6404C58.9085 77.6711 54.2198 77.4678 51.0604 67.2753C51.2644 67.2753 51.3661 67.2753 51.4678 67.1736L85.7135 48.3181C86.3249 48.0124 86.6306 47.401 86.6306 46.6872V36.9023L87.7518 35.3738H96.2113C98.2496 35.3738 99.9822 33.7429 99.9822 31.6029C100.188 29.2581 98.5575 27.6272 96.5192 27.6272L96.519 27.6272Z"
        fill="white" />
</svg>
