<svg fill="none" height="100" viewBox="0 0 100 100" width="100" xmlns="http://www.w3.org/2000/svg">
    <path
        d="M67.5902 2.41846C61.9715 2.41846 54.2762 4.3606 43.8326 6.34549C39.2521 7.21478 37.4198 9.22003 36.4019 11.8157C35.4858 14.1365 35.4248 17.0476 35.5062 19.7736L50.51 28.7717H81.1486L83.9173 17.7093C81.9222 12.459 79.8864 8.85766 77.7692 6.55722C75.5705 4.17738 73.3108 3.06584 70.42 2.61796C69.6871 2.506 68.9339 2.44492 68.1195 2.42456C67.9363 2.42049 67.7735 2.41846 67.5902 2.41846ZM1.69174 12.4915L1.40673 16.1437L8.49942 16.6954L8.86993 13.0493L1.69174 12.4915ZM12.5242 13.3323L12.1537 16.9805L31.8011 18.5114C31.7807 17.3347 31.8214 16.0969 31.9639 14.8429L12.5242 13.3323ZM58.3478 32.4362V48.3153H68.4045L76.3441 32.4362H58.3478ZM20.6857 41.8008C16.2252 41.8008 11.3047 44.4473 7.22298 46.9513C3.14122 49.4757 0 51.9797 0 51.9797L2.28416 54.8299C2.28416 54.8299 5.27269 52.448 9.14069 50.0865C13.0107 47.7046 17.862 45.4652 20.6857 45.4652C23.5154 45.4652 26.2434 47.501 29.3174 49.944C32.3711 52.3869 35.7709 55.237 40.2292 55.237C44.6876 55.237 48.0874 52.3869 51.1411 49.944C51.9757 49.2721 52.79 48.6411 53.584 48.071C53.869 46.4831 54.1133 44.8545 54.2965 43.2462C52.3015 44.3048 50.5303 45.7502 48.861 47.0939C45.7869 49.5368 43.059 51.5726 40.2292 51.5726C37.3995 51.5726 34.6715 49.5368 31.5975 47.0939C28.5438 44.6509 25.144 41.8008 20.6857 41.8008ZM97.7199 42.208C97.7199 42.208 94.7273 44.5898 90.8593 46.9513C86.9913 49.3332 82.1461 51.5726 79.3164 51.5726C77.077 51.5726 74.9191 50.3104 72.5983 48.5596C72.069 49.8625 71.6618 51.0636 71.3564 52.224C73.6569 53.873 76.2423 55.237 79.3164 55.237C83.7748 55.237 88.7014 52.5905 92.7729 50.0865C96.8649 47.5621 100 45.0581 100 45.0581L97.7199 42.208ZM56.5155 51.9797C56.4341 52.3258 56.3323 52.6923 56.2509 53.0384C55.1108 57.6392 53.8079 61.4869 51.8332 63.8484V71.1162H72.0893C69.3207 67.5535 67.5495 63.9909 67.0406 60.0415C66.7148 57.4967 66.9184 54.8298 67.631 51.9797H56.5155ZM69.5446 74.3734V78.0378C69.7482 78.0378 69.6871 77.9971 69.911 78.3229C70.1553 78.6486 70.42 79.3408 70.6032 80.2365C70.8271 81.3969 70.9086 82.8423 70.9493 84.1452H63.1929L64.2312 74.7806H51.8332V82.1705L61.7679 97.0521L62.7858 87.8096H70.99C71.0104 89.2347 71.0918 90.8837 71.4175 92.4512C71.6415 93.5913 71.9875 94.7313 72.6593 95.7289C73.3515 96.7264 74.6341 97.5814 76.0591 97.5814V93.917C75.8555 93.917 75.9166 93.9577 75.6927 93.632C75.4484 93.3063 75.1837 92.6141 75.0005 91.7184C74.7766 90.558 74.6951 89.1125 74.6544 87.8096H77.6877V84.1452H74.6137C74.5933 82.7202 74.5119 81.0712 74.1862 79.5036C73.9623 78.3636 73.6162 77.2235 72.9444 76.226C72.2522 75.2285 70.9696 74.3734 69.5446 74.3734Z"
        fill="white" />
</svg>
