<svg fill="none" height="100" viewBox="0 0 100 100" width="100" xmlns="http://www.w3.org/2000/svg">
    <g clip-path="url(#clip0_108_54)">
        <path clip-rule="evenodd"
            d="M50 0C36.7391 0 24.0209 5.26797 14.6449 14.6449C5.26887 24.0218 0 36.74 0 50C0 63.26 5.26797 75.9791 14.6449 85.3551C24.0218 94.7311 36.74 100 50 100C63.26 100 75.9791 94.732 85.3551 85.3551C94.7311 75.9782 100 63.26 100 50C100 36.74 94.732 24.0209 85.3551 14.6449C75.9782 5.26887 63.26 0 50 0ZM18.8041 81.1968C27.0776 89.4708 38.299 94.1189 50 94.1189L50.0009 94.118C61.6965 94.105 72.9108 89.4524 81.1811 81.1811C89.4524 72.9121 94.1049 61.6974 94.118 50.0009C94.118 38.3001 89.4699 27.0789 81.1959 18.805C72.9224 10.531 61.7008 5.88288 50 5.88288C38.2992 5.88288 27.078 10.531 18.8041 18.805C10.5301 27.0785 5.88199 38.3001 5.88199 50.0009C5.88199 61.7017 10.5301 72.9229 18.8041 81.1968Z"
            fill="#D9D9D9" fill-rule="evenodd" />
        <path clip-rule="evenodd"
            d="M60.1796 37.5744C62.6337 40.0447 64 43.3299 64 46.7842C64 54.0813 57.9558 60 50.5 60C43.046 60 37 54.0819 37 46.7842C37 43.3297 38.3657 40.044 40.8187 37.5744V29H60.1789V37.5744H60.1796ZM50.5006 37.3089C45.1546 37.3089 40.8201 41.5515 40.8201 46.7849C40.8201 52.0178 45.1557 56.2601 50.5006 56.2601C55.8461 56.2601 60.1796 52.0175 60.1796 46.7849C60.179 41.5519 55.8458 37.3089 50.5006 37.3089V37.3089ZM57.2273 31.8922H43.7734V35.3249C45.8157 34.1731 48.1261 33.5689 50.5002 33.5689C52.8745 33.5689 55.184 34.1731 57.2269 35.3249V31.8922H57.2273Z"
            fill="white" fill-rule="evenodd" />
        <path clip-rule="evenodd"
            d="M27 46H35.3233C35.2882 46.4037 35.2702 46.8106 35.2702 47.2179C35.2702 48.1686 35.366 49.0996 35.5466 49.9991L27.0001 49.9994L27 46ZM65.6752 46H74V50H65.4527C65.6333 49.0987 65.7297 48.1691 65.7297 47.2188C65.7297 46.8103 65.7102 46.4038 65.6758 46H65.6752Z"
            fill="white" fill-rule="evenodd" />
        <path clip-rule="evenodd"
            d="M31 61.8418L37.8407 56.019C38.6613 57.1611 39.6382 58.185 40.7385 59.0648L33.7675 65L31 61.8418ZM62.0443 35.4159L67.2333 31L70 34.1579L63.849 39.3938C63.3337 38.5362 62.7304 37.7268 62.0443 36.9746V35.4159Z"
            fill="white" fill-rule="evenodd" />
        <path clip-rule="evenodd"
            d="M70 61.8423L63.1605 56.0194C62.3369 57.1616 61.3608 58.1855 60.2609 59.0653L67.2333 65L70 61.8423ZM38.9549 35.4159L33.7676 31L31 34.1577L37.151 39.3937C37.6663 38.5361 38.2697 37.7266 38.9546 36.9744L38.9549 35.4159Z"
            fill="white" fill-rule="evenodd" />
        <path clip-rule="evenodd"
            d="M48 71V62C48.8178 62.0914 49.6524 62.1391 50.5004 62.1391C51.3484 62.1391 52.1829 62.0914 53 62V71H48Z"
            fill="white" fill-rule="evenodd" />
    </g>
    <defs>
        <clipPath id="clip0_108_54">
            <rect fill="white" height="100" width="100" />
        </clipPath>
    </defs>
</svg>
