<svg fill="none" height="100" viewBox="0 0 100 100" width="100" xmlns="http://www.w3.org/2000/svg">
    <g clip-path="url(#clip0_112_69)">
        <path
            d="M50 0C77.5723 0 100 22.4277 100 50C100 77.5724 77.5723 100 50 100C22.4277 100 0 77.5724 0 50C0 22.4277 22.4277 0 50 0V0ZM91.5306 50C91.5306 44.3949 90.4304 38.9516 88.2686 33.8348C86.1787 28.8871 83.1843 24.4468 79.3691 20.6316C75.5539 16.8164 71.1138 13.822 66.1659 11.7321C61.0486 9.5641 55.6058 8.4701 50.0007 8.4701C44.3949 8.4694 38.9516 9.57032 33.8348 11.7314C28.8871 13.8213 24.4468 16.8157 20.6316 20.6309C16.8164 24.4468 13.8276 28.8862 11.7314 33.8347C9.56338 38.952 8.46938 44.3947 8.46938 49.9998C8.46938 55.6049 9.56959 61.0482 11.7314 66.165C13.8213 71.1127 16.8157 75.553 20.6309 79.3682C24.4461 83.1834 28.8862 86.1778 33.8341 88.2677C38.9514 90.4357 44.3942 91.5297 49.9993 91.5297H50.3379H50.3442H50.3505C55.8326 91.484 61.1513 90.3901 66.1708 88.2677C71.1185 86.1778 75.5588 83.1834 79.374 79.3682C83.1892 75.553 86.1836 71.1129 88.2735 66.165C90.4296 61.0482 91.5305 55.6049 91.5305 49.9998L91.5306 50Z"
            fill="white" />
        <path
            d="M35.1948 50.0006C35.1948 53.9699 31.9766 57.1882 28.0072 57.1882C24.0372 57.1882 20.8196 53.97 20.8196 50.0006C20.8196 46.0312 24.037 42.813 28.0072 42.813C31.9765 42.813 35.1948 46.0312 35.1948 50.0006Z"
            fill="white" />
        <path
            d="M79.1797 50.0006C79.1797 53.9699 75.9622 57.1882 71.9921 57.1882C68.0228 57.1882 64.8044 53.97 64.8044 50.0006C64.8044 46.0312 68.0226 42.813 71.9921 42.813C75.962 42.813 79.1797 46.0312 79.1797 50.0006Z"
            fill="white" />
        <path
            d="M50.8199 10.1172C72.4403 10.5536 89.889 28.2759 89.889 50.0008C89.889 71.6085 72.6237 89.2591 51.1587 89.8772V80.0592C51.1587 79.6037 50.7941 79.2391 50.3386 79.2391C49.8832 79.2391 49.5186 79.6037 49.5186 80.0592V89.89C27.7415 89.6358 10.1035 71.8357 10.1035 50.001C10.1035 28.2815 27.5582 10.5535 49.1726 10.1174V19.9482C49.1726 20.4036 49.5372 20.7682 49.9927 20.7682C50.4481 20.7682 50.8127 20.4036 50.8127 19.9482V10.1174L50.8199 10.1172ZM80.8196 50.0008C80.8196 45.1376 76.8615 41.1795 71.9982 41.1795C67.1343 41.1795 63.1762 45.1376 63.1762 50.0008C63.1762 54.864 67.1343 58.8221 71.9975 58.8221C76.8615 58.8221 80.8196 54.864 80.8196 50.0008V50.0008ZM36.8292 50.0008C36.8292 45.1376 32.8711 41.1795 28.0079 41.1795C23.1447 41.1795 19.1796 45.1376 19.1796 50.0008C19.1796 54.864 23.1376 58.8221 28.0009 58.8221C32.8648 58.8221 36.8292 54.864 36.8292 50.0008V50.0008Z"
            fill="white" />
    </g>
    <defs>
        <clipPath id="clip0_112_69">
            <rect fill="white" height="100" width="100" />
        </clipPath>
    </defs>
</svg>
