<svg fill="none" height="100" viewBox="0 0 100 100" width="100" xmlns="http://www.w3.org/2000/svg">
    <g clip-path="url(#clip0_108_39)">
        <path clip-rule="evenodd"
            d="M88.5593 48.0403C85.0698 45.8869 81.0024 44.8128 76.9419 44.8128C73.6092 44.8128 70.3483 45.571 67.3996 46.9696C65.8251 43.2335 63.0093 40.1483 59.513 38.2901C59.6792 32.0548 62.976 26.4653 68.2291 23.3096C69.8538 22.3519 71.5972 21.6341 73.3392 21.2812C76.4779 20.5606 78.9152 18.0537 79.4959 14.8296C80.0766 11.6055 78.7965 8.49729 76.0113 6.70318C69.9713 2.64622 61.9557 0.255155 53.3558 0.0158701C46.7405 -0.22479 40.5805 2.28212 35.8164 6.82318C31.167 11.36 28.6135 17.338 28.6135 23.9032C28.6135 31.8748 32.4835 38.9701 38.3519 43.3513C36.2043 46.2663 34.9236 49.8831 34.9236 53.7685C34.9236 54.0928 34.9338 54.4053 34.9534 54.7171C32.3941 56.1304 29.5178 56.8739 26.6402 56.8739C23.6215 56.8739 20.6016 56.0376 17.9302 54.4891C16.3042 53.5342 14.9089 52.3386 13.6336 50.9037C12.1202 49.1096 10.0316 48.1546 7.82352 48.1546C3.6394 48.1546 0.156166 51.5007 0.0373834 55.8018C-0.31061 63.2048 1.78213 71.6898 5.84746 79.3339C10.1469 87.4548 18.2755 92.5976 26.9903 92.5976C30.939 92.5976 34.889 91.5206 38.2557 89.4832C44.9903 85.4883 49.0545 78.4509 49.764 71.0421C50.4512 71.1349 51.1431 71.1733 51.8479 71.1733C55.1346 71.1733 58.2163 70.1862 60.8233 68.4759C66.0295 71.709 69.2776 77.5132 69.2776 83.7529C69.2776 85.6656 68.9337 87.5816 68.4663 89.3695C67.6503 91.8764 68.001 94.507 69.5117 96.6602C71.0196 98.8045 73.3417 100 75.7823 100C77.0576 100 78.2217 99.6463 79.3843 99.0451C85.889 95.5831 91.8165 89.6072 96.3458 82.0836C99.8305 76.2292 100.881 69.1826 99.2471 62.7301C97.7351 56.3978 93.899 51.1453 88.5597 48.0398L88.5593 48.0403ZM51.8445 64.1563C46.3248 64.1563 41.7452 59.4535 41.7452 53.7692C41.7452 48.0933 46.3261 43.3856 51.8445 43.3856C57.3703 43.3856 61.9472 48.0947 61.9472 53.7692C61.9472 59.4535 57.3705 64.1563 51.8445 64.1563Z"
            fill="white" fill-rule="evenodd" />
    </g>
    <defs>
        <clipPath id="clip0_108_39">
            <rect fill="white" height="100" width="100" />
        </clipPath>
    </defs>
</svg>
