<svg fill="none" height="100" viewBox="0 0 100 100" width="100" xmlns="http://www.w3.org/2000/svg">
    <path clip-rule="evenodd"
        d="M50.7243 18.4358C51.044 17.72 51.3963 17.0153 51.798 16.3302C58.1652 5.44394 73.5008 2.56826 86.0459 9.9064C98.5905 17.2395 103.604 32.0161 97.2378 42.9038L84.2139 65.1774L38.8906 38.6726L50.7243 18.4358Z"
        fill="white" fill-rule="evenodd" />
    <path clip-rule="evenodd"
        d="M31.0291 42.9475L34.5422 47.1796L3.50822 72.9274L0 68.6917L31.0291 42.9475Z" fill="white"
        fill-rule="evenodd" />
    <path clip-rule="evenodd"
        d="M42.7842 51.156L46.9788 54.7153L23.9749 81.8178L19.7793 78.2609L42.7842 51.156Z"
        fill="white" fill-rule="evenodd" />
    <path clip-rule="evenodd"
        d="M54.4303 59.1938L59.173 61.9691L43.6395 88.5433L38.8906 85.765L54.4303 59.1938Z"
        fill="white" fill-rule="evenodd" />
    <path clip-rule="evenodd"
        d="M67.7229 66.8457L72.8821 68.7566L63.85 93.1529L58.689 91.242L67.7229 66.8457Z"
        fill="white" fill-rule="evenodd" />
    <path clip-rule="evenodd"
        d="M79.3928 72.3809L84.8432 73.0825L82.1242 94.1561L76.6699 93.4477L79.3928 72.3809Z"
        fill="white" fill-rule="evenodd" />
</svg>
