<svg fill="none" height="100" viewBox="0 0 100 100" width="100" xmlns="http://www.w3.org/2000/svg">
    <path
        d="M82.2903 59.9019L82.2099 59.5H81.8H55H54.5V60V70V70.5H55H83.8H84.4099L84.2903 69.9019L82.2903 59.9019ZM45.5 60V59.5H45H18.2H17.7901L17.7097 59.9019L15.7097 69.9019L15.5901 70.5H16.2H45H45.5V70V60ZM14.2 79.5H13.7901L13.7097 79.9019L11.7097 89.9019L11.5901 90.5H12.2H45H45.5V90V80V79.5H45H14.2ZM54.5 90V90.5H55H87.8H88.4099L88.2903 89.9019L86.2903 79.9019L86.2099 79.5H85.8H55H54.5V80V90ZM0.609902 99.5L10.4099 50.5H89.5901L99.3901 99.5H0.609902ZM54.5 30.5V44.5H45.5V30.5H54.5ZM75.8949 19.662L85.7929 29.56L79.4299 35.923L69.5273 26.025L75.8949 19.662ZM14.2321 29.5647L24.1299 19.6575L30.4932 26.0298L20.5998 35.9279L14.2321 29.5647ZM5.5 0.5H19.5V9.5H5.5V0.5ZM80.5 0.5H94.5V9.5H80.5V0.5ZM65.492 0.5H74.495C74.2284 13.7934 63.3568 24.5 50 24.5C36.6432 24.5 25.7716 13.7934 25.505 0.5H34.508C34.7742 8.7971 41.6411 15.5 50 15.5C58.3589 15.5 65.2258 8.7971 65.492 0.5Z"
        fill="#02AA13" stroke="#02AA13" />
</svg>
