<svg fill="none" height="100" viewBox="0 0 100 100" width="100" xmlns="http://www.w3.org/2000/svg">
    <path clip-rule="evenodd"
        d="M46.339 71.8472L50.3122 75.8215C43.8836 82.2463 35.3363 85.7887 26.2476 85.7887C17.1606 85.7887 8.6146 82.2457 2.18311 75.8215L6.15858 71.8472C11.5263 77.2138 18.661 80.172 26.2488 80.172C33.8387 80.1714 40.9732 77.2132 46.339 71.8472Z"
        fill="white" fill-rule="evenodd" />
    <path clip-rule="evenodd"
        d="M20.6104 57.3984C23.7226 60.5095 28.7812 60.5095 31.8918 57.3984L35.8617 61.3706C30.5648 66.6714 21.938 66.6714 16.6387 61.3706L20.6104 57.3984Z"
        fill="white" fill-rule="evenodd" />
    <path clip-rule="evenodd"
        d="M38.3105 64.9399L42.2827 68.9143C37.9992 73.1977 32.3077 75.5543 26.2483 75.5543C20.1913 75.5543 14.4953 73.1977 10.2109 68.9143L14.1898 64.9399C17.4086 68.166 21.6932 69.94 26.2491 69.94C30.805 69.94 35.0891 68.1615 38.3107 64.9399H38.3105Z"
        fill="white" fill-rule="evenodd" />
    <path clip-rule="evenodd"
        d="M21.8661 49.9212L0.478678 29.411C0.478678 29.411 -1.16134 27.4423 1.62992 27.4423H20.6587L30.4188 15.0566C30.4188 15.0566 30.7268 13.8886 32.1185 14.2987C33.5108 14.71 76.6847 25.31 76.6847 25.31H99.055C99.055 25.31 100.534 25.2324 99.7916 27.2787C99.055 29.3229 94.1571 44.0146 94.1571 44.0146C94.1571 44.0146 91.859 49.9204 86.0331 49.9204H21.8653L21.8661 49.9212Z"
        fill="white" fill-rule="evenodd" />
</svg>
