<svg fill="none" height="56" viewBox="0 0 56 56" width="56" xmlns="http://www.w3.org/2000/svg">
    <path
        d="M43.4688 19.4256H46.9062V22.8612H50.3438V26.2969H46.9062V29.7326H43.4688V26.2969H40.0312V22.8612L43.4688 22.8318V19.4256Z"
        fill="#02AA13" />
    <path d="M5.65625 22.8318H14.1347V26.2675H5.65625V22.8318Z" fill="#02AA13" />
    <path d="M7.25967 0.5V7.37132H12.4159V0.5H7.25967Z" fill="#02AA13" />
    <path d="M42.6094 0.529446V7.40076H47.7656V0.529446H42.6094Z" fill="#02AA13" />
    <path d="M0.5 10.5812V13.0941H55.5V10.5812H0.5Z" fill="#02AA13" />
    <path clip-rule="evenodd"
        d="M0.5 15.9212V55.5H55.5V15.9212H0.5ZM54.125 17.6875H1.875V54.125H54.125V17.6875Z"
        fill="#02AA13" fill-rule="evenodd" />
    <path clip-rule="evenodd"
        d="M0.5 15.9212V55.5H55.5V15.9212H0.5ZM54.125 17.6875H1.875V54.125H54.125V17.6875Z"
        fill="#02AA13" fill-rule="evenodd" />
    <path
        d="M29.5986 23C28.0816 23 26.0038 23.551 23.1841 24.1142C21.9473 24.3608 21.4526 24.9298 21.1778 25.6662C20.9305 26.3247 20.914 27.1506 20.936 27.9241L24.987 30.4771H33.2594L34.0069 27.3384C33.4683 25.8487 32.9186 24.827 32.347 24.1743C31.7533 23.499 31.1432 23.1837 30.3627 23.0566C30.1648 23.0248 29.9614 23.0075 29.7416 23.0017C29.6921 23.0006 29.6481 23 29.5986 23ZM27.1032 31.5167V36.022H29.8185L31.9622 31.5167H27.1032ZM26.6085 37.0617C26.5865 37.1599 26.559 37.2639 26.537 37.3621C26.2292 38.6674 25.8774 39.7591 25.3443 40.4291V42.4912H30.8134C30.0659 41.4804 29.5877 40.4696 29.4502 39.349C29.3623 38.627 29.4173 37.8704 29.6096 37.0617H26.6085ZM30.1263 43.4153V44.455C30.1813 44.455 30.1648 44.4435 30.2253 44.5359C30.2912 44.6283 30.3627 44.8247 30.4121 45.0788C30.4726 45.4081 30.4946 45.8182 30.5056 46.1878H28.4114L28.6917 43.5309H25.3443V45.6276L28.0266 49.8498L28.3014 47.2275H30.5166C30.5221 47.6318 30.5441 48.0997 30.632 48.5444C30.6925 48.8679 30.7859 49.1914 30.9673 49.4744C31.1542 49.7574 31.5005 50 31.8852 50V48.9603C31.8303 48.9603 31.8468 48.9719 31.7863 48.8795C31.7203 48.787 31.6489 48.5906 31.5994 48.3365C31.539 48.0073 31.517 47.5972 31.506 47.2275H32.325V46.1878H31.495C31.4895 45.7835 31.4675 45.3156 31.3796 44.8709C31.3191 44.5474 31.2256 44.224 31.0443 43.941C30.8574 43.6579 30.5111 43.4153 30.1263 43.4153Z"
        fill="#02AA13" />
</svg>
