<svg fill="none" height="100" viewBox="0 0 100 100" width="100" xmlns="http://www.w3.org/2000/svg">
    <g clip-path="url(#clip0_108_32)">
        <path d="M100 100H0V0H100V100ZM2.17486 97.826H97.8251V2.17574H2.17486V97.826Z"
            fill="white" />
        <path
            d="M50.0008 70.2176C38.9142 70.2176 29.7842 61.1959 29.7842 50.001C29.7842 41.7402 34.7839 34.3486 42.3931 31.3059L44.241 35.7625C38.3711 38.1537 34.567 43.6972 34.567 50.0017C34.567 58.4802 41.4145 65.3277 49.893 65.3277C58.3708 65.3277 65.3276 58.4802 65.3276 50.0017C65.3276 43.6972 61.5234 38.1544 55.6535 35.7625L57.5014 31.3059C65.2184 34.3493 70.2188 41.7407 70.2188 50.001C70.2188 61.0876 61.0879 70.2176 50.0022 70.2176H50.0008Z"
            fill="white" />
        <path d="M47.6094 26.7395H52.3922V50.4342H47.6094V26.7395Z" fill="white" />
    </g>
    <defs>
        <clipPath id="clip0_108_32">
            <rect fill="white" height="100" width="100" />
        </clipPath>
    </defs>
</svg>
