<svg fill="none" height="100" viewBox="0 0 100 100" width="100" xmlns="http://www.w3.org/2000/svg">
    <path
        d="M96.1401 82.9195C91.9508 86.8023 84.9006 92.3195 82.2444 92.3195C80.6095 92.3195 77.8513 90.0717 75.3987 88.0282C72.2315 85.3718 69.2679 82.9195 66.3052 82.9195C63.3425 82.9195 60.2771 85.3718 57.1098 88.0282C54.6575 90.0715 51.8991 92.3195 50.1623 92.3195C48.5274 92.3195 45.7692 89.8671 43.4186 87.8236C40.2514 85.0648 37.2878 82.4084 34.3251 82.4084C31.2597 82.4084 28.1943 85.0648 24.925 87.8236C22.3707 89.9697 19.6118 92.3195 17.8748 92.3195C15.2185 92.3195 7.75936 87.0063 3.36604 83.328C2.65047 82.715 1.42454 82.817 0.811673 83.5325C0.198808 84.2481 0.300655 85.474 1.01622 86.0869C2.95772 87.7218 12.8687 95.896 17.8747 95.9978C20.9401 95.9978 24.0055 93.3415 27.2747 90.5826C29.8291 88.4365 32.69 85.9849 34.4267 86.0867C36.0617 86.0867 38.8199 88.5391 41.1704 90.5826C44.3377 93.3415 47.3013 95.8958 50.264 95.9978C53.2267 95.8959 56.3948 93.5454 59.562 90.8891C62.0144 88.8458 64.7728 86.5978 66.5095 86.5978C68.1445 86.5978 70.9027 88.8456 73.3552 90.8891C76.5225 93.5454 79.5879 95.9978 82.5506 95.9978H82.6525C87.5567 95.8959 97.0593 87.3126 98.8981 85.5758C99.6136 84.8603 99.7155 83.7371 99 83.0215C98.0813 82.2047 96.8554 82.2047 96.1398 82.9195L96.1401 82.9195Z"
        fill="white" />
    <path
        d="M17.9767 82.9193H18.1812C23.0854 82.7148 31.9752 73.8258 33.7119 71.9863C34.4275 71.2707 34.4275 70.1475 33.7119 69.4319C32.9964 68.7164 31.8732 68.7164 31.1576 69.4319C27.2748 73.4168 20.6336 79.1383 18.0792 79.2411C15.4223 79.4456 7.55453 74.0304 2.95686 70.0457C2.24129 69.4328 1.01536 69.5347 0.402494 70.2503C-0.210371 70.9658 -0.108526 72.1918 0.607043 72.8046C2.65035 74.5415 12.766 82.9195 17.9765 82.9195L17.9767 82.9193Z"
        fill="white" />
    <path
        d="M99.5118 69.6369C98.8989 68.9213 97.7749 68.8194 96.9574 69.4323C92.4616 73.3151 84.9012 78.7304 82.1423 78.7304C79.486 78.7304 72.3332 73.3151 68.1446 69.535C67.429 68.8195 66.3058 68.9221 65.5902 69.637C64.8747 70.3525 64.9773 71.4757 65.6922 72.1913C67.5309 73.9282 77.1355 82.3068 82.1422 82.3068H82.2442C87.3529 82.3068 97.4684 73.8263 99.4091 72.1913C100.125 71.4757 100.227 70.3518 99.5118 69.637L99.5118 69.6369Z"
        fill="white" />
    <path
        d="M49.7532 79.9564C55.5775 79.9564 60.379 75.1542 60.379 69.3306C60.379 65.8569 58.744 62.8934 56.1896 60.9519L56.0877 54.5148H66.3052C67.8375 54.5148 68.9615 53.2889 68.9615 51.8584C68.9615 50.3261 67.7357 49.202 66.3052 49.202H56.0877L55.9858 38.9846H66.4078C67.9401 38.9846 69.0641 37.7587 69.0641 36.3282C69.0641 34.7959 67.8383 33.6719 66.4078 33.6719L55.8838 33.6712L55.7819 27.0302L66.4077 27.0295C67.94 27.0295 69.064 25.8036 69.064 24.3731C69.064 22.9427 67.8382 21.7168 66.4077 21.7168H55.7812L55.5766 10.7837C55.1682 7.92284 54.0443 5.87953 52.5112 4.85761C50.7743 3.73365 49.1394 4.04012 49.1394 4.04012C44.9501 4.14204 43.4179 8.53598 43.2133 10.8858V60.9513C40.761 62.8928 39.2285 65.8555 39.2285 69.2273C39.2292 75.1541 43.9289 79.9565 49.7532 79.9565L49.7532 79.9564Z"
        fill="white" />
</svg>
