<svg fill="none" height="100" viewBox="0 0 100 100" width="100" xmlns="http://www.w3.org/2000/svg">
    <path d="M79.8056 17.913L78.1428 46.6006H21.8541L20.1824 17.913H79.8056Z" fill="white" />
    <path
        d="M61.9707 85.0765L60.5415 85.4884V96.0472L39.4557 96.0485V85.4896L38.0226 85.0778C28.4271 82.3207 20.9833 72.5083 17.5796 65.1734H82.4177C79.0114 72.5069 71.5662 82.3192 61.9707 85.0765Z"
        fill="white" />
    <path
        d="M83.8904 61.218H16.1029C13.1636 61.218 10.7722 58.8266 10.7722 55.8897C10.7722 52.9491 13.165 50.5577 16.1029 50.5577H83.8904C86.8336 50.5577 89.2211 52.9505 89.2211 55.8897C89.2211 58.8264 86.8322 61.218 83.8904 61.218Z"
        fill="white" />
    <path
        d="M27.7406 3.95808H72.2514C76.6161 3.95808 80.1623 7.5056 80.1662 11.7534L80.0379 13.9588H19.9557L19.8338 11.8675C19.8325 7.50678 23.3799 3.95808 27.7406 3.95808Z"
        fill="white" />
</svg>
