<svg fill="none" height="100" viewBox="0 0 100 100" width="100" xmlns="http://www.w3.org/2000/svg">
    <path clip-rule="evenodd"
        d="M54.9422 57.2656V82.0386H45.0598V57.2656C46.6743 57.4978 48.3266 57.6205 50.0034 57.6205C51.6759 57.6205 53.3266 57.4978 54.942 57.2656H54.9422ZM26.0463 71.4884L17.587 66.3868L27.7354 49.5524C30.2679 51.6613 33.0976 53.4146 36.1479 54.7416L26.0463 71.4884ZM73.9523 71.4884L63.8518 54.7412C66.9048 53.4153 69.7347 51.6613 72.267 49.552L82.4166 66.3864L73.9523 71.4884ZM94.8753 53.7112L78.0066 43.4728C79.9559 40.8372 81.5406 37.9069 82.6885 34.7546L100 45.2641L94.8753 53.7112ZM5.12617 53.7112L0 45.2641L17.3101 34.7546C18.4569 37.9069 20.0461 40.8372 21.9948 43.4728L5.12617 53.7112Z"
        fill="white" fill-rule="evenodd" />
    <path clip-rule="evenodd"
        d="M19.1235 27.0212H2.46338V17.9614H97.5425V27.0212H80.8824C78.421 41.8541 65.5323 53.1685 50.0065 53.1685C34.475 53.1685 21.5835 41.8537 19.1235 27.0212V27.0212ZM71.3309 27.0212H28.6707C30.6645 36.9805 39.4576 44.487 50.0051 44.487C60.5476 44.487 69.3395 36.9802 71.3324 27.0212H71.3309Z"
        fill="white" fill-rule="evenodd" />
</svg>
