<svg fill="none" height="100" viewBox="0 0 100 100" width="100" xmlns="http://www.w3.org/2000/svg">
    <path clip-rule="evenodd"
        d="M26.9084 49.1946C24.1211 49.1946 21.8594 46.9347 21.8594 44.1474C21.8594 41.3601 24.1211 39.0984 26.9084 39.0984C29.6983 39.0984 31.9568 41.3601 31.9568 44.1474C31.9568 46.9354 29.6983 49.1946 26.9084 49.1946Z"
        fill="white" fill-rule="evenodd" />
    <path clip-rule="evenodd"
        d="M69.7718 76.795L62.314 58.1481L64.8858 56.3242L76.7361 71.4079L69.7718 76.795Z"
        fill="white" fill-rule="evenodd" />
    <path clip-rule="evenodd"
        d="M95.6085 50.0587C92.6622 56.488 88.7525 62.3755 84.0685 67.5512L77.7251 61.8133C81.7938 57.3249 85.1891 52.2178 87.7628 46.6524L83.6013 44.8958L89.4439 42.5033L95.2847 40.1108L97.6416 45.964L99.9998 51.8185L95.6085 50.0587Z"
        fill="white" fill-rule="evenodd" />
    <path clip-rule="evenodd"
        d="M33.2211 90.108C32.1229 90.108 31.0273 90.0787 29.941 90.0257L29.7237 94.6481L25.4644 89.9915L21.2002 85.3323L25.883 81.0998L30.5608 76.863L30.3459 81.4836C31.3014 81.5297 32.2588 81.5528 33.2193 81.5528C38.5356 81.5528 43.6811 80.8614 48.5932 79.5683L50.7776 87.8339C45.1748 89.3158 39.2899 90.1081 33.2214 90.1081L33.2211 90.108Z"
        fill="white" fill-rule="evenodd" />
    <path clip-rule="evenodd"
        d="M0 26.2263L20.8729 5.35181H34.7157L67.0345 78.5362L60.9845 82.0287L30.0754 30.4618C30.0754 30.4618 27.4194 27.8943 24.6875 30.3821C21.9505 32.8661 14.4511 40.6161 14.4511 40.6161L0 26.2263Z"
        fill="white" fill-rule="evenodd" />
</svg>
