<svg fill="none" height="100" viewBox="0 0 100 100" width="100" xmlns="http://www.w3.org/2000/svg">
    <path
        d="M80.6518 16V17.9922L69.8979 29.9428H79.576L82.8023 33.9258L70.9727 37.9087V43.884L74.1991 51.8499H88.1793L93.5562 61.8081H98.9331V67.7834H94.632L92.8842 73.8821C92.4401 74.0655 92.0125 74.1155 91.6075 74.0697C90.3923 73.928 89.0091 72.8054 87.2387 69.5269C86.0437 67.3069 83.8631 67.3069 82.6681 69.5269C80.8026 72.982 79.6916 73.7585 79.0391 73.7585C78.3865 73.7585 77.2755 72.9819 75.41 69.5269C74.2151 67.3069 72.0345 67.3069 70.8394 69.5269C68.9739 72.982 67.8629 73.7585 67.2104 73.7585C66.5578 73.7585 65.4468 72.9819 63.5814 69.5269C62.3864 67.3069 60.2058 67.3069 59.0108 69.5269C57.1452 72.982 56.0343 73.7585 55.3817 73.7585C54.7291 73.7585 53.6182 72.9819 51.7527 69.5269C50.5577 67.3069 48.3771 67.3069 47.1821 69.5269C45.3166 72.982 44.2056 73.7585 43.5531 73.7585C42.9005 73.7585 41.7895 72.9819 39.924 69.5269C38.7291 67.3069 36.5485 67.3069 35.3534 69.5269C33.4879 72.982 32.3769 73.7585 31.7244 73.7585C31.0719 73.7585 29.9608 72.9819 28.0954 69.5269C26.9004 67.3069 24.7198 67.3069 23.5248 69.5269C21.6592 72.982 20.5483 73.7585 19.8957 73.7585C19.2431 73.7585 18.1322 72.9819 16.2667 69.5269C15.3575 67.8501 13.8813 67.3347 12.7043 68.2822C9.01513 63.7448 5.76478 58.4171 5.3786 51.8514L7.83144 51.1665L6.11739 44.88H3.2271C3.09282 44.88 2.95781 44.7967 2.85728 44.6313L0.706701 40.6484C0.378151 40.1121 0.638438 38.884 1.07652 38.9063H38.7822L41.2351 36.1055H45.9399V46.0638L30.2794 45.0051L34.4125 43.8854L37.0334 40.8985H25.4732L26.8174 44.8188L25.6412 44.6952L24.3645 40.8983H13.7111L15.4589 49.0519L18.719 48.1809L65.2967 50.048C66.1286 50.0286 66.6417 47.8057 66.0693 46.6874L58.5418 32.7462C58.367 32.3989 58.124 32.1738 57.8697 32.1238H44.831C46.5871 30.736 48.5734 29.9455 50.5778 29.9455H64.5242L80.6518 16ZM57.2967 36.1025L62.6736 46.0607H54.5406V36.1025H57.2967ZM52.3901 36.1025V46.0607H48.0889V36.1025H52.3901ZM12.5336 40.8956H2.35139L3.42708 42.8878H12.9709L12.5336 40.8956ZM13.4075 44.8785H7.29083L8.93736 50.8538L14.3819 49.3604L13.4075 44.8785ZM86.4665 70.9563C88.3636 74.4698 90.0139 75.8216 91.5412 75.998C93.0684 76.1759 94.7066 75.1798 96.582 72.5749C97.4874 71.3079 98.9368 71.6955 99.6104 73.3876C100.284 75.0784 100.057 77.7582 99.1363 78.9863C96.7104 82.3567 94.0467 84.2862 91.2727 83.9654C89.0651 83.7098 86.9798 81.6662 84.9881 78.7377C83.1045 81.6329 81.1835 83.7168 79.0395 83.7168C76.9098 83.7168 74.9962 81.6621 73.1246 78.8003C71.2531 81.6622 69.3395 83.7168 67.2098 83.7168C65.0802 83.7168 63.1666 81.6621 61.295 78.8003C59.4234 81.6622 57.5098 83.7168 55.3802 83.7168C53.2506 83.7168 51.3369 81.6621 49.4654 78.8003C47.5938 81.6622 45.6802 83.7168 43.5506 83.7168C41.4209 83.7168 39.5073 81.6621 37.6358 78.8003C35.7642 81.6622 33.8506 83.7168 31.7209 83.7168C29.5913 83.7168 27.6777 81.6621 25.8061 78.8003C23.9346 81.6622 22.021 83.7168 19.8913 83.7168C17.7617 83.7168 15.8481 81.6621 13.9765 78.8003C12.1049 81.6622 10.1913 83.7168 8.06169 83.7168C5.36055 83.7168 2.97588 80.9564 0.634611 76.6219C-0.192035 75.166 -0.21454 72.4359 0.587354 70.9343C1.38925 69.4325 2.86391 69.4451 3.65912 70.958C5.61997 74.5895 6.99877 75.7511 8.06167 75.7511C9.12461 75.7511 10.5034 74.5897 12.4642 70.958C13.2594 69.502 14.6935 69.502 15.4887 70.958C17.4496 74.5895 18.8284 75.7511 19.8913 75.7511C20.9542 75.7511 22.333 74.5897 24.2939 70.958C25.089 69.502 26.5232 69.502 27.3184 70.958C29.2792 74.5895 30.658 75.7511 31.7209 75.7511C32.7838 75.7511 34.1626 74.5897 36.1235 70.958C36.9186 69.502 38.3528 69.502 39.148 70.958C41.1089 74.5895 42.4877 75.7511 43.5506 75.7511C44.6135 75.7511 45.9923 74.5897 47.9531 70.958C48.7482 69.502 50.1824 69.502 50.9776 70.958C52.9385 74.5895 54.3173 75.7511 55.3802 75.7511C56.4431 75.7511 57.8219 74.5897 59.7827 70.958C60.5779 69.502 62.0121 69.502 62.8073 70.958C64.7681 74.5895 66.1469 75.7511 67.2098 75.7511C68.2728 75.7511 69.6515 74.5897 71.6124 70.958C72.4075 69.502 73.8417 69.502 74.6369 70.958C76.5977 74.5895 77.9765 75.7511 79.0394 75.7511C80.1023 75.7511 81.4811 74.5897 83.442 70.958C84.6527 69.3353 85.3436 69.6284 86.4665 70.958L86.4665 70.9563Z"
        fill="white" />
</svg>
