<svg fill="none" height="27" viewBox="0 0 56 27" width="56" xmlns="http://www.w3.org/2000/svg">
    <path
        d="M47.4783 21.7045C48.5027 22.9962 49.3938 23.4932 50.2185 23.5581C51.0432 23.6235 51.9278 23.2573 52.9405 22.2996C53.4294 21.8338 54.212 21.9763 54.5758 22.5984C54.9395 23.22 54.8172 24.2052 54.3198 24.6567C53.0098 25.8958 51.5714 26.6052 50.0736 26.4873C48.8815 26.3933 47.7555 25.642 46.68 24.5653C45.6629 25.6297 44.6256 26.3959 43.4678 26.3959C42.3178 26.3959 41.2845 25.6405 40.2739 24.5883C39.2633 25.6405 38.23 26.3959 37.08 26.3959C35.9301 26.3959 34.8968 25.6405 33.8862 24.5883C32.8755 25.6405 31.8422 26.3959 30.6923 26.3959C29.5423 26.3959 28.509 25.6405 27.4984 24.5883C26.4877 25.6405 25.4544 26.3959 24.3045 26.3959C23.1545 26.3959 22.1212 25.6405 21.1106 24.5883C20.1 25.6405 19.0667 26.3959 17.9167 26.3959C16.7667 26.3959 15.7334 25.6405 14.7228 24.5883C13.7122 25.6405 12.6789 26.3959 11.5289 26.3959C10.3789 26.3959 9.34562 25.6405 8.33502 24.5883C7.3244 25.6405 6.2911 26.3959 5.14113 26.3959C3.68256 26.3959 2.39488 25.381 1.13064 23.7875C0.684269 23.2522 0.672116 22.2485 1.10512 21.6965C1.53813 21.1443 2.33442 21.1489 2.76382 21.7051C3.82264 23.0403 4.56717 23.4673 5.14112 23.4673C5.71509 23.4673 6.45959 23.0403 7.51841 21.7051C7.94777 21.1699 8.7222 21.1699 9.1516 21.7051C10.2104 23.0403 10.955 23.4673 11.5289 23.4673C12.1029 23.4673 12.8474 23.0403 13.9062 21.7051C14.3356 21.1699 15.11 21.1699 15.5394 21.7051C16.5982 23.0403 17.3427 23.4673 17.9167 23.4673C18.4906 23.4673 19.2352 23.0403 20.294 21.7051C20.7233 21.1699 21.4978 21.1699 21.9272 21.7051C22.986 23.0403 23.7305 23.4673 24.3045 23.4673C24.8784 23.4673 25.6229 23.0403 26.6818 21.7051C27.1111 21.1699 27.8855 21.1699 28.3149 21.7051C29.3738 23.0403 30.1183 23.4673 30.6922 23.4673C31.2662 23.4673 32.0107 23.0403 33.0695 21.7051C33.4989 21.1699 34.2733 21.1699 34.7027 21.7051C35.7616 23.0403 36.5061 23.4673 37.08 23.4673C37.654 23.4673 38.3985 23.0403 39.4573 21.7051C39.8867 21.1699 40.6611 21.1699 41.0905 21.7051C42.1493 23.0403 42.8939 23.4673 43.4678 23.4673C44.0418 23.4673 44.7863 23.0403 45.8451 21.7051C46.4989 21.1086 46.8719 21.2157 47.4783 21.7045Z"
        stroke="white" />
</svg>
