<svg fill="none" height="100" viewBox="0 0 100 100" width="100" xmlns="http://www.w3.org/2000/svg">
    <path
        d="M42.386 62.4262C42.386 66.8644 38.789 70.4615 34.3507 70.4615C29.9134 70.4615 26.3164 66.8644 26.3164 62.4262C26.3164 57.9889 29.9134 54.3918 34.3507 54.3918C38.789 54.3918 42.386 57.9889 42.386 62.4262Z"
        fill="white" />
    <path
        d="M56.1848 27.6882V57.4843C56.1848 63.1293 59.4877 68.189 64.6405 70.4852H66.2337V14.6877H64.6405C59.4877 16.9828 56.1848 22.0427 56.1848 27.6887V27.6882Z"
        fill="white" />
    <path
        d="M12.5674 57.4593V27.6883C12.5674 22.0197 9.21737 16.9835 4.04095 14.7109H2.4939V70.4858H4.06349C9.24091 68.1897 12.5674 63.1299 12.5674 57.4613L12.5674 57.4593Z"
        fill="white" />
    <path
        d="M66.2088 76.27V74.4897H64.2177C63.9598 74.4897 63.702 74.4191 63.4677 74.3259C56.6039 71.5152 52.1767 64.9092 52.1767 57.4841L52.1777 27.688C52.1777 20.2861 56.6052 13.6804 63.4687 10.8694C63.703 10.7753 63.9608 10.7057 64.2187 10.7057H66.2098V6.93425C66.2098 3.11562 63.1178 0.000980383 59.2765 0.000980383L9.42731 0C5.60868 0 2.49404 3.11564 2.49404 6.93327V10.7047H4.4852C4.64893 10.7047 4.79009 10.7753 4.93028 10.7988C5.04695 10.8224 5.14107 10.8224 5.25872 10.8694H5.28225C5.28225 10.8694 5.30577 10.8694 5.30577 10.8929C12.1459 13.7036 16.5734 20.3096 16.5734 27.6889V57.485C16.5734 64.7701 12.2872 71.282 5.6343 74.1632C5.51764 74.2338 5.39999 74.2799 5.28334 74.3505C5.04903 74.4446 4.7912 74.5142 4.53334 74.5142L2.49316 74.5132V76.2936C2.49316 80.1122 5.6088 83.2269 9.42643 83.2269H59.2732C63.1154 83.2043 66.2074 80.0887 66.2074 76.27L66.2088 76.27ZM32.126 23.143H36.6005C37.7014 23.143 38.5916 24.0332 38.5916 25.1342C38.5916 26.2352 37.7014 27.1253 36.6005 27.1253H32.126C31.0251 27.1253 30.1349 26.2352 30.1349 25.1342C30.1359 24.0097 31.026 23.143 32.126 23.143ZM32.126 31.3889H36.6005C37.7014 31.3889 38.5916 32.2791 38.5916 33.3801C38.5916 34.5046 37.7014 35.3712 36.6005 35.3712H32.126C31.0251 35.3712 30.1349 34.481 30.1349 33.3801C30.1359 32.2791 31.026 31.3889 32.126 31.3889ZM32.126 39.634H36.6005C37.7014 39.634 38.5916 40.5242 38.5916 41.6252C38.5916 42.7262 37.7014 43.6164 36.6005 43.6164H32.126C31.0251 43.6164 30.1349 42.7262 30.1349 41.6252C30.1359 40.5242 31.026 39.634 32.126 39.634ZM34.375 74.4673C27.7221 74.4673 22.3349 69.0564 22.3349 62.4038C22.3349 55.7511 27.7457 50.3636 34.375 50.3636C41.0044 50.3636 46.4152 55.7744 46.4152 62.4038C46.4152 69.0321 41.0044 74.4673 34.375 74.4673Z"
        fill="white" />
    <path
        d="M94.4364 24.2674C92.4217 22.3233 89.7276 21.3154 86.964 21.4567C83.7317 21.5969 80.7328 23.4243 78.8356 26.3528C77.1493 28.9998 76.7739 31.6938 77.6876 34.5979C77.7111 34.7146 77.7346 34.8322 77.7582 34.9489L80.6394 43.3114C81.2482 45.0447 81.5296 46.8487 81.5296 48.6987V54.5309C81.5296 57.0378 83.1227 59.1926 85.3718 59.9887V96.0166L52.7171 96.0175V93.1127H57.0269C58.1278 93.1127 59.018 92.2225 59.018 91.1216V87.2098H42.3867V91.1216C42.3867 92.2461 43.2769 93.1127 44.3779 93.1127H48.6877V98.0088C48.6877 99.1098 49.5779 100 50.6788 100H87.3618C88.4627 100 89.3529 99.1098 89.3529 98.0088V59.9681C91.5784 59.1485 93.1716 57.0161 93.1716 54.5103V48.6781C93.1716 46.8271 93.4764 45.0477 94.0618 43.2908L96.943 34.9283C96.99 34.8341 97.0136 34.7175 97.0136 34.5998C97.342 33.5694 97.5057 32.5852 97.5057 31.6019C97.5518 28.7902 96.4508 26.1893 94.4363 24.2686L94.4364 24.2674Z"
        fill="white" />
    <path
        d="M19.9937 98.0072V93.1112H24.3035C25.4044 93.1112 26.2946 92.221 26.2946 91.12V87.2083H9.66333V91.12C9.66333 92.2445 10.5535 93.1112 11.6545 93.1112H15.9643V98.0072C15.9643 99.1082 16.8545 99.9984 17.9554 99.9984C19.127 99.9984 19.9937 99.1082 19.9937 98.0072H19.9937Z"
        fill="white" />
</svg>
