<svg fill="none" height="100" viewBox="0 0 100 100" width="100" xmlns="http://www.w3.org/2000/svg">
    <path
        d="M70.2373 38.9875V34.6761L77.1089 41.8177L70.2373 48.9593V44.5721H63.3691C61.743 44.5721 60.3185 43.8835 59.5891 42.22C59.2972 41.5481 59.1231 40.6631 59.1493 39.912L59.1488 28.656H43.8419V64.0598H45.478V52.3708H68.8748V64.0007L64.4206 69.6523H43.2251C42.3792 69.7031 41.4702 69.5223 40.7275 69.0641C39.2788 68.1741 38.7599 66.5156 38.7599 64.7685V27.8004C38.7532 27.0449 38.958 26.1369 39.2566 25.4702C39.9926 23.8145 41.3743 23.0645 43.016 23.0645H59.9243C60.6129 23.06 61.4438 23.3011 62.0493 23.6343C63.5554 24.4641 64.2295 26.0064 64.2295 27.8216V38.9855H70.2373L70.2373 38.9875Z"
        fill="white" />
    <path
        d="M78.996 53.7528H100V66.4848L99.1758 67.0852L86.205 76.5951L85.7391 76.9355H20.0957L19.5539 76.344L2.92125 58.0514L2.75384 57.8661L2.62717 57.6228C2.61935 57.6094 -0.00393939 52.687 6.04112 52.687H22.6537L32.2585 42.1258L32.8014 41.5298H52.2726V45.6006H34.3314L24.7255 56.1619L24.1837 56.7578H6.97679L21.6266 72.8705H84.6185L96.2958 64.3086V57.8204H78.9946V53.7529L78.996 53.7528Z"
        fill="white" />
    <path
        d="M0 23.6577H4.0178L5.46364 32.065L7.57361 23.6577H11.5824L13.7001 32.065L15.1454 23.6577H19.1414L16.1281 38.7132H11.9814L9.58301 29.2351L7.1919 38.7132H3.04624L0 23.6577Z"
        fill="white" />
    <path
        d="M29.3212 32.5633L33.0276 33.7982C32.7776 34.945 32.3875 35.8959 31.8541 36.6603C31.3145 37.4293 30.6498 38.0091 29.8547 38.3957C29.0634 38.7914 28.0534 38.9817 26.8274 38.9817C25.3403 38.9817 24.1193 38.7451 23.1796 38.2702C22.2354 37.7953 21.4202 36.9583 20.7338 35.7562C20.0541 34.5542 19.707 33.0241 19.707 31.1564C19.707 28.6632 20.3119 26.7463 21.5161 25.4098C22.7215 24.0733 24.4291 23.4004 26.6305 23.4004C28.3536 23.4004 29.7097 23.7826 30.698 24.5538C31.6829 25.3206 32.419 26.4997 32.8961 28.0872L29.1602 29.0018C29.0302 28.5403 28.8946 28.2044 28.7484 27.9946C28.5118 27.6374 28.2238 27.3623 27.8823 27.1704C27.5374 26.9806 27.1541 26.883 26.7311 26.883C25.7746 26.883 25.0397 27.3071 24.5274 28.1553C24.1429 28.7875 23.9487 29.777 23.9487 31.1234C23.9487 32.7969 24.1803 33.9392 24.6373 34.5598C25.1033 35.1803 25.7489 35.4917 26.5809 35.4917C27.3895 35.4917 28.0011 35.2394 28.4173 34.7411C28.8341 34.2411 29.1349 33.5151 29.3213 32.5631L29.3212 32.5633Z"
        fill="white" />
</svg>
