<svg fill="none" height="55" viewBox="0 0 56 55" width="56" xmlns="http://www.w3.org/2000/svg">
    <path
        d="M34.2754 21.6935V23.1757C32.2417 22.9343 29.7946 22.7965 27.1407 22.7965C23.1772 22.7965 19.6614 23.1413 17.2832 23.6582V23.1757C17.2832 22.8999 17.4556 22.6241 17.7313 22.5207C19.2823 21.9004 21.3848 21.4523 23.7975 21.2109C23.8665 21.2109 23.9352 21.1419 23.9352 21.0732C23.9352 20.8318 25.3138 20.625 27.0028 20.625C28.6917 20.625 30.0703 20.8318 30.0703 21.0732C30.105 21.1075 30.174 21.1419 30.2427 21.1419C31.7593 21.2453 33.0346 21.4523 34.2754 21.6935Z"
        fill="#FF0000" fill-opacity="0.74" />
    <path
        d="M38.9284 29.2762H38.6871C38.6181 29.2762 38.5147 29.2418 38.4803 29.1384C38.3425 28.897 38.2045 28.6559 37.9978 28.4492C37.722 28.1734 37.3775 27.9666 37.0327 27.8632C36.8603 27.7942 36.6535 27.7942 36.4812 27.7942C36.3902 27.7942 36.3088 27.8038 36.232 27.8129C36.1633 27.821 36.0982 27.8286 36.033 27.8286C35.9859 27.8521 35.9227 27.8435 35.8653 27.8357C35.8388 27.8321 35.8135 27.8286 35.7916 27.8286H35.7573C35.5505 27.7596 35.3437 27.6562 35.1713 27.5185C35.0336 27.4151 34.93 27.3117 34.7922 27.1737C34.7232 27.1047 34.6888 27.0359 34.6544 26.9669C34.5854 26.8636 34.5511 26.7256 34.5511 26.6222V21.6935C35.7919 21.9693 36.8603 22.3485 37.6876 22.7619C37.8944 22.8653 38.0324 23.0721 38.0324 23.3135V26.8292C38.0324 26.9325 38.1014 27.0359 38.1701 27.1049C38.687 27.4841 39.0318 28.139 39.1352 28.8283V28.966C39.1698 29.1384 39.0664 29.2762 38.9284 29.2762Z"
        fill="#FF0000" fill-opacity="0.74" />
    <path
        d="M34.2753 23.4168V25.9674C34.2236 25.9674 34.1632 25.9588 34.1029 25.9502C34.0426 25.9416 33.9822 25.933 33.9305 25.933C31.9658 25.726 29.6222 25.5883 27.1405 25.5883C24.6589 25.5883 22.3153 25.726 20.3506 25.933C19.3165 25.6917 18.4205 25.4161 17.6965 25.0714C17.4552 24.968 17.3174 24.7266 17.3174 24.4855V23.8649C19.6957 23.348 23.2114 23.0033 27.1749 23.0033C29.7945 23.0376 32.2417 23.1757 34.2753 23.4168Z"
        fill="#FF0000" fill-opacity="0.74" />
    <path
        d="M35.0336 27.8631C35.1026 27.8974 35.1026 28.0008 35.0336 28.0354C34.7818 28.1473 34.6435 28.3274 34.4528 28.5757C34.4086 28.6332 34.3616 28.6945 34.3097 28.7594C34.3097 28.7594 34.3097 28.7937 34.2753 28.7937C34.2527 28.8314 34.2301 28.8674 34.2079 28.9029C34.1284 29.0296 34.0534 29.1491 33.9995 29.3106C33.9651 29.3797 33.9305 29.414 33.8618 29.3797C28.554 28.6214 22.5911 29.1039 20.4886 29.3453C20.4148 29.3453 20.3508 29.3551 20.2913 29.3643C20.2399 29.3722 20.1918 29.3797 20.1438 29.3797C19.6269 28.3456 18.5239 27.3806 17.3521 27.3806C17.2831 27.3806 17.2143 27.3462 17.1797 27.3116C17.1107 27.2426 17.0763 27.1738 17.0419 27.0702V27.0012C17.0419 26.9322 17.0763 26.8288 17.1109 26.7598C17.1453 26.6908 17.1799 26.6564 17.2487 26.622C17.2904 26.5803 17.3448 26.5512 17.4041 26.5195C17.4428 26.4988 17.4836 26.4769 17.5245 26.4496C17.6905 26.4127 17.8664 26.3857 18.047 26.358C18.2037 26.3339 18.3638 26.3093 18.5239 26.2773C18.7533 26.2486 18.9946 26.2139 19.2428 26.1783C19.5914 26.1282 19.9538 26.0762 20.3162 26.0359C22.2809 25.8291 24.6246 25.7257 27.1062 25.7257C29.5878 25.7257 31.9314 25.8291 33.8962 26.0359C33.9652 26.0359 34.0686 26.0359 34.1376 26.0703C34.2066 26.0703 34.2409 26.1393 34.2409 26.208V26.8283C34.3443 27.3806 34.6891 27.6907 35.0336 27.8631Z"
        fill="#FF0000" fill-opacity="0.74" />
    <path
        d="M39.859 45.2344C39.4454 45.8203 38.3424 46.3374 36.7224 46.751C34.3788 47.3712 30.9321 47.7504 27.1406 47.7504C23.3491 47.7504 19.9026 47.3712 17.5588 46.751C15.9732 46.3374 14.836 45.8203 14.4223 45.2344L14.4566 44.8896L14.491 44.1657C14.56 42.6147 15.4561 41.2705 16.8346 40.5812L19.2819 39.3748C20.0402 38.9956 20.5227 38.2374 20.5227 37.3757L20.523 31.2408C20.523 30.8273 20.454 30.4135 20.3506 30.0343C20.3334 29.9655 20.3075 29.8965 20.2817 29.8276C20.2559 29.7586 20.23 29.6897 20.2128 29.6208C20.2502 29.6208 20.2877 29.6163 20.3268 29.6106C20.3377 29.6089 20.349 29.6072 20.3602 29.6055C20.4196 29.5963 20.4836 29.5864 20.5576 29.5864C22.6601 29.345 28.5884 28.7592 33.8963 29.6208C33.9653 29.6208 33.9997 29.6898 33.9997 29.7586C33.9924 29.7804 33.9851 29.8007 33.9782 29.8201C33.9522 29.8926 33.9307 29.9528 33.9307 30.0343V37.4103C33.9307 38.2719 34.4132 39.0646 35.2059 39.4438L37.4461 40.5122C38.8593 41.2014 39.7897 42.5803 39.8934 44.1656V44.2L39.9278 44.9239L39.859 45.2344Z"
        fill="#FF0000" fill-opacity="0.74" />
    <path
        d="M40.0312 48.75C40.0312 50.4043 34.2409 51.7831 27.1406 51.7831C20.0404 51.7831 14.25 50.4389 14.25 48.75V48.681L14.3878 45.8546C14.6635 46.3027 15.3872 46.7162 16.4212 47.061C18.7305 47.8537 22.6942 48.4052 27.1405 48.4052C31.5866 48.4052 35.5504 47.8883 37.8597 47.061C38.8937 46.7163 39.6174 46.2684 39.8932 45.8202L40.0309 48.6466L40.0312 48.75Z"
        fill="#FF0000" fill-opacity="0.74" />
    <path d="M7.25967 0V6.87132H12.4159V0H7.25967Z" fill="#FF0000" fill-opacity="0.74" />
    <path
        d="M43.4688 18.9256H46.9062V22.3612H50.3438V25.7969H46.9062V29.2326H43.4688V25.7969H40.0312V22.3612L43.4688 22.3318V18.9256Z"
        fill="#FF0000" fill-opacity="0.74" />
    <path d="M5.65625 22.3318H14.1347V25.7675H5.65625V22.3318Z" fill="#FF0000"
        fill-opacity="0.74" />
    <path clip-rule="evenodd"
        d="M42.6094 0.0294459V6.90077H47.7656V0.0294459H42.6094ZM0.5 10.0812V12.5941H55.5V10.0812H0.5ZM20.3602 29.6055C20.349 29.6072 20.3377 29.6089 20.3268 29.6106L20.3602 29.6055Z"
        fill="#FF0000" fill-opacity="0.74" fill-rule="evenodd" />
    <path clip-rule="evenodd"
        d="M0.5 15.4212V55H55.0455V15.4212H0.5ZM53.6818 17.1875H1.86364V53.625H53.6818V17.1875Z"
        fill="#FF0000" fill-opacity="0.74" fill-rule="evenodd" />
</svg>
