<svg fill="none" height="100" viewBox="0 0 100 100" width="100" xmlns="http://www.w3.org/2000/svg">
    <path
        d="M75.332 23.2299C75.5534 23.3403 75.5534 23.6721 75.332 23.7832C74.3366 24.2253 73.8937 25.0001 73.0086 26.1066C73.0086 26.1066 73.0086 26.2169 72.8982 26.2169C72.5664 26.7702 72.2346 27.2123 72.0132 27.8759C71.9029 28.0974 71.7917 28.2077 71.5711 28.0974C54.5361 25.6638 35.3985 27.2123 28.6507 27.987C28.2086 27.987 27.876 28.0974 27.5442 28.0974C25.8853 24.7786 22.3451 21.6815 18.5843 21.6815C18.3628 21.6815 18.1421 21.5711 18.031 21.46C17.8096 21.2385 17.6992 21.0179 17.5889 20.6853V20.4638C17.5889 20.2424 17.6992 19.9106 17.8103 19.6891C17.9207 19.4677 18.0318 19.3573 18.2525 19.247C18.4739 19.0255 18.8057 18.9152 19.1375 18.6937C20.1329 18.4723 21.2395 18.3619 22.3451 18.1405C24.1152 17.919 26.1059 17.5872 28.0975 17.3658C34.4032 16.7022 41.9249 16.3704 49.8895 16.3704C57.8541 16.3704 65.3758 16.7022 71.6815 17.3658C71.903 17.3658 72.2348 17.3658 72.4562 17.4761C72.6777 17.4761 72.788 17.6976 72.788 17.9182V19.7987V19.909C73.1198 21.6814 74.2263 22.6769 75.3321 23.23L75.332 23.2299Z"
        fill="white" />
    <path
        d="M72.8981 3.4291V8.18613C66.371 7.41142 58.5174 6.96927 49.9999 6.96927C37.2791 6.96927 25.9955 8.07579 18.3628 9.73476V8.18613C18.3628 7.30107 18.916 6.41604 19.8011 6.08416C24.7788 4.09341 31.5265 2.65516 39.2699 1.88043C39.4913 1.88043 39.712 1.65897 39.712 1.43829C39.712 0.663578 44.1364 0 49.5572 0C54.9777 0 59.4023 0.663598 59.4023 1.43829C59.5134 1.54863 59.7348 1.65897 59.9555 1.65897C64.823 1.99077 68.9163 2.65514 72.8986 3.42906L72.8981 3.4291Z"
        fill="white" />
    <path
        d="M91.3717 90.2654C91.3717 95.5749 72.788 100 50.0001 100C27.2125 100 8.62842 95.686 8.62842 90.2654V90.044L9.07056 80.9728C9.95561 82.4111 12.2781 83.7383 15.5969 84.8448C23.0084 87.3889 35.7296 89.159 49.9995 89.159C64.269 89.159 76.9906 87.5 84.4021 84.8448C87.7209 83.7383 90.0435 82.3008 90.9285 80.8625L91.3706 89.9337L91.3717 90.2654Z"
        fill="white" />
    <path
        d="M90.8186 78.9821C89.4914 80.8625 85.9512 82.5223 80.7521 83.8496C73.2303 85.8403 62.1684 87.0571 49.9999 87.0571C37.8314 87.0571 26.7698 85.8403 19.2477 83.8496C14.1588 82.5224 10.5092 80.8626 9.18115 78.9821L9.29149 77.8756L9.40183 75.5522C9.62329 70.5745 12.4992 66.2604 16.9236 64.0482L24.7779 60.1761C27.2115 58.9593 28.7602 56.5257 28.7602 53.7602L28.761 34.0707C28.761 32.7435 28.5395 31.4157 28.2077 30.1987C28.0974 29.7565 27.8759 29.3136 27.7656 28.8715C28.0974 28.8715 28.4292 28.7611 28.8721 28.7611C35.6199 27.9864 54.6464 26.1061 71.6818 28.8715C71.9032 28.8715 72.0136 29.0929 72.0136 29.3136C71.9032 29.6454 71.7921 29.8669 71.7921 30.1987V53.8712C71.7921 56.6367 73.3408 59.1807 75.8849 60.3975L83.0747 63.8265C87.6103 66.0387 90.5964 70.4641 90.9291 75.552V75.6623L91.0394 77.9857L90.8186 78.9821Z"
        fill="white" />
    <path
        d="M72.8984 8.96006V17.1461C72.5666 17.1461 72.1237 17.0358 71.7919 17.0358C65.4862 16.3714 57.9645 15.9292 49.9999 15.9292C42.0353 15.9292 34.5136 16.3714 28.2079 17.0358C24.8891 16.261 22.0134 15.3768 19.69 14.2703C18.9153 13.9385 18.4731 13.1638 18.4731 12.3898V10.3983C26.1061 8.73932 37.3894 7.63281 50.1103 7.63281C58.5177 7.74315 66.3713 8.18607 72.8979 8.96001L72.8984 8.96006Z"
        fill="white" />
    <path
        d="M87.8316 27.7653H87.0569C86.8355 27.7653 86.5037 27.6549 86.3933 27.3231C85.9512 26.5484 85.5083 25.7745 84.8447 25.1109C83.9597 24.2259 82.854 23.5623 81.7474 23.2305C81.1941 23.009 80.5305 23.009 79.9773 23.009C79.424 23.009 78.9819 23.1194 78.539 23.1194C78.3175 23.2297 77.9857 23.1194 77.7643 23.1194H77.6539C76.9903 22.8979 76.3267 22.5661 75.7735 22.124C75.3314 21.7922 74.9988 21.4604 74.5567 21.0175C74.3352 20.796 74.2249 20.5753 74.1145 20.3539C73.8931 20.0221 73.7827 19.5792 73.7827 19.2474V3.4292C77.765 4.31425 81.1942 5.53116 83.8493 6.8582C84.5129 7.19 84.9558 7.8536 84.9558 8.62829V19.9117C84.9558 20.2435 85.1772 20.5753 85.3979 20.7967C87.0569 22.0136 88.1634 24.1155 88.4953 26.3277V26.7698C88.6064 27.3231 88.2746 27.7652 87.8317 27.7652L87.8316 27.7653Z"
        fill="white" />
</svg>
