<svg fill="none" height="100" viewBox="0 0 100 100" width="100" xmlns="http://www.w3.org/2000/svg">
    <path clip-rule="evenodd"
        d="M50.0006 87.2144C54.529 87.2144 58.2031 83.5426 58.2031 79.0107C58.2031 74.4834 54.529 70.812 50.0006 70.812C45.4721 70.812 41.798 74.4839 41.798 79.0107C41.7963 83.5426 45.471 87.2144 50.0006 87.2144Z"
        fill="white" fill-rule="evenodd" />
    <path
        d="M66.9889 56.8688C65.0949 55.4101 63.0152 54.1947 60.7958 53.265C57.4711 51.8615 53.8227 51.0943 49.9984 51.0943C46.1741 51.0943 42.5285 51.8627 39.2048 53.265C36.9827 54.1958 34.9018 55.4111 33.0101 56.8688L11.1487 35.4274C16.0103 31.0849 21.5823 27.5542 27.6601 25.0323C34.5206 22.193 42.0658 20.6233 49.9972 20.6233C57.9297 20.6233 65.4729 22.1948 72.3343 25.0323C78.4108 27.554 83.9856 31.0859 88.8443 35.4274L66.9889 56.8688ZM57.7647 60.4844C60.2608 61.5346 62.4939 63.0637 64.3434 64.9487L67.0749 67.7327L97.212 38.167L100 35.4282L97.2556 32.6413L97.0469 32.4259L97.0313 32.4131L96.8198 32.2032V32.1804C90.7316 26.0944 83.4358 21.1798 75.3055 17.8161C67.4902 14.5755 58.9413 12.7854 49.9998 12.7854C41.0567 12.7854 32.507 14.5755 24.6942 17.8182C16.5619 21.1827 9.26707 26.0978 3.17851 32.1825V32.2054L2.96701 32.4152L2.94915 32.4281L2.74157 32.6435L1.89069e-06 35.4303L2.78628 38.1669L30.1305 64.9911L32.9251 67.7327L35.6566 64.9487C37.5059 63.0625 39.7392 61.5347 42.2353 60.4844C44.6188 59.4844 47.2453 58.9308 49.9999 58.9308C52.756 58.9308 55.3788 59.4827 57.7645 60.4844H57.7647Z"
        fill="white" />
    <path d="M53.7033 80.2674L73.7275 21.2504L66.3218 18.7393L46.2962 77.7549L53.7033 80.2674Z"
        fill="white" />
</svg>
