<svg fill="none" height="100" viewBox="0 0 100 100" width="100" xmlns="http://www.w3.org/2000/svg">
    <path clip-rule="evenodd"
        d="M50.0008 15.8225C46.5151 15.8225 43.6924 12.9953 43.6924 9.51669C43.6924 6.03092 46.5151 3.20825 50.0008 3.20825C53.4841 3.20825 56.3066 6.03209 56.3066 9.51669C56.3066 12.9953 53.4852 15.8225 50.0008 15.8225Z"
        fill="white" fill-rule="evenodd" />
    <path
        d="M50.0007 71.5031C42.0037 71.5031 34.1566 70.6153 26.5601 68.9331C18.7861 67.2124 11.3276 64.6548 4.28422 61.3648L0 59.3654L2.32719 55.2496L23.6372 17.5093L25.5275 14.1619L29.0793 15.583C32.34 16.8937 35.7664 17.9055 39.324 18.5883C42.7518 19.2508 46.3231 19.5949 50.0021 19.5949C53.6799 19.5949 57.2498 19.2521 60.6801 18.5883C64.2364 17.9061 67.6609 16.8936 70.9229 15.583L74.476 14.1619L76.3638 17.5093L97.6755 55.2496L100 59.3654L95.7171 61.3635C88.671 64.6541 81.2137 67.2104 73.4396 68.9318C65.8432 70.6153 57.9993 71.5031 50.0023 71.5031H50.0007ZM28.4518 60.3765C35.3348 61.9027 42.5518 62.7051 50.0007 62.7051C57.4502 62.7051 64.6627 61.9041 71.5497 60.3765C77.114 59.1461 82.4988 57.4501 87.6721 55.3306L70.5749 25.0535C67.8913 25.9484 65.1366 26.6717 62.3258 27.2136C58.3073 27.9884 54.1877 28.3872 49.9987 28.3872C45.8086 28.3872 41.6877 27.9884 37.6691 27.2136C34.8602 26.6711 32.1062 25.9485 29.4232 25.0535L12.3278 55.3306C17.501 57.4509 22.8858 59.1468 28.4513 60.3772L28.4518 60.3765Z"
        fill="white" />
    <path d="M46.6987 61.2827H53.303V69.3478H46.6987V61.2827Z" fill="white" />
    <path d="M46.6987 34.9009H53.303V43.8883H46.6987V34.9009Z" fill="white" />
    <path d="M46.6987 22.6465H53.303V30.7062H46.6987V22.6465Z" fill="white" />
    <path d="M53.303 17.8265H46.6987V11.2322H53.303V17.8265Z" fill="white" />
    <path
        d="M61.6836 90.0642C60.004 89.7163 58.59 89.023 57.248 87.9682L52.9723 92.9691C54.9965 94.7656 57.6873 95.9601 60.3166 96.5085L61.6836 90.0642ZM46.6984 74.624H53.3013V78.7182V78.7293V79.0603C53.377 80.7079 53.7863 82.3915 54.3993 83.9052L52.2862 84.7518L50.0008 85.6716L47.714 84.7518L45.6022 83.9052C46.2139 82.3914 46.6225 80.7092 46.7002 79.0603V78.7293V78.7182V76.5575L46.6996 74.624H46.6984ZM71.9004 88.5699C70.826 89.2919 68.4688 90.4232 67.1652 90.2424L67.9661 96.7911C70.7405 96.1286 73.0949 95.699 75.5324 94.0567L71.9004 88.5699ZM76.5809 79.7438C76.3792 81.5944 75.8282 83.1689 75.1017 84.8714L75.088 84.8767L80.9382 87.9219C80.9813 87.7685 81.0857 87.5877 81.1647 87.4467C82.213 85.2644 82.8619 82.8675 83.1244 80.4626L76.5809 79.7438ZM39.6778 96.5084C42.3131 95.9613 45.0018 94.7654 47.0248 92.969L42.7491 87.968C41.4037 89.0229 39.9951 89.7161 38.3148 90.0641L39.6778 96.5084ZM24.4687 94.0572C26.9048 95.6989 29.2594 96.1285 32.035 96.7916L32.8333 90.2429C31.531 90.4237 29.1739 89.2924 28.098 88.5704L24.4687 94.0572ZM16.8755 80.4651C17.149 82.9926 17.8494 85.4907 18.9898 87.7611L19.0616 87.923L24.9105 84.8777L24.8968 84.8725C24.1715 83.1713 23.6206 81.5956 23.4189 79.7449L16.8755 80.4651Z"
        fill="white" />
    <path d="M57.0292 22.8555L76.2871 61.2057L70.4122 64.1459L51.1543 25.7889L57.0292 22.8555Z"
        fill="white" />
    <path d="M46.6987 48.0842H53.303V57.0691H46.6987V48.0842Z" fill="white" />
</svg>
