<svg fill="none" height="100" viewBox="0 0 100 100" width="100" xmlns="http://www.w3.org/2000/svg">
    <path clip-rule="evenodd"
        d="M49.9992 15.8225C53.4849 15.8225 56.3076 12.9953 56.3076 9.51669C56.3076 6.03092 53.4849 3.20825 49.9992 3.20825C46.5159 3.20825 43.6934 6.03209 43.6934 9.51669C43.6934 12.9953 46.5148 15.8225 49.9992 15.8225Z"
        fill="white" fill-rule="evenodd" />
    <path
        d="M49.9993 71.5031C57.9963 71.5031 65.8434 70.6153 73.4399 68.9331C81.2139 67.2124 88.6724 64.6548 95.7158 61.3648L100 59.3654L97.6728 55.2496L76.3628 17.5093L74.4725 14.1619L70.9207 15.583C67.66 16.8937 64.2336 17.9055 60.676 18.5883C57.2482 19.2508 53.6769 19.5949 49.9979 19.5949C46.3201 19.5949 42.7502 19.2521 39.3199 18.5883C35.7636 17.9061 32.3391 16.8936 29.0771 15.583L25.524 14.1619L23.6362 17.5093L2.32452 55.2496L2.88392e-06 59.3654L4.28289 61.3635C11.329 64.6541 18.7863 67.2104 26.5604 68.9318C34.1568 70.6153 42.0007 71.5031 49.9977 71.5031H49.9993ZM71.5482 60.3765C64.6652 61.9027 57.4482 62.7051 49.9993 62.7051C42.5498 62.7051 35.3373 61.9041 28.4503 60.3765C22.886 59.1461 17.5012 57.4501 12.3279 55.3306L29.4251 25.0535C32.1087 25.9484 34.8634 26.6717 37.6742 27.2136C41.6927 27.9884 45.8123 28.3872 50.0013 28.3872C54.1914 28.3872 58.3123 27.9884 62.3309 27.2136C65.1398 26.6711 67.8938 25.9485 70.5768 25.0535L87.6722 55.3306C82.499 57.4509 77.1142 59.1468 71.5487 60.3772L71.5482 60.3765Z"
        fill="white" />
    <path d="M53.3013 61.2827H46.697V69.3478H53.3013V61.2827Z" fill="white" />
    <path d="M53.3013 34.9009H46.697V43.8883H53.3013V34.9009Z" fill="white" />
    <path d="M53.3013 22.6465H46.697V30.7062H53.3013V22.6465Z" fill="white" />
    <path d="M46.697 17.8265H53.3013V11.2322H46.697V17.8265Z" fill="white" />
    <path
        d="M38.3164 90.0642C39.996 89.7163 41.41 89.023 42.752 87.9682L47.0277 92.9691C45.0035 94.7656 42.3127 95.9601 39.6834 96.5085L38.3164 90.0642ZM53.3016 74.624H46.6987V78.7182V78.7293V79.0603C46.623 80.7079 46.2137 82.3915 45.6007 83.9052L47.7138 84.7518L49.9992 85.6716L52.286 84.7518L54.3978 83.9052C53.7861 82.3914 53.3775 80.7092 53.2998 79.0603V78.7293V78.7182V76.5575L53.3004 74.624H53.3016ZM28.0996 88.5699C29.174 89.2919 31.5312 90.4232 32.8348 90.2424L32.0339 96.7911C29.2595 96.1286 26.9051 95.699 24.4676 94.0567L28.0996 88.5699ZM23.4191 79.7438C23.6208 81.5944 24.1718 83.1689 24.8983 84.8714L24.912 84.8767L19.0618 87.9219C19.0187 87.7685 18.9143 87.5877 18.8353 87.4467C17.787 85.2644 17.1381 82.8675 16.8756 80.4626L23.4191 79.7438ZM60.3222 96.5084C57.6869 95.9613 54.9982 94.7654 52.9752 92.969L57.2509 87.968C58.5963 89.0229 60.0049 89.7161 61.6852 90.0641L60.3222 96.5084ZM75.5313 94.0572C73.0952 95.6989 70.7406 96.1285 67.965 96.7916L67.1667 90.2429C68.469 90.4237 70.8261 89.2924 71.902 88.5704L75.5313 94.0572ZM83.1245 80.4651C82.851 82.9926 82.1506 85.4907 81.0102 87.7611L80.9384 87.923L75.0895 84.8777L75.1032 84.8725C75.8285 83.1713 76.3794 81.5956 76.5811 79.7449L83.1245 80.4651Z"
        fill="white" />
    <path d="M42.9708 22.8555L23.7129 61.2057L29.5878 64.1459L48.8457 25.7889L42.9708 22.8555Z"
        fill="white" />
    <path d="M53.3013 48.0842H46.697V57.0691H53.3013V48.0842Z" fill="white" />
</svg>
