<svg fill="none" height="100" viewBox="0 0 100 100" width="100" xmlns="http://www.w3.org/2000/svg">
    <path clip-rule="evenodd"
        d="M49.9994 87.2144C45.471 87.2144 41.7969 83.5426 41.7969 79.0107C41.7969 74.4834 45.471 70.812 49.9994 70.812C54.5279 70.812 58.202 74.4839 58.202 79.0107C58.2037 83.5426 54.529 87.2144 49.9994 87.2144Z"
        fill="white" fill-rule="evenodd" />
    <path
        d="M33.0111 56.8688C34.9051 55.4101 36.9848 54.1947 39.2042 53.265C42.5289 51.8615 46.1773 51.0943 50.0016 51.0943C53.8259 51.0943 57.4715 51.8627 60.7952 53.265C63.0173 54.1958 65.0982 55.4111 66.9899 56.8688L88.8513 35.4274C83.9897 31.0849 78.4177 27.5542 72.3399 25.0323C65.4794 22.193 57.9342 20.6233 50.0028 20.6233C42.0703 20.6233 34.5271 22.1948 27.6657 25.0323C21.5892 27.554 16.0144 31.0859 11.1557 35.4274L33.0111 56.8688ZM42.2353 60.4844C39.7392 61.5346 37.5061 63.0637 35.6566 64.9487L32.9251 67.7327L2.78799 38.167L0 35.4282L2.74442 32.6413L2.95312 32.4259L2.96875 32.4131L3.18025 32.2032V32.1804C9.26838 26.0944 16.5642 21.1798 24.6945 17.8161C32.5098 14.5755 41.0587 12.7854 50.0002 12.7854C58.9433 12.7854 67.493 14.5755 75.3058 17.8182C83.4381 21.1827 90.7329 26.0978 96.8215 32.1825V32.2054L97.033 32.4152L97.0508 32.4281L97.2584 32.6435L100 35.4303L97.2137 38.1669L69.8695 64.9911L67.0749 67.7327L64.3434 64.9487C62.4941 63.0625 60.2608 61.5347 57.7647 60.4844C55.3812 59.4844 52.7547 58.9308 50.0001 58.9308C47.244 58.9308 44.6212 59.4827 42.2355 60.4844H42.2353Z"
        fill="white" />
    <path d="M46.2967 80.2674L26.2725 21.2504L33.6782 18.7393L53.7038 77.7549L46.2967 80.2674Z"
        fill="white" />
</svg>
